<?xml version="1.0" standalone="no"?>
<!DOCTYPE svg PUBLIC "-//W3C//DTD SVG 1.1//EN" "http://www.w3.org/Graphics/SVG/1.1/DTD/svg11.dtd" >
<svg xmlns="http://www.w3.org/2000/svg" xmlns:xlink="http://www.w3.org/1999/xlink" version="1.1">
<metadata></metadata>
<defs>
<font id="dyslexiebold" horiz-adv-x="1350" >
<font-face units-per-em="2048" ascent="1638" descent="-410" />
<missing-glyph horiz-adv-x="1128" />
<glyph unicode=" "  horiz-adv-x="1128" />
<glyph unicode="&#x09;" horiz-adv-x="1128" />
<glyph unicode="&#xa0;" horiz-adv-x="1128" />
<glyph unicode="!" horiz-adv-x="1227" d="M817 156q0 -42 -16 -78.5t-43.5 -64.5t-64.5 -44t-79 -16t-79 16t-64 44t-43 64.5t-16 78.5t16 79t43 65t64 44t79 16t79 -16t64.5 -44t43.5 -65t16 -79zM442 563l41 1350h267l38 -1350h-346z" />
<glyph unicode="&#x22;" horiz-adv-x="1452" d="M1065 1602q42 0 78.5 -16t64.5 -43.5t44 -64.5t16 -79q0 -122 -5.5 -203.5t-16.5 -136t-28 -88.5t-40 -62q-26 -30 -59 -50t-63 -31q-35 -14 -71 -21l-22 131q38 11 65.5 29.5t50.5 46.5q13 17 21.5 35t14 40.5t7.5 50.5t2 66q-12 -6 -29.5 -8t-29.5 -2q-42 0 -79.5 16 t-65.5 43.5t-44 64.5t-16 79t16 79t44 64.5t65.5 43.5t79.5 16zM408 1602q42 0 79 -16t64 -43.5t43 -64.5t16 -79q0 -122 -5 -203.5t-15.5 -136t-27.5 -88.5t-40 -62q-26 -30 -58.5 -50t-62.5 -31q-35 -14 -71 -21l-25 131q38 11 66 29.5t53 46.5q12 17 20.5 35t13.5 40.5 t7 50.5t2 66q-11 -6 -28 -8t-31 -2q-42 0 -79 16t-64.5 43.5t-43.5 64.5t-16 79t16 79t43.5 64.5t64.5 43.5t79 16z" />
<glyph unicode="#" horiz-adv-x="1884" d="M1720 1044h-313l-68 -315h381v-260h-436l-98 -469h-281l101 469h-316l-98 -469h-281l101 469h-269v260h324l65 315h-389v259h445l92 432h281l-93 -432h314l92 432h280l-92 -432h258v-259zM1061 729l65 315h-313l-68 -315h316z" />
<glyph unicode="$" horiz-adv-x="1800" d="M1055 -197h-307l4 154q-50 6 -96.5 18t-90.5 27q-62 23 -112.5 56.5t-92.5 78.5q-34 37 -60 71t-45 71t-31 79t-17 95l-2 32h368l7 -20q5 -16 10.5 -24.5t11.5 -16.5q4 -4 4 -6q28 -35 63.5 -57t86.5 -33l8 491q-2 0 -4 1t-4 1q-54 19 -95 35t-76 32t-69 34t-74 41 q-85 49 -125 127q-43 78 -43 182q0 61 9 113t28.5 97t50 84t72.5 74q69 58 151.5 89t192.5 40l2 144h242l2 -148q42 -5 78.5 -13t68.5 -19h3q26 -9 51 -19t49.5 -23.5t49 -33t48.5 -47.5q26 -29 47 -62.5t35.5 -70.5t22.5 -74.5t8 -73.5v-31h-299l-2 29q0 34 -15 64.5 t-41 52.5q-12 11 -34.5 23.5t-65.5 23.5l8 -410h2q52 -15 106.5 -32t104.5 -35t94.5 -37.5t77.5 -40.5q86 -51 131 -158q22 -49 32.5 -106t10.5 -117v-37q-6 -118 -47 -210t-123 -171q-43 -42 -101.5 -77t-127.5 -60q-35 -12 -70.5 -23.5t-72.5 -19.5zM1040 729l7 -391 q29 11 57.5 25t56.5 32q18 12 31 26t21.5 33t12.5 42.5t5 54.5q2 31 -4 49t-17 37q-11 17 -29 31.5t-42 25.5q-14 6 -40.5 15t-58.5 20zM774 1499q-42 -8 -75.5 -25t-67.5 -44q-29 -23 -40 -50.5t-11 -70.5q0 -26 4.5 -37.5t15.5 -24.5q14 -15 30.5 -26t47.5 -25q5 -3 24 -9 t68 -22z" />
<glyph unicode="%" horiz-adv-x="1925" d="M539 0l536 1778h293l-534 -1778h-295zM477 940q-69 0 -130 26.5t-106 72.5t-71.5 107t-26.5 130t26.5 130t71.5 107t106 72.5t130 26.5q70 0 131.5 -26.5t107 -72.5t71.5 -107t26 -130t-26 -130t-71.5 -107t-107 -72.5t-131.5 -26.5zM477 1393q-24 0 -45 -9t-37 -25 t-25.5 -37.5t-9.5 -45.5t9.5 -45.5t25.5 -37t37 -25t45 -9.5q25 0 46 9.5t37 25t25 37t9 45.5t-9 45.5t-25 37.5t-37 25t-46 9zM1446 252q-69 0 -130 26.5t-107 72t-72.5 107t-26.5 130.5q0 70 26.5 131t72.5 106.5t107 72t130 26.5t130 -26.5t107 -72t72.5 -106.5 t26.5 -131q0 -69 -26.5 -130.5t-72.5 -107t-107 -72t-130 -26.5zM1446 705q-25 0 -46.5 -9t-37 -25t-24.5 -37.5t-9 -45.5t9 -45.5t24.5 -37t37 -25t46.5 -9.5q24 0 45 9.5t37 25t25.5 37t9.5 45.5t-9.5 45.5t-25.5 37.5t-37 25t-45 9z" />
<glyph unicode="&#x26;" horiz-adv-x="1909" d="M758 -43q-297 0 -439 166q-137 164 -137 371q0 100 35 203.5t100 191.5q32 44 93 106t159 125q-24 28 -41 53t-29.5 47.5t-22.5 43.5t-19 43q-19 43 -28 88t-9 102q0 48 6 87t19 72t34.5 63t52.5 61q65 63 151.5 98t193.5 35q106 0 186.5 -33t134.5 -92q26 -29 43.5 -55 t30.5 -54q24 -62 24 -139q0 -45 -4 -85.5t-14.5 -78.5t-29 -74t-48.5 -73q-26 -31 -77 -82.5t-126 -104.5l230 -303q5 10 8 19t6 20q2 3 3 7t3 8q0 2 9 32t12 78v29h293l-5 -33q-6 -47 -12.5 -83.5t-15 -69.5t-20 -66.5t-27.5 -73.5q-14 -38 -28 -65.5t-23 -42.5l389 -498 h-428l-144 201q-43 -57 -86.5 -94t-77.5 -60q-37 -25 -72 -42.5t-73.5 -28t-81.5 -15t-96 -4.5h-2zM741 911q-12 -8 -23 -15t-22 -13q-25 -17 -44.5 -30t-34.5 -24t-26.5 -21t-21.5 -22q-20 -23 -33.5 -42.5t-22 -40t-13.5 -45t-8 -56.5q-7 -57 -0.5 -96.5t26.5 -65.5 q18 -24 46 -42t60.5 -29.5t66.5 -17t65 -5.5q63 0 112.5 13t96.5 42q23 14 45 36t41 48zM872 1679q-69 0 -106.5 -18t-58.5 -55q-13 -22 -18 -40.5t-5 -39.5q0 -69 37 -133q29 -47 55 -82t41 -54q6 4 13.5 8t15.5 9q15 10 33 21t35.5 22.5t33 23t27.5 21.5q67 58 67 160 q0 34 -10 60t-35 52q-18 22 -46.5 33.5t-76.5 11.5h-2z" />
<glyph unicode="'" horiz-adv-x="797" d="M408 1597q42 0 79 -16t65 -43t44 -64t16 -79q0 -122 -5.5 -203.5t-16.5 -136t-28 -88.5t-40 -62q-26 -30 -58.5 -50t-62.5 -31q-35 -14 -71 -21l-25 133q40 9 68 27.5t51 46.5q12 17 20.5 35t13.5 40.5t7 50.5t2 66q-11 -6 -28 -8t-31 -2q-42 0 -78.5 16t-64.5 43.5 t-44 64.5t-16 79t16 79t44 64t64.5 43t78.5 16z" />
<glyph unicode="(" horiz-adv-x="868" d="M457 -690l-8 16q-72 153 -117 249.5t-62 139.5q-3 8 -6 15.5t-6 15.5q-17 40 -36.5 89.5t-35.5 111.5q-27 99 -52 205t-36 221q-3 28 -5 62.5t-3 69t-1.5 68t-0.5 60.5q0 108 8.5 201.5t22.5 175.5t32.5 155t38.5 140q28 98 92.5 242t159.5 347l9 19h262l-15 -41 q-37 -98 -65.5 -183.5t-50.5 -159.5t-38.5 -136.5t-29.5 -114.5q-18 -75 -32.5 -148.5t-25 -150t-16.5 -158t-6 -172.5q0 -102 9.5 -203.5t24 -197t33 -180.5t36.5 -154q24 -99 76.5 -241.5t121.5 -321.5l17 -41h-295z" />
<glyph unicode=")" horiz-adv-x="889" d="M162 -690l16 41q71 179 123.5 321.5t75.5 241.5q18 69 36 154t32.5 180.5t24 197t9.5 203.5q0 91 -6 172.5t-16.5 158t-25 150t-32.5 148.5q-13 52 -29 114.5t-38 136.5t-51 159.5t-66 183.5l-14 41h264l8 -19q95 -203 159 -347t93 -242q20 -67 38.5 -140t32.5 -155 t22.5 -175.5t8.5 -201.5q0 -27 -1 -60.5t-2.5 -68t-3.5 -69t-5 -62.5q-11 -115 -34.5 -221t-51.5 -205q-17 -62 -37 -111.5t-37 -89.5q-3 -8 -6 -15.5t-6 -15.5q-17 -43 -61.5 -139.5t-116.5 -249.5l-8 -16h-295z" />
<glyph unicode="*" horiz-adv-x="1419" d="M604 971l-61 -60l-140 140l60 59h-84v199h84l-60 59l140 141l61 -61v86h197v-86l61 61l139 -141l-61 -59h86v-199h-86l61 -59l-139 -140l-61 60v-84h-197v84z" />
<glyph unicode="+" d="M488 0v408h-407v342h407v407h342v-407h408v-342h-408v-408h-342z" />
<glyph unicode="," horiz-adv-x="813" d="M408 365q42 0 79 -16t64 -43.5t43 -64.5t16 -79q0 -122 -5 -203.5t-16 -136t-28 -88.5t-41 -62q-26 -30 -58.5 -50t-62.5 -31q-35 -14 -71 -21l-23 131q38 11 66 29.5t53 46.5q12 17 20.5 35t13.5 40.5t7 50.5t2 66q-11 -6 -29 -8t-30 -2q-42 0 -79 16t-64.5 43.5 t-43.5 64.5t-16 79t16 79t43.5 64.5t64.5 43.5t79 16z" />
<glyph unicode="-" horiz-adv-x="1544" d="M193 455v348h1177v-348h-1177z" />
<glyph unicode="." horiz-adv-x="817" d="M610 178q0 -41 -16 -78t-43 -65t-64 -44t-79 -16t-79 16t-64.5 44t-43.5 65t-16 78q0 42 16 79.5t43.5 65.5t64.5 44t79 16t79 -16t64 -44t43 -65.5t16 -79.5z" />
<glyph unicode="/" horiz-adv-x="1176" d="M94 -86l647 1999h289l-565 -1999h-371z" />
<glyph unicode="0" d="M1116 1159q32 -91 49 -198t17 -232q0 -321 -109 -516q-133 -238 -407 -238h-2q-273 0 -406 238q-54 97 -81 226t-27 290q0 125 15.5 232t47.5 198q62 171 174 257.5t275 86.5q81 0 151 -21.5t127 -66.5q114 -86 176 -256zM852 444q37 70 56.5 161.5t19.5 187.5 q0 71 -1.5 119.5t-6.5 85.5t-14.5 68.5t-24.5 68.5q-13 33 -35 59.5t-50.5 45t-61.5 29t-68 11.5q-73 -2 -131.5 -40.5t-85.5 -104.5q-15 -37 -24 -68.5t-14.5 -68.5t-7.5 -85.5t-2 -119.5q0 -96 20.5 -187.5t55.5 -161.5q32 -60 75.5 -87t109.5 -27h6q66 0 109.5 27 t74.5 87z" />
<glyph unicode="1" d="M560 0l59 1073h-332v203l27 4q91 8 160 23.5t106 35.5h2q18 10 31.5 18t23.5 19.5t17.5 29.5t15.5 48l6 23h193l59 -1477h-368z" />
<glyph unicode="2" d="M149 0l2 31v15t2 15q5 85 13.5 159t40.5 140q18 36 46.5 74t66 74.5t82.5 71t95 63.5l191 109q62 37 104.5 67.5t67.5 54.5q37 37 47 74t10 84q0 31 -1 53t-5 39t-13 31t-24 29q-34 34 -83 52.5t-103 18.5q-40 0 -69.5 -5.5t-51 -14t-35.5 -19t-24 -20.5 q-14 -14 -27 -41.5t-18 -58.5l-4 -25h-242l6 33q1 4 4.5 24t8 44t10 47.5t10.5 35.5q45 107 141 162q56 31 128.5 46.5t166.5 15.5q257 0 377 -142q59 -69 89 -146.5t30 -164.5q0 -94 -32 -172.5t-97 -138.5q-26 -26 -50 -46.5t-47 -39.5t-46 -36.5t-48 -35.5 q-9 -8 -19.5 -15.5t-21.5 -15.5q-1 -1 -14 -10.5t-33.5 -25t-45.5 -33.5t-48 -35.5t-42 -32.5t-28 -22q-20 -17 -30 -32t-15 -28h610v-307h-1032z" />
<glyph unicode="3" d="M633 -25q-65 0 -121 8.5t-104 28.5q-97 37 -162 111q-26 31 -44 61.5t-30.5 63.5t-19 71t-9.5 84v31h287l8 -16q4 -5 9 -13q5 -7 11.5 -18t16.5 -25q4 -6 13.5 -12t29 -11t50 -8t75.5 -3h19q26 0 53 0.5t51 3.5t43.5 9.5t30.5 18.5q17 18 26.5 34t14.5 34t6.5 40t1.5 52 q0 34 -3.5 54.5t-11 33.5t-19.5 22.5t-30 20.5q-20 13 -40.5 22t-45 14.5t-54.5 8t-69 2.5h-34q-10 0 -19 -1t-18 -1l-31 -2v224l33 -5q12 0 24 -1t21 -1q9 -2 18.5 -2h20.5q46 0 84 7.5t67 21.5q24 12 42 25t30.5 29.5t18.5 39.5t6 55q0 59 -12 91.5t-38 52.5 q-17 12 -39.5 21.5t-47 15.5t-50.5 9t-49 3q-59 0 -101 -19.5t-65 -56.5q-5 -9 -8 -20t-4.5 -21.5t-1.5 -19.5v-13l2 -32h-266q-2 16 -1 24t1 25q0 6 1 17t3 24q9 69 26 100q28 53 69 92.5t93 67.5q51 28 113 41.5t133 13.5q227 0 354 -104q65 -53 98 -128.5t33 -174.5 q0 -38 -5.5 -67.5t-15.5 -54t-24.5 -45.5t-32.5 -42q-14 -17 -29 -31t-34 -27q79 -37 127 -106q35 -51 51.5 -103t16.5 -118q0 -59 -7.5 -113t-21.5 -102q-35 -116 -103 -181q-72 -69 -178 -100q-51 -17 -109 -24t-124 -7z" />
<glyph unicode="4" d="M702 0l27 244h-584v291l662 942h194l15 -940h194v-293h-176l27 -244h-359zM745 537l43 602l-395 -602h352z" />
<glyph unicode="5" d="M621 -25q-190 0 -334 111q-72 54 -115 147q-19 42 -29.5 88.5t-15.5 94.5l-2 33h301v-31q0 -18 18.5 -31t38.5 -21q13 -6 26 -10.5t30.5 -8t42 -5.5t59.5 -2q77 0 125 20.5t82 65.5q18 25 29 46.5t16 43t6.5 46t1.5 54.5q0 38 -3.5 67.5t-12 53.5t-22.5 44t-34 38 q-40 38 -82.5 54t-105.5 16q-23 0 -40 -1.5t-31 -4.5t-26.5 -8t-27.5 -13q-32 -18 -60.5 -37t-45.5 -39l-11 -10h-225l4 727h926v-231h-682v-219q14 9 26.5 15.5t26.5 12.5q43 19 93.5 28t107.5 9q213 0 360 -141q150 -142 150 -361q0 -74 -8 -138t-24 -119.5t-40.5 -104 t-58.5 -92.5q-70 -89 -181 -137q-111 -50 -253 -50z" />
<glyph unicode="6" d="M662 -25q-107 0 -198.5 41t-168.5 121t-115 217q-18 65 -27.5 144t-9.5 172q0 136 16 251t50 209q65 189 186 281t295 92q61 0 108.5 -7t87.5 -21t74 -34.5t68 -47.5q13 -10 30.5 -33.5t32.5 -53t25.5 -62t9.5 -60.5v-29h-229l-6 25q-3 17 -9 30t-28 31 q-23 22 -62.5 33.5t-89.5 11.5h-6q-46 -1 -80 -6.5t-59.5 -17.5t-46 -31.5t-39.5 -48.5q-31 -50 -51 -127t-29 -187q23 23 50.5 42.5t56.5 33.5h2q45 22 96 32.5t106 10.5q94 0 177.5 -30.5t152.5 -92.5q144 -123 144 -364q0 -102 -32.5 -193t-99.5 -170 q-68 -80 -163.5 -121t-218.5 -41zM668 764q-57 0 -100 -16t-81 -48q-18 -16 -31 -32t-22.5 -36.5t-15 -47t-6.5 -64.5q-2 -23 -1 -40t4 -31t9.5 -26.5t17.5 -25.5q34 -41 87 -53t135 -12q183 0 231 63q15 21 23.5 35t12.5 28.5t4.5 33t0.5 49.5v4q0 50 -13 83t-36 64 q-28 37 -81 54.5t-138 17.5z" />
<glyph unicode="7" d="M321 0l7 35q15 95 42 192.5t67.5 201t94.5 215.5t123 237q51 87 103.5 157.5t105.5 137.5q14 17 27.5 34t27.5 35h-780v232h1073v-252l-10 -8q-21 -16 -41.5 -32.5t-41.5 -38t-45 -51t-52 -71.5q-31 -45 -56 -85t-47.5 -79.5t-43 -80t-42.5 -87.5q-17 -35 -31.5 -80.5 t-26 -92t-19.5 -89t-11 -72.5q-3 -17 -5 -36.5t-5 -40.5q-8 -51 -16 -112.5t-15 -141.5l-2 -27h-381z" />
<glyph unicode="8" d="M668 -25q-220 0 -369 119q-77 60 -116.5 148.5t-39.5 203.5q0 134 68 234q50 77 139 127q-44 25 -69 53q-44 44 -65 101t-21 126q0 171 122 295q62 62 148.5 91.5t198.5 29.5q215 0 340 -112q61 -59 92.5 -127.5t31.5 -147.5q0 -72 -18 -131t-55 -104q-16 -19 -35.5 -36 t-44.5 -34q31 -19 55.5 -37.5t44.5 -38.5q103 -111 103 -280q0 -201 -134 -340q-68 -69 -162 -104.5t-214 -35.5zM657 711q-116 0 -188 -66q-18 -17 -31.5 -30.5t-22.5 -28.5t-13.5 -34.5t-4.5 -47.5q1 -20 3.5 -35t7.5 -27.5t12 -24t18 -24.5q13 -16 28.5 -27t38.5 -17.5 t55.5 -9.5t80.5 -3h29q31 0 64.5 5t64 13.5t54 20t34.5 24.5q14 17 22 29t12.5 22.5t5.5 21.5t1 26q0 31 -4.5 52t-13.5 37t-23 30t-33 30q-37 32 -87 48t-110 16zM659 1282q-61 0 -108.5 -14.5t-69.5 -40.5q-21 -26 -31 -57.5t-10 -77.5q0 -20 3.5 -35t11 -27.5t19 -24 t28.5 -24.5q66 -51 157 -51q53 0 93 14.5t69 42.5q16 17 27 30.5t18 26.5t10 26.5t3 31.5q0 40 -7.5 69.5t-31.5 55.5q-25 28 -71.5 41.5t-109.5 13.5z" />
<glyph unicode="9" d="M630 -25q-219 0 -338 119q-54 56 -83 135.5t-29 173.5v29h252q12 -29 18.5 -46.5t20.5 -27.5q15 -11 51.5 -16.5t83.5 -5.5q11 0 20.5 -1t20.5 -1h43q40 0 77.5 8t63.5 37q18 21 32 46t25 57t20 72.5t17 92.5q-17 -14 -37 -26t-43 -23q-49 -22 -104.5 -26.5t-108.5 -4.5 q-54 0 -106 8.5t-98 23.5t-83 36t-59 47q-125 140 -125 346q0 52 7.5 94t23 79.5t38.5 72.5t54 74q63 78 156 116.5t215 38.5q164 0 278 -73.5t177 -223.5q34 -81 41.5 -180t7.5 -219q0 -73 -2.5 -137.5t-9.5 -123t-19 -111.5t-31 -103q-69 -178 -185.5 -267.5t-281.5 -89.5 zM659 1282q-57 0 -111.5 -23t-89.5 -65q-16 -18 -26.5 -36.5t-17 -41t-9 -50.5t-2.5 -65v-2q0 -14 0.5 -26t4 -24.5t11 -26t21.5 -31.5q28 -32 82 -50t129 -18q24 0 52.5 3.5t56 11t53 19t45.5 26.5q18 15 29.5 33.5t18 38t9 39t2.5 36.5q0 39 -3.5 67t-11 48t-19 36 t-27.5 31q-34 32 -86 51t-111 19z" />
<glyph unicode=":" horiz-adv-x="817" d="M610 178q0 -42 -16 -79t-43 -64.5t-64 -43.5t-79 -16t-79 16t-64.5 43.5t-43.5 64.5t-16 79t16 79t43.5 64.5t64.5 43.5t79 16t79 -16t64 -43.5t43 -64.5t16 -79zM610 1028q0 -42 -16 -79t-43 -64.5t-64 -43.5t-79 -16t-79 16t-64.5 43.5t-43.5 64.5t-16 79t16 79 t43.5 64.5t64.5 43.5t79 16t79 -16t64 -43.5t43 -64.5t16 -79z" />
<glyph unicode=";" horiz-adv-x="817" d="M610 1012q0 -42 -16 -79t-43 -64.5t-64 -43.5t-79 -16t-79 16t-64.5 43.5t-43.5 64.5t-16 79t16 79t43.5 64t64.5 43t79 16t79 -16t64 -43t43 -64t16 -79zM408 365q-42 0 -79 -16t-64.5 -43.5t-43.5 -64.5t-16 -79t16 -79t43.5 -64.5t64.5 -43.5t79 -16q12 0 30 2t29 8 q0 -38 -2 -66t-7 -50.5t-13.5 -40.5t-20.5 -35q-25 -28 -53 -46.5t-66 -29.5l23 -131q36 7 71 21q30 11 62.5 31t58.5 50q24 28 41 62t28 88.5t16 136t5 203.5q0 42 -16 79t-43 64.5t-64 43.5t-79 16z" />
<glyph unicode="&#x3c;" horiz-adv-x="942" d="M446 0l-370 633l422 581h276l-407 -581l403 -633h-324z" />
<glyph unicode="=" d="M104 170v301h1157v-301h-1157zM104 709v301h1157v-301h-1157z" />
<glyph unicode="&#x3e;" horiz-adv-x="948" d="M176 0l406 633l-408 581h277l421 -581l-370 -633h-326z" />
<glyph unicode="?" horiz-adv-x="1378" d="M483 565v31q0 33 3 82t8 99.5t13 95.5t19 69q9 21 28 53.5t45 68.5t57.5 72.5t66.5 65.5l82 72q18 15 34 30t33 39q9 13 17 32t13 39.5t8 41t3 37.5q0 47 -5.5 78t-30.5 59q-26 29 -83.5 45.5t-131.5 16.5q-46 0 -79.5 -4t-58.5 -13t-42.5 -23.5t-30.5 -35.5 q-8 -11 -14.5 -37t-8.5 -80v-10l-4 -25h-256v29q-2 23 -0.5 58t10.5 75q11 50 32.5 89.5t55.5 70.5q34 34 79 58.5t97 41.5q50 14 106.5 20.5t119.5 6.5q62 0 121.5 -8t113 -23t98 -36.5t76.5 -49.5q71 -59 107.5 -135.5t36.5 -169.5q0 -29 -2 -61.5t-7.5 -64.5t-16 -62 t-28.5 -54q-17 -23 -36 -44t-42.5 -44t-53.5 -49t-68 -59q-45 -39 -72 -83.5t-43 -76.5q-2 -5 -4 -8t-4 -8q-1 -3 -2.5 -9.5t-4 -19.5t-4.5 -34t-4 -52q-3 -43 -3.5 -87t-0.5 -75v-35h-342zM664 -43q-48 0 -89.5 17.5t-72 48t-48.5 71.5t-18 88t18 88.5t48.5 72.5t72 49 t89.5 18q46 0 87 -18t72 -49t48.5 -72.5t17.5 -88.5t-17.5 -88t-48.5 -71.5t-72 -48t-87 -17.5z" />
<glyph unicode="@" horiz-adv-x="2445" d="M1247 -43q-131 0 -249.5 20t-221.5 60q-210 83 -352 248q-57 65 -100 136t-72 148q-28 76 -42.5 157.5t-14.5 168.5q0 201 77 381q35 87 89.5 166t123.5 151q78 81 168 141.5t193 100.5q103 38 219 59t244 21q121 0 222.5 -12t186.5 -33q100 -28 177.5 -70t134.5 -104 q57 -60 94.5 -119.5t60.5 -124.5q23 -62 33 -132t10 -161q0 -68 -8.5 -127.5t-27 -114.5t-48 -108.5t-71.5 -108.5q-39 -52 -90 -95.5t-111 -74.5q-57 -29 -115.5 -44t-114.5 -15q-160 0 -204 90q-10 19 -14.5 37t-6.5 35q-34 -53 -84 -88q-52 -38 -109.5 -56t-136.5 -18 q-41 0 -81 9t-77 25.5t-69.5 40.5t-58.5 54q-26 31 -44 61t-28.5 64.5t-15 74.5t-4.5 91q2 127 45.5 243.5t128.5 215.5q81 96 175.5 145t196.5 49q137 0 226 -80q24 -21 42.5 -44.5t30.5 -51.5l52 135h219l-17 -41q-1 -1 -8.5 -19.5t-20 -49.5t-28 -71.5t-31.5 -84 t-30.5 -87t-24.5 -81.5q-15 -60 -26.5 -115t-16.5 -100q-4 -33 -3.5 -54.5t2 -34.5t4 -18t3.5 -6q14 -6 29 -9t24 -3h5q30 3 55 10t48 20t45.5 33.5t47.5 49.5q98 116 98 325q0 70 -6 123t-22 97t-42.5 85t-68.5 87q-71 76 -195.5 113.5t-316.5 37.5q-450 0 -688 -262 q-44 -48 -75.5 -105t-51 -125t-27.5 -150t-6 -181q1 -76 15.5 -133t37.5 -102t53.5 -81.5t65.5 -70.5q59 -59 125.5 -102.5t143 -72t164.5 -42t190 -13.5q51 0 97.5 2t90 7.5t85 15t83.5 24.5q188 69 316 166l30 23l125 -297l-16 -12q-27 -25 -57.5 -46.5t-68 -41.5 t-84 -40.5t-105.5 -43.5q-59 -24 -126 -38t-135 -21t-135.5 -9t-128.5 -2zM1290 1374q-63 0 -123 -41.5t-106 -115.5q-24 -39 -39 -74.5t-23 -71t-11 -72.5t-3 -77q0 -30 2.5 -51.5t8 -38t13.5 -30t19 -26.5q42 -51 109 -51q83 0 139 37t94 119q43 88 65.5 160t22.5 149 q0 34 -10 63.5t-33 55.5q-10 11 -23 22.5t-29 21t-34.5 15.5t-38.5 6z" />
<glyph unicode="A" horiz-adv-x="2066" d="M1190 1915l723 -1915h-418l-149 549h-621l-152 -549h-421l729 1913h309v2zM799 842h467l-232 731z" />
<glyph unicode="B" horiz-adv-x="1849" d="M252 1913h745q103 0 201 -34t176 -97q40 -32 71.5 -68t53.5 -78q49 -85 49 -180q0 -74 -12 -131.5t-37 -105.5q-25 -44 -59 -78t-82 -62q62 -28 116.5 -71t96.5 -99q54 -72 82 -157.5t28 -176.5q0 -114 -49 -221q-42 -101 -125 -182q-40 -40 -85.5 -72t-98.5 -55 t-107.5 -34t-111.5 -11h-905zM1077 346q56 0 105.5 21t86 57.5t58 85.5t21.5 104q0 56 -21.5 105.5t-58 86t-86 58t-105.5 21.5h-508l15 -539h493zM561 1208h434q49 0 91 20.5t72.5 53.5t47.5 74t17 82q0 40 -18.5 76.5t-49.5 64t-72.5 43.5t-87.5 16h-446z" />
<glyph unicode="C" horiz-adv-x="2007" d="M1014 -25q-93 0 -177 17t-159 49q-78 34 -143 84t-119 115q-54 66 -96.5 143.5t-71.5 165.5q-29 90 -44.5 184t-15.5 191q0 239 58 417q29 93 73.5 171t104.5 147q57 66 128.5 118t156.5 87q80 34 166.5 50.5t179.5 16.5q313 0 510 -153q75 -59 124.5 -140.5t67.5 -175.5 l6 -35h-362l-4 23q-6 32 -22 59.5t-42 55.5q-46 45 -111 65.5t-165 20.5q-67 0 -131 -21t-120.5 -59.5t-102 -92.5t-74.5 -120q-18 -43 -32 -78t-23 -73t-13.5 -84.5t-5.5 -112.5q0 -64 10 -126.5t25 -118.5t32 -102t32 -76q15 -32 39.5 -69t67 -70t108.5 -56t165 -27h2 q45 0 88 4t79 10t62 13.5t38 15.5q24 17 40 46t19 66l2 27h442v-31q-2 -75 -21.5 -143.5t-60.5 -128.5q-35 -54 -81 -95.5t-99.5 -72t-112 -50.5t-118.5 -30q-78 -14 -156 -17.5t-143 -3.5z" />
<glyph unicode="D" horiz-adv-x="1966" d="M254 1913h653q122 0 235.5 -34t212 -96.5t179.5 -149.5t139 -193t89.5 -228t31.5 -254q0 -198 -53.5 -370.5t-155.5 -302.5q-101 -136 -248 -207q-75 -38 -157.5 -57t-173.5 -21h-805zM586 348h325q118 0 218 46.5t173 129t113.5 196.5t40.5 249q0 90 -21 174t-59.5 158 t-92 134.5t-118.5 104.5t-139.5 68t-153.5 24h-321z" />
<glyph unicode="E" horiz-adv-x="1630" d="M195 0l53 1913h1159v-281h-862l12 -471h680v-315h-670l13 -498h827v-348h-1212z" />
<glyph unicode="F" horiz-adv-x="1589" d="M190 0l54 1913h1130v-281h-835l14 -471h635v-164l-121 -149h-506l25 -848h-396z" />
<glyph unicode="G" horiz-adv-x="2077" d="M1012 -25q-93 0 -177 17t-159 49q-78 34 -143 84t-119 115q-54 68 -96.5 144.5t-71.5 166.5q-29 88 -44.5 182t-15.5 191q0 238 58 419q59 182 178 316q57 68 128.5 119t156.5 88q80 34 167 49.5t181 15.5q152 0 280 -37t228 -114q68 -54 117.5 -132t80.5 -184l11 -37 h-369l-8 19q-14 35 -29 60t-38 45q-20 18 -45 36t-58 32.5t-74.5 23t-95.5 8.5q-67 0 -130.5 -21t-119 -59.5t-101 -92t-75.5 -118.5q-20 -44 -34.5 -79t-23.5 -73.5t-13 -85t-5 -112.5q0 -64 12 -129t28.5 -122.5t35 -102t30.5 -66.5q19 -35 42.5 -75t64 -74.5t104.5 -58.5 t164 -26h10q55 0 96.5 3t76.5 10.5t67.5 21.5t68.5 35q15 9 31 21.5t30.5 31t25 43.5t14.5 58h-285v325h676l31 -930h-360l8 175q-22 -25 -47 -47t-56 -42q-66 -45 -164.5 -65.5t-244.5 -20.5z" />
<glyph unicode="H" horiz-adv-x="1964" d="M1372 0l23 848l-449 10l-377 -10l25 -848h-395l53 1913h289l20 -731l385 -8l459 8l20 731h289l53 -1913h-395z" />
<glyph unicode="I" horiz-adv-x="795" d="M199 0l53 1913h289l53 -1913h-395z" />
<glyph unicode="J" horiz-adv-x="1489" d="M723 -43q-113 0 -213 40t-178 118q-79 77 -121.5 176t-42.5 209v28h326v-28q0 -62 57 -107q29 -23 66 -35t79 -12t80.5 12t67.5 35q57 45 57 107l53 1413h289l25 -1413q0 -110 -40.5 -209t-117.5 -176q-77 -78 -176.5 -118t-210.5 -40z" />
<glyph unicode="K" horiz-adv-x="1806" d="M195 0l55 1913h295l12 -694l645 694h363l-764 -854l807 -926v-133h-412l-625 788l39 -788h-415z" />
<glyph unicode="L" horiz-adv-x="1501" d="M190 0l54 1915l288 -2l43 -1565h629l105 -145v-203h-1119z" />
<glyph unicode="M" horiz-adv-x="2439" d="M1819 0l41 1479l-430 -1190h-420l-428 1190l39 -1479h-416l129 1913h358l529 -1241l526 1241h358l129 -1913h-415z" />
<glyph unicode="N" horiz-adv-x="2013" d="M1380 0l-798 1319l32 -1319h-415l57 1913h301l879 -1317l30 1085l170 232h125l54 -1913h-435z" />
<glyph unicode="O" horiz-adv-x="2128" d="M1024 -25q-93 0 -174.5 14.5t-153.5 45.5q-142 61 -252 186q-114 134 -176 291q-16 42 -29 91t-22 102t-13.5 108.5t-4.5 110.5q0 57 5 116t14.5 115.5t22.5 108.5t29 96q32 87 79.5 164.5t107.5 148.5q110 129 262 197q72 31 157.5 45t182.5 16h6q97 -2 182.5 -16 t157.5 -45q151 -68 262 -197q60 -71 107 -148.5t79 -164.5q16 -44 29.5 -96t23 -108.5t14.5 -115.5t5 -116q0 -55 -5 -110.5t-14 -108.5t-22 -102t-29 -91q-60 -157 -176 -291q-54 -62 -116.5 -108.5t-135.5 -77.5q-71 -31 -153 -45.5t-176 -14.5h-74zM1055 1649 q-56 0 -108.5 -12.5t-100 -36t-88.5 -57.5t-72 -77q-68 -91 -102.5 -206.5t-34.5 -249.5q0 -150 27.5 -265.5t82.5 -203.5q32 -53 71 -87t87 -53q48 -20 104.5 -28t129.5 -8h22q72 0 129 8t105 28q94 37 157 140q56 88 83.5 203.5t27.5 265.5q0 134 -34.5 249.5 t-102.5 206.5q-32 43 -72.5 77t-88 57.5t-100.5 36t-108 12.5h-14z" />
<glyph unicode="P" horiz-adv-x="1729" d="M197 33q0 1 2.5 46l6.5 117t9 163t10 185t9 182.5t6 154.5q1 49 2 118t2 148.5t1 164.5v166.5v155t-0.5 129t-0.5 88.5v35v27h288l7 -62q35 20 68 28.5t71 16.5q6 2 13.5 3.5t15.5 3.5q18 4 42 6.5t51 3t55 0.5h52h51q118 0 222 -41t186 -123q84 -81 127 -185.5 t43 -220.5q0 -114 -45.5 -217t-130.5 -184q-82 -78 -186 -121t-216 -45h-4q-12 0 -25 -1t-26 -1q-66 0 -124.5 6t-123.5 19q-28 5 -48 10.5t-36 11.5l27 -821h-403zM559 1163q0 -11 6.5 -19.5t32.5 -21.5q15 -6 48 -9.5t71.5 -5t77 -1.5h65.5q14 0 26.5 1t26.5 1h56 q49 0 93.5 21t78 57t53.5 83.5t20 100.5q0 52 -20 99t-53.5 83t-78 57t-93.5 21q-112 0 -191.5 -2t-124.5 -14q-11 -3 -27 -9t-32.5 -16t-29 -23t-15.5 -30z" />
<glyph unicode="Q" horiz-adv-x="2073" d="M950 -43q-86 0 -161 14t-138 45q-134 62 -229 189q-53 65 -92.5 137.5t-67.5 153.5q-15 40 -26 89t-19 102.5t-12 108.5t-4 109q0 57 4.5 116t12.5 115.5t19.5 108.5t26.5 96q29 85 71.5 163t96.5 149q101 130 238 196q66 32 143.5 47t165.5 17h8q88 -2 165.5 -17 t143.5 -47q137 -66 238 -196q54 -71 96.5 -149t71.5 -163q15 -44 26.5 -96t19.5 -108.5t12.5 -115.5t4.5 -116q0 -54 -4 -109t-12 -108.5t-19 -102.5t-26 -89q-16 -43 -33 -80l215 -223v-193h-262l-131 145q-79 -82 -178 -129q-63 -31 -138 -45t-161 -14h-66zM977 1630 q-99 0 -186 -48t-146 -136q-60 -91 -91.5 -206t-31.5 -249q0 -297 101 -471q29 -51 63.5 -84.5t77.5 -52.5q43 -20 93.5 -28.5t115.5 -8.5h20q65 0 115.5 8.5t93.5 28.5q14 5 26.5 12t24.5 17l-309 346l201 209l266 -279q17 66 25 141.5t8 161.5q0 134 -31.5 249t-91.5 206 q-59 88 -146 136t-186 48h-12z" />
<glyph unicode="R" horiz-adv-x="1952" d="M1374 0l-381 664q-6 11 -18.5 30t-33 37t-50 31.5t-70.5 13.5h-250l23 -776h-395l53 1913h813q124 0 232 -42.5t192 -123.5q80 -81 123 -184.5t43 -219.5q0 -92 -30 -178t-87 -161q-49 -65 -113.5 -113.5t-136.5 -77.5l467 -651v-162h-381zM1083 1104q48 0 92.5 22.5 t78.5 60.5t54.5 87.5t20.5 103.5q0 45 -15 90t-45 81t-76.5 58.5t-109.5 22.5h-534l14 -526h520z" />
<glyph unicode="S" horiz-adv-x="1886" d="M920 -25q-184 0 -336 58q-66 25 -121 60t-98 83q-37 39 -65.5 75.5t-48.5 76t-33 84.5t-19 102l-2 33h393l6 -21q5 -17 11 -26t14 -19q2 -2 2 -3t2 -3q18 -24 42.5 -44.5t60.5 -35t86.5 -22.5t121.5 -8q80 0 151.5 20t137.5 64q40 25 57.5 64.5t17.5 107.5q2 32 -4 52 t-18 40q-25 40 -78 63q-22 11 -68.5 26t-105.5 34q-56 17 -117.5 36.5t-120.5 40.5q-57 21 -101 38t-82 33.5t-74.5 35.5t-79.5 45q-91 53 -134 135q-45 82 -45 197q0 65 10 120.5t31 103.5t53 89.5t76 79.5q45 38 94 65t106.5 44t125 24.5t150.5 7.5q99 0 176.5 -10 t140.5 -33h2q28 -9 54.5 -19t52.5 -24.5t52.5 -35t53.5 -50.5q56 -63 87.5 -143.5t31.5 -159.5v-29h-318v29q0 9 -2 23.5t-8.5 32t-18.5 36t-32 35.5q-14 12 -35 24t-55 21.5t-84 16t-121 6.5q-48 0 -86 -7.5t-67 -19.5t-51 -27t-40 -30q-31 -25 -43 -54t-12 -77 q0 -29 5 -42t17 -28q14 -15 32 -27.5t52 -27.5q9 -4 35 -12.5t61 -19.5t76 -24t81 -25.5t75.5 -23.5t59.5 -18q57 -16 115 -34t112.5 -37.5t102.5 -41t83 -43.5q44 -26 79.5 -68.5t59.5 -99.5q23 -54 35.5 -115t12.5 -126v-39q-7 -125 -52 -224.5t-133 -183.5 q-46 -43 -107.5 -79t-135.5 -62q-85 -29 -171 -44.5t-171 -15.5z" />
<glyph unicode="T" horiz-adv-x="1661" d="M631 0l47 1632h-604v281h1511v-281h-604l45 -1632h-395z" />
<glyph unicode="U" horiz-adv-x="2007" d="M813 -43q-99 0 -184.5 16t-157.5 52q-71 35 -124 86t-87 114q-21 39 -33 83.5t-19 93t-9 99t-2 101.5q0 1 1 37t2.5 97.5t4 143t5 174t5 190t5 191t5 177.5t4 148.5t3 105.5t1.5 47h289l35 -1264v-8q0 -17 0.5 -42t4.5 -52t11.5 -52.5t22.5 -43.5q34 -40 74 -62t78.5 -32 t71.5 -11.5t54 -1.5q63 0 128.5 27.5t130.5 81.5q57 46 100.5 110t64.5 133q13 43 22.5 79t15.5 75t9 87t3 114l24 862h289q0 -8 2 -67.5t4.5 -152.5t5.5 -210.5t6.5 -241.5t7.5 -246t7.5 -223.5t6.5 -174t5 -97.5q3 -33 12 -80.5t19.5 -100t23 -105.5t23 -97.5t18 -76 t10.5 -40.5h-319l-94 129l-2 164q-34 -63 -78 -116t-98 -91q-48 -35 -95 -59.5t-96.5 -40t-102.5 -22.5t-114 -7z" />
<glyph unicode="V" horiz-adv-x="1937" d="M776 0l-624 1913h290l527 -1329l524 1329h293l-625 -1913h-385z" />
<glyph unicode="W" horiz-adv-x="2732" d="M1651 0l-283 1022l-285 -1022h-399l-518 1913h338l383 -1460l309 933h342l309 -933l383 1460h338l-518 -1913h-399z" />
<glyph unicode="X" horiz-adv-x="2064" d="M1432 0l-400 801l-401 -801h-451l602 1061l-516 852h342l424 -604l422 604h346l-551 -852l639 -1061h-456z" />
<glyph unicode="Y" horiz-adv-x="1837" d="M657 0l121 817l-637 1096h316l501 -854l406 854h332l-578 -1098q-5 -60 -10 -127.5t-10 -134.5t-10 -129t-9 -111.5t-6 -81.5t-2 -38q-6 -8 -27.5 -34t-48 -56.5t-51.5 -59.5t-37 -43h-250z" />
<glyph unicode="Z" horiz-adv-x="2095" d="M195 0l8 358l1093 1276h-960v279h1384v-295l-985 -1256h1030l138 -362h-1708z" />
<glyph unicode="[" horiz-adv-x="1182" d="M246 -686l26 2599h629v-266h-358l20 -2014h338v-319h-655z" />
<glyph unicode="\" horiz-adv-x="1208" d="M178 1999h289l645 -1999h-371z" />
<glyph unicode="]" horiz-adv-x="1182" d="M211 -686v319h338l20 2014h-358v266h631l24 -2599h-655z" />
<glyph unicode="^" d="M908 875l-234 677l-233 -677h-260l419 970h148l420 -970h-260z" />
<glyph unicode="_" horiz-adv-x="1858" d="M95 -398v348h1668v-348h-1668z" />
<glyph unicode="`" horiz-adv-x="1706" d="M596 1929l408 -432l-164 -164l-432 406l188 190v0z" />
<glyph unicode="a" horiz-adv-x="1442" d="M530 -43q-86 0 -157.5 27t-126.5 79q-57 54 -84 121q-16 34 -22.5 71t-4.5 77q3 59 12.5 102.5t26.5 77.5t39.5 57.5t48.5 46.5q59 51 123 79.5t141 39.5q50 8 112 9t118 1h53h41q31 0 42.5 5t14.5 8q5 5 5.5 16.5t0.5 24.5l2 63q0 16 -2.5 34.5t-8.5 36t-16.5 32.5 t-27.5 26q-32 22 -78.5 32.5t-105.5 10.5q-38 0 -66 -2.5t-48 -6t-33 -8.5t-21 -9q-28 -16 -39 -32.5t-14 -45.5l-2 -27h-254v31q0 21 4.5 50.5t18.5 61.5t40 64t68 59q66 42 154 63t190 21q202 0 348 -88q141 -86 141 -268l2 -661v-3l127 -108l2 -119l-22 -6l-15 -5 q-19 -6 -35 -9.5t-36 -5.5t-36.5 -2t-37.5 2q-60 5 -100 30t-62 76q-3 8 -6 15.5t-6 15.5l-29 -29t-34 -31.5t-37 -30t-37 -24.5q-30 -15 -63 -24t-67.5 -13.5t-70 -6t-70.5 -1.5zM629 555q-51 -3 -91.5 -16t-60.5 -33q-19 -19 -30 -35.5t-17 -33t-7.5 -35.5t-2.5 -42 q0 -18 5 -33t24 -30q13 -12 32.5 -18t41 -9t43 -3.5t38.5 -0.5h8q25 0 51.5 2.5t51.5 6.5t46.5 9.5t35.5 10.5q28 10 48 20t32.5 25t19 38t8.5 60l2 119h-108h-75q-29 0 -57 -0.5t-38 -1.5z" />
<glyph unicode="b" horiz-adv-x="1438" d="M748 -41q-78 5 -138 22.5t-106 49.5q-16 11 -27 21.5t-22 23.5l-11 -76h-321l8 37l4 19.5t10 50t13.5 70t14.5 80t12.5 79t7.5 67.5q1 18 3 70.5t4 129t4 171.5t4.5 199t4.5 211.5t3.5 208.5t3.5 189.5t3 155.5t1.5 106.5t0.5 41.5l2 27h267l-23 -739q12 9 26.5 18 t32.5 18q27 15 56 23.5t57 13.5t54.5 6.5t47.5 1.5q70 0 122 -12t94 -35q40 -21 71.5 -53t63.5 -74q59 -74 103.5 -179.5t78.5 -254.5q17 -75 23 -132.5t-1 -117.5q-8 -68 -28 -124.5t-55 -104.5t-82.5 -86t-104.5 -66q-59 -29 -123 -44t-129 -15zM721 1047 q-48 0 -85.5 -12.5t-64.5 -29.5t-44 -35t-25 -30q-18 -26 -28 -48.5t-15 -52.5t-5 -72t3 -108v-22.5t2 -20.5q1 -41 3.5 -77t8.5 -67.5t18 -60t33 -53.5q27 -32 58 -50t66.5 -27.5t75 -12t83.5 -2.5q13 0 30.5 4.5t37 12.5t39.5 19t38 24q14 10 25 19.5t20 23.5q13 19 25 54 t16.5 81.5t-0.5 102t-26 116.5q-18 56 -35 96t-33 69.5t-30.5 50t-28.5 36.5q-22 24 -42.5 38.5t-40.5 22t-39.5 9.5t-39.5 2z" />
<glyph unicode="c" horiz-adv-x="1382" d="M686 -43q-130 0 -234 44t-173 128q-69 85 -105.5 201.5t-36.5 253.5q0 80 9.5 148t29.5 130q38 121 117 209q38 45 85.5 79.5t104.5 57.5q53 22 110.5 33.5t119.5 11.5q103 0 188 -25.5t150 -76.5q93 -71 133 -209l12 -39h-272l-6 19q-8 20 -15 36t-18 27 q-15 13 -31 24.5t-36 19.5t-45 13t-58 5q-45 0 -84.5 -13.5t-72.5 -37.5t-59 -57.5t-44 -74.5q-12 -27 -19.5 -48.5t-11.5 -44.5t-5 -52t-1 -72q0 -81 13 -144t42 -126l2 -4q13 -25 23.5 -43.5t31.5 -32.5q25 -16 66 -23.5t104 -7.5h19q65 0 100 4t47 11q16 8 25.5 15.5 t11.5 27.5l4 24h305v-29q0 -38 -13.5 -79.5t-41.5 -83.5q-20 -32 -47 -61.5t-53 -49.5q-42 -31 -87 -48.5t-92.5 -26.5t-95.5 -11t-96 -2z" />
<glyph unicode="d" horiz-adv-x="1477" d="M647 -43h-2q-65 0 -111.5 15.5t-80.5 39.5t-58.5 54t-46.5 59l-4 4q-24 34 -52.5 84.5t-55.5 111t-50.5 129t-38.5 140.5q-18 81 -22.5 147t4.5 123q5 32 14.5 59t23 52t32 49t41.5 51q77 87 183.5 132.5t233.5 45.5q69 0 126 -15.5t110 -47.5q19 -11 39 -25.5t43 -36.5 l53 785h266l-55 -973v-39t0.5 -84t1 -110.5t1.5 -119t2.5 -108.5t4.5 -80t10.5 -68t17 -77.5t20 -78t19 -68.5t14 -48.5t5.5 -19.5l13 -39h-351v117q-29 -35 -62.5 -62.5t-68.5 -46.5q-52 -26 -104.5 -38.5t-114.5 -12.5zM678 1047q-12 0 -24 -1.5t-23 -3.5 q-77 -12 -127 -43t-88 -86q-21 -30 -26 -77t-0.5 -98t15.5 -99.5t23 -79.5q16 -44 28 -72t23 -50t24 -41.5t32 -45.5q18 -26 32 -42.5t35 -25.5t55 -12.5t93 -3.5q55 0 99 19.5t75 54.5q38 47 51 103.5t16 136.5q1 54 -3.5 102t-13 87.5t-19.5 69.5t-23 48 q-45 75 -111 117.5t-143 42.5z" />
<glyph unicode="e" horiz-adv-x="1397" d="M690 -43q-121 0 -216.5 38.5t-170.5 119.5q-168 175 -168 452q0 143 45 269q22 60 52.5 114t70.5 101q82 94 184 147q54 28 113 41.5t121 13.5q92 0 155 -19t101 -38q23 -11 49 -29t50.5 -40.5t47 -49.5t37.5 -55q25 -45 48 -97.5t34 -117.5v-2q12 -110 -53 -184 q-42 -48 -114 -74t-171 -29l-477 -29q5 -35 17 -73t36 -66q15 -18 31 -33t38.5 -26.5t54.5 -18t79 -6.5h6q34 1 68.5 1.5t64 2t52.5 4t36 7.5t22.5 13t12.5 30l2 24h307v-26q-2 -48 -15.5 -92t-41.5 -83q-25 -34 -52 -57.5t-50 -40.5q-29 -22 -59 -37t-58 -24.5t-53.5 -14.5 t-46.5 -8q-39 -6 -90.5 -7t-98.5 -1zM727 1047q-37 0 -68 -9t-58 -25t-50.5 -36.5t-44.5 -44.5q-35 -37 -57.5 -93t-28.5 -122l463 22q13 1 28 3t28.5 7t25 12.5t18.5 18.5q25 46 -14 129q-19 40 -47.5 66.5t-61.5 42.5t-67.5 22.5t-65.5 6.5z" />
<glyph unicode="f" horiz-adv-x="1020" d="M496 0h-226l23 975h-244v239h250l8 353q2 88 10 143.5t25 87.5q9 15 20 30t28 29t40.5 26t56.5 20q15 4 35.5 6t43 3t44 1h37.5h19q38 0 80 -4t92 -29q24 -11 39.5 -24.5t27.5 -30.5l8 -13l-53 -188h-59q-5 19 -11 30.5t-14 18t-18 10.5t-23 7h-4q-2 2 -12 2h-33h-43 q-12 -1 -26 -8t-25.5 -18t-19 -25t-7.5 -29v-99v-299h293v-239h-289l17 -709z" />
<glyph unicode="g" horiz-adv-x="1389" d="M627 -686h-2q-72 0 -119.5 4t-82.5 13.5t-64.5 25.5t-63.5 41q-32 23 -57 55t-43 70q-44 89 -56 225l-2 43l309 -92l5 -16q5 -19 9 -29.5t7.5 -16.5t8 -9t11.5 -7q20 -12 57 -17t99 -5q39 0 78 3t72.5 15t61 35t44.5 63q4 9 8 29.5t8 58t6.5 96t2.5 144.5 q-8 -8 -17 -16.5t-20 -16.5q-47 -37 -106.5 -54t-133.5 -17q-100 0 -191.5 37.5t-168.5 111.5q-162 154 -162 467q0 84 6.5 153.5t20.5 129.5q17 71 42 125.5t62 97.5q38 45 81 79.5t89 59.5q103 56 209 53q53 -1 90 -5t65 -10.5t49.5 -16t43.5 -21.5q17 -11 40.5 -32 t43.5 -46l34 92h271l-15 -38q0 -1 -8.5 -26t-18 -62.5t-18 -81t-8.5 -80.5q0 -11 -0.5 -51.5t-1 -99.5t-1 -130.5t-1 -144.5t-1 -142t-1 -123.5t-0.5 -88.5v-37q0 -112 -4 -194.5t-12 -147.5q-10 -75 -25.5 -129.5t-38.5 -98.5q-68 -124 -190 -176q-59 -25 -131.5 -37 t-169.5 -12zM684 1049q-96 0 -156.5 -41t-95.5 -129q-5 -14 -10.5 -43t-9 -66.5t-4.5 -81.5t2 -88q6 -104 22.5 -167.5t48.5 -98.5q29 -35 69 -50.5t105 -15.5h9q60 1 98 8.5t62.5 20.5t40.5 31t32 41q11 15 20 33.5t15.5 45.5t10.5 64t5 88q9 257 -59 334q-97 115 -205 115 z" />
<glyph unicode="h" horiz-adv-x="1384" d="M1253 0h-321l18 735v39v56.5t-2 55t-6.5 48.5t-13.5 37q-22 38 -66.5 55.5t-107.5 17.5t-113 -16.5t-90 -58.5q-20 -23 -30.5 -58.5t-15.5 -80.5t-6 -97t-1 -106l-4 -627h-320l33 1010l39 903h266l-20 -731q12 8 26 15.5t33 16.5q43 19 104 29t140 10q69 0 128 -11.5 t105 -33.5q53 -23 91 -59.5t63 -85.5q15 -29 25 -69t16.5 -83t9.5 -85.5t4 -75.5q0 -19 1 -60t2.5 -95t2.5 -116.5t2.5 -125t3 -120.5t2.5 -102.5t1.5 -72.5t0.5 -29v-29z" />
<glyph unicode="i" horiz-adv-x="700" d="M350 1498q-38 0 -71.5 14t-58.5 39t-39.5 58t-14.5 71q0 37 14.5 70.5t39.5 59t58.5 40t71.5 14.5t71 -14.5t58 -40t39 -59t14 -70.5q0 -38 -14 -71t-38.5 -58t-58 -39t-71.5 -14zM508 0h-315l26 1214h262z" />
<glyph unicode="j" horiz-adv-x="897" d="M242 -686q-58 0 -100.5 13.5t-70.5 30t-42 30.5t-15 16l-12 14l109 228q13 -13 27 -23q12 -9 26.5 -16t30.5 -6q16 0 32 3t29.5 12.5t23 27.5t13.5 49q4 38 7 72.5t5.5 71.5t4 79t3.5 96q1 27 4 90t8 148.5t11 185.5t12.5 201.5t12.5 197t11 171t8 124t3 56.5l2 28h266 l-2 -30q0 -2 -2 -46.5t-5 -117t-7 -167t-8.5 -196t-8.5 -203t-7.5 -189.5t-6.5 -155.5t-4 -99.5q-1 -42 -2.5 -74.5t-3 -59.5t-3.5 -51t-3 -48q-2 -25 -4 -52.5t-4 -62.5q-4 -54 -10.5 -93.5t-16.5 -70.5t-25 -55t-36 -47q-20 -20 -41 -36t-52 -26q-28 -11 -65.5 -14.5 t-91.5 -3.5v-2zM496 1540q-39 0 -73 14.5t-59.5 40t-40 59.5t-14.5 72q0 39 14.5 73.5t40 59.5t59.5 39.5t73 14.5q38 0 72 -14.5t59.5 -39.5t40 -59.5t14.5 -73.5q0 -38 -14.5 -72t-40 -59.5t-59.5 -40t-72 -14.5z" />
<glyph unicode="k" horiz-adv-x="1303" d="M1165 0h-301l-432 502l10 -502h-319v29q0 2 1 53t3 131.5t4.5 181t4.5 201t4 191.5t3 153v31q0 42 1.5 102t5.5 131q2 71 5.5 149t6.5 153.5t6 143.5t5 120t3.5 82.5t1.5 31.5v29h268l-2 -31q0 -1 -2 -36t-5 -91t-7 -128t-7 -147.5t-5 -148t-2 -129.5q0 -32 0.5 -68.5 t1.5 -73t2 -70.5t2 -60l346 284h375l-574 -477l598 -610z" />
<glyph unicode="l" horiz-adv-x="854" d="M289 0q-35 0 -67 14.5t-54 40.5q-17 22 -27 46t-12 59v82q2 2 2 33.5t2 80.5q1 53 2.5 123t3 148t3.5 159.5t4 158t4 143t4 114.5q1 61 2.5 135.5t2.5 150t2 146.5t1.5 126t1 89t0.5 35v29h266v-29q0 -1 0.5 -34.5t0.5 -89t0.5 -126t-0.5 -146t-2.5 -150t-4.5 -136.5 q-2 -47 -3 -110.5t-2 -135.5t-1 -148v-148q0 -169 2 -353q0 -15 0.5 -22.5t3.5 -12.5q5 -8 27 -8h127l106 -264h-395z" />
<glyph unicode="m" horiz-adv-x="1962" d="M1812 0h-315l16 836q-2 43 -13.5 80t-39.5 63q-14 14 -27.5 26.5t-29.5 21.5t-36 14.5t-46 5.5h-2q-35 0 -62 -10t-45.5 -23t-30 -26t-16.5 -19q-29 -34 -37 -65.5t-8 -65.5l17 -838h-316l17 838q3 65 -35 118q-10 15 -23 31.5t-31.5 29.5t-44.5 21.5t-63 8.5 q-32 0 -55 -6.5t-41 -18t-33.5 -28t-30.5 -36.5q-18 -24 -26.5 -54.5t-10.5 -65.5v-41t2 -45v-107q0 -14 0.5 -48t1.5 -79.5t2.5 -99l3 -107t3 -103.5t2.5 -89t1.5 -63t0.5 -25v-31h-314l23 1214h258v-45q14 11 29 20.5t30 18.5h2q11 6 26.5 14t39.5 15t57.5 11.5t79.5 4.5 q63 0 117 -15.5t100 -47.5q22 -16 41.5 -33t34.5 -39q25 28 52 49t65 41q30 15 66.5 24t71.5 13.5t64 6t44 1.5h4q109 0 200 -42.5t154 -120.5q48 -62 70 -135.5t22 -166.5z" />
<glyph unicode="n" horiz-adv-x="1413" d="M1249 0h-315l2 31q4 141 7.5 245.5t5.5 180.5t2.5 127t1 83.5t0 50t-0.5 27.5v15q0 66 -2.5 104.5t-11.5 61.5q-9 21 -21.5 42.5t-31 39t-46.5 28.5t-69 11q-14 0 -30 -5t-32 -12t-30 -15.5t-23 -15.5q-17 -11 -31.5 -22.5t-29.5 -25.5t-31 -31t-35 -39 q-21 -25 -31.5 -49.5t-21.5 -59.5q-5 -15 -7.5 -31t-4 -34t-1.5 -39.5t1 -49.5q0 -14 0.5 -46t1.5 -75.5t2.5 -94.5t2.5 -102.5t2.5 -99.5t2.5 -85t1.5 -60t0.5 -24l2 -31h-317l2 31q0 1 2 35.5t5 90.5t6.5 128.5t7.5 151t7.5 156.5t6 145.5t4 119t0.5 76.5q-1 31 -4 74 t-6.5 82t-6 66t-2.5 28l-4 30h264l9 -131q13 18 29 36t33 34t35 29.5t36 21.5q49 25 105 37t116 12q130 0 221 -49.5t139 -146.5q25 -48 37.5 -116.5t14.5 -170.5q0 -23 1.5 -66.5t4 -99.5t5 -119.5l5 -127t5.5 -122t5 -103.5t3 -72.5t1 -28.5v-31z" />
<glyph unicode="o" horiz-adv-x="1470" d="M705 -43q-127 0 -227.5 42.5t-174.5 129.5q-38 45 -68.5 95t-52.5 104q-45 120 -45 256q0 72 12 140.5t35 131.5q23 59 54 112t73 101q154 181 414 184h12q128 -2 231.5 -47.5t180.5 -136.5q40 -48 71.5 -101t53.5 -112q25 -63 37 -131.5t12 -140.5q0 -135 -47 -256 q-20 -54 -50.5 -104t-68.5 -95q-150 -172 -401 -172h-51zM727 1044q-74 0 -128.5 -30.5t-100.5 -95.5q-23 -33 -39 -66t-25.5 -67.5t-13.5 -72t-4 -79.5q0 -45 4 -82.5t12 -70t21.5 -62t31.5 -58.5q32 -49 89 -72.5t145 -23.5h12q90 0 146 23.5t88 72.5q18 28 32.5 56 t24.5 59.5t15 69t5 84.5q0 49 -5 89.5t-15 75.5t-25 66t-34 60q-44 63 -99 93.5t-131 30.5h-6z" />
<glyph unicode="p" horiz-adv-x="1386" d="M182 479q0 90 0.5 177.5t1.5 166t2 145t2 115t1.5 76.5t0.5 29v26h263v-84q20 20 42 38t44 30q24 15 53 25t59 17t58.5 10t52.5 3q52 0 98.5 -14t89.5 -45q67 -50 135 -147q26 -38 55.5 -96t55.5 -124q7 -16 16.5 -42t18.5 -55t15.5 -57t6.5 -48q0 -22 -3 -59.5 t-14.5 -87.5t-34 -109.5t-60.5 -124.5q-45 -78 -90 -132.5t-95 -88.5t-108 -49.5t-129 -16.5h-12q-60 0 -108 9.5t-97 37.5q-16 8 -28 17t-23 18v-725h-318q13 231 24 447q4 92 8.5 190.5t8.5 193t6 180.5t2 154zM455 410q2 -18 7.5 -30t15 -22t24.5 -20t37 -23 q37 -21 73 -34t84 -13q42 0 73 12.5t55.5 34t44.5 49.5t38 60q41 68 63.5 121.5t22.5 79.5q0 16 -8 48t-19.5 67.5t-24.5 68.5t-23 51q-26 47 -48 82t-43.5 58.5t-43.5 35t-48 11.5q-45 0 -90.5 -22t-91.5 -60q-17 -14 -34.5 -32t-31.5 -39t-23.5 -43.5t-10.5 -45.5z" />
<glyph unicode="q" horiz-adv-x="1425" d="M641 -43q-116 0 -206 39.5t-163 124.5q-66 77 -102.5 197t-36.5 266q0 76 10 147t28.5 134t46 116t63.5 94q37 45 78.5 78.5t89.5 54.5q48 23 102 34t117 11q55 0 103.5 -10.5t94.5 -30.5q85 -38 162 -118q34 -34 62.5 -84.5t50.5 -112.5q21 -62 33 -129.5t14 -136.5 q3 -90 -8.5 -177t-36.5 -155l145 -149v-150h-244l-57 80q-28 -26 -59 -48.5t-71.5 -39t-92.5 -26t-121 -9.5h-2zM664 1044q-75 0 -126.5 -30t-86.5 -90q-19 -32 -33.5 -72.5t-24 -85t-14.5 -90.5t-4 -88q0 -32 3 -58t9.5 -51t17.5 -50.5t27 -55.5q5 -9 20 -27t42 -36t68 -31 t100 -13q52 0 86 6.5t53 14.5l-244 262l164 170l221 -232q6 34 6 71.5v66.5q-1 34 -6 73t-13.5 76t-20 70t-23.5 57q-38 75 -90.5 109t-130.5 34z" />
<glyph unicode="r" horiz-adv-x="1026" d="M479 0h-315v31q0 1 1.5 38.5t4 98t5.5 138t6.5 159.5t6.5 162t5.5 145.5t4 110t1.5 55.5q0 35 -11 75.5t-24 75.5t-24 58t-11 24l-20 43h266l51 -88q9 14 22.5 28.5t36.5 31.5q32 22 64.5 35.5t63.5 20.5t59.5 9t54.5 2q6 0 32 -1t60 -5.5t68.5 -13.5t58.5 -25l21 -12 l-93 -235l-30 28q-26 26 -58 40.5t-90 14.5q-63 0 -103.5 -32.5t-74.5 -87.5q-23 -39 -34.5 -76.5t-16 -75t-4 -75t1.5 -74.5v-37q0 -28 1 -80t2 -113.5t3 -125t3 -116t2 -86t1 -34.5z" />
<glyph unicode="s" horiz-adv-x="1290" d="M627 -43q-131 0 -228 34t-157 103q-26 31 -44 57.5t-30 55t-19.5 63t-13.5 80.5h305q0 -26 4.5 -37.5t14.5 -19.5q6 -4 16.5 -8.5t30 -8t50 -6t75.5 -2.5q36 0 61 1.5t44 6t34.5 12t32.5 19.5q15 11 25.5 20t16.5 19t8.5 22.5t2.5 30.5q-2 32 -27.5 57.5t-80.5 45.5 q-10 3 -29 9t-42 13t-47.5 14t-45 13t-34.5 10t-15 4q-60 17 -119.5 41.5t-98.5 48.5q-68 43 -99.5 98t-35.5 138q-2 43 3 78.5t18.5 67t36.5 59.5t57 57q31 27 66 46t75 31t86 17.5t101 5.5q135 0 224 -26t148 -86q44 -44 67 -97.5t23 -109.5v-29h-258v29q-2 15 -7.5 29 t-20.5 32q-7 8 -18 17t-30 17t-49 13t-75 5q-57 0 -90 -9t-58 -26q-24 -17 -36.5 -35.5t-12.5 -56.5q0 -26 12 -43t48 -41q23 -17 48.5 -27.5t67.5 -20.5l123 -30q61 -15 108.5 -28.5t85 -27t66 -28t49.5 -29.5q121 -87 115 -280q-5 -83 -34.5 -146t-92.5 -123 q-32 -31 -75.5 -56.5t-94.5 -43.5q-54 -19 -112.5 -29t-118.5 -10z" />
<glyph unicode="t" horiz-adv-x="1223" d="M688 -43q-80 0 -147 24t-107 66q-32 35 -47.5 85.5t-13.5 119.5l22 727h-289v235h295l31 521h135l107 -140l-8 -381h282l94 -124v-111h-378l-2 -643q0 -70 22 -86q14 -9 35 -11.5t43 -2.5h4q29 0 67 6.5t70 17.5q16 5 34 14t33 18q18 10 34 21l83 -268l-20 -12 q-18 -12 -33.5 -19.5t-31.5 -12.5t-34.5 -9.5t-43.5 -9.5l-42.5 -8.5t-50.5 -8t-63 -6t-80 -2.5z" />
<glyph unicode="u" horiz-adv-x="1442" d="M580 -43q-63 0 -119.5 13t-104.5 38q-48 23 -85 57.5t-66 77.5q-32 50 -48 123.5t-14 167.5l21 780h254l10 -778q3 -46 11 -77t16 -42q23 -32 63 -41.5t111 -9.5q43 0 75 13.5t57 36t45.5 53t39.5 65.5t28.5 90.5t12.5 153.5l6 536h256v-28q0 -66 1.5 -150t3 -173 t3.5 -177t4.5 -161.5t5.5 -126.5t7 -72q3 -18 10.5 -41.5t18.5 -50t24 -54t26 -53.5q31 -62 68 -127h-313l-66 170q-18 -29 -42 -60.5t-46 -50.5q-62 -52 -129 -77t-145 -25z" />
<glyph unicode="v" d="M823 0h-297l-428 1214h264l312 -786l313 786h264l-428 -1214v0v0z" />
<glyph unicode="w" horiz-adv-x="1905" d="M1405 0h-299l-158 586l-157 -586h-299l-353 1212l267 2l243 -874l176 563h246l182 -563l240 874h264l-352 -1214v0v0z" />
<glyph unicode="x" horiz-adv-x="1378" d="M1257 0h-325l-244 416l-244 -416h-323l399 633l-360 581h272l256 -395l258 395h273l-381 -581l419 -633v0v0z" />
<glyph unicode="y" horiz-adv-x="1341" d="M332 -686q-63 0 -118.5 21t-98.5 59l-11 10l39 258l39 -39q8 -6 17.5 -10.5t26 -7.5t42.5 -4.5t68 -1.5q26 0 41 3t24 11q13 12 18 25.5t13 31.5v2q7 19 22.5 65t35.5 105.5t42.5 126t42.5 126t35.5 106t22.5 65.5l-488 948h273l330 -620l215 620h270l-14 -38 q0 -2 -11 -35t-29.5 -89t-43.5 -130.5t-53.5 -159.5t-59 -175.5t-60 -179t-57 -170t-50 -147.5t-38.5 -113.5t-22 -66.5q-17 -51 -31 -94.5t-27 -83.5q-21 -65 -37 -115t-31 -88t-29 -65.5t-30 -47.5q-27 -32 -53.5 -52t-58.5 -31t-72 -15t-94 -4z" />
<glyph unicode="z" horiz-adv-x="1415" d="M1286 0h-1153v260l688 750h-639v204h955v-213l-592 -716h641l100 -285v0v0z" />
<glyph unicode="{" horiz-adv-x="1264" d="M1026 -686q-28 8 -70.5 29t-89.5 51t-92.5 68t-79.5 81q-43 56 -70 103t-38 73q-5 14 -13 33q-17 40 -36.5 89.5t-36.5 111.5q-28 100 -51.5 206.5t-34.5 221.5q-2 11 -3 22t-1 23h-2q0 18 -8.5 35t-22 33.5t-30 30.5t-32.5 26q-18 13 -36 24t-32 18.5t-22.5 12t-9.5 4.5 l-61 27l61 29q19 7 50 24t61.5 40t54.5 50t29 56v6v2v2q5 57 13.5 113.5t20 114.5t26.5 118.5t34 126.5q12 42 33.5 94t47 104.5t52 101t49.5 85.5q24 36 54 68.5t63.5 59t70 45.5t74.5 28q8 2 21 3.5t26 2.5q15 1 31 2l-16 -43q-71 -189 -112.5 -332t-66.5 -246 q-23 -98 -43.5 -208t-29.5 -242q-4 -31 -15.5 -56.5t-28 -46.5t-36.5 -38.5t-41 -32.5q-27 -18 -49 -31q12 -8 26.5 -17t28.5 -20q110 -76 119 -162q7 -76 18 -149t23.5 -139.5t25.5 -125t25 -104.5q25 -100 77.5 -243.5t123.5 -323.5l14 -39h-43z" />
<glyph unicode="|" horiz-adv-x="854" d="M254 -43l31 1956h266l31 -1956h-328z" />
<glyph unicode="}" horiz-adv-x="1260" d="M190 -647q72 180 124 323.5t77 243.5q12 46 25 104.5t25.5 125t23 139.5t18.5 149q6 84 119 162q14 11 28.5 20t26.5 17q-22 13 -49 31q-108 77 -121 159v15q-9 132 -30 242t-43 208q-25 103 -66.5 246t-111.5 332l-17 43q16 -1 31 -2q13 -1 26 -2.5t21 -3.5 q37 -9 74 -28t71 -45.5t63.5 -59t53.5 -68.5q23 -37 50 -85.5t52.5 -101t46.5 -104.5t33 -94q19 -66 34.5 -126.5t27 -118.5t19.5 -114.5t14 -113.5v-10q4 -29 27.5 -56t54 -50t61.5 -40t49 -24l64 -29l-62 -27q-1 0 -9.5 -4.5t-23 -12t-32.5 -18.5t-37 -24 q-15 -12 -31.5 -26t-30 -30.5t-22 -33.5t-8.5 -35q0 -22 -5 -45q-11 -115 -34.5 -221.5t-51.5 -206.5q-18 -62 -37 -111.5t-36 -89.5q-6 -17 -13 -33q-12 -26 -38.5 -73t-69.5 -103q-34 -43 -79.5 -81t-92.5 -68t-89.5 -51t-70.5 -29h-45z" />
<glyph unicode="~" horiz-adv-x="1229" d="M1073 760l-334 -395l-262 249l-184 -211l-146 146l330 348l262 -244l195 244l139 -137v0z" />
<glyph unicode="&#xa1;" horiz-adv-x="1227" d="M616 1460q-47 0 -88.5 17.5t-72 48.5t-48.5 72t-18 88t18 88.5t48.5 72t72 48.5t88.5 18t88 -18t72 -48.5t48.5 -72t17.5 -88.5t-17.5 -88t-48.5 -72t-72 -48.5t-88 -17.5zM443 -47l42 1351h266l38 -1351h-346z" />
<glyph unicode="&#xa2;" horiz-adv-x="1382" d="M533 -332l-176 45l78 295q-47 23 -86 53t-70 68q-69 85 -105.5 202t-36.5 254q0 79 9 147.5t29 129.5q39 120 118 210q76 88 189 137q109 44 231 44h23.5t22.5 -1l75 289l143 -36l-68 -279q79 -25 143 -74q91 -73 133 -210l11 -38h-271l-8 18q-17 47 -37 70 q-5 6 -10.5 10t-11.5 9l-181 -745q6 -1 12 -1h12h17q66 0 105.5 5t50.5 11q16 8 22 15.5t8 26.5l3 26h307v-29q0 -39 -14 -80.5t-42 -83.5q-20 -32 -47.5 -61.5t-53.5 -49.5q-41 -31 -86.5 -48.5t-92.5 -26.5t-96 -11.5t-97 -2.5q-20 0 -40.5 1.5t-40.5 3.5zM705 1046 q-40 -2 -77.5 -15t-70 -36.5t-59 -56.5t-44.5 -74q-12 -27 -19 -48t-11 -44t-5 -52.5t-1 -72.5q0 -81 13.5 -145.5t42.5 -126.5l18 -36t21 -28z" />
<glyph unicode="&#xa3;" horiz-adv-x="1989" d="M1489 -43q-59 0 -127.5 28.5t-142.5 65.5q-41 20 -82 39t-81.5 34t-80 24.5t-76.5 9.5q-47 0 -81 -6.5t-61 -17.5t-48.5 -26t-42.5 -32q-29 -21 -61 -42t-77 -38.5t-108 -28t-152 -10.5h-43l19 47q5 14 17.5 45.5t28 75t34 95t36 106t33.5 109t27 102.5q25 102 39 194.5 t22 157.5h-276v254h284q1 64 2 118t1.5 93t1 61t0.5 23q0 97 47.5 186t140.5 158q85 63 188 97t209 34t208.5 -34t187.5 -99q92 -69 141 -157.5t49 -184.5v-29h-322v29q0 25 -9 46.5t-21.5 38.5t-27 30t-25.5 22q-39 26 -86.5 41.5t-94.5 15.5q-46 0 -94 -15.5t-88 -43.5 q-12 -9 -26 -21.5t-27 -29.5t-21.5 -38t-9.5 -46q1 -5 2.5 -28.5t3.5 -62.5t4 -91t4 -113h461v-254h-461q-2 -44 -4.5 -92t-6 -94.5t-8 -89t-9.5 -76.5q-2 -14 -3.5 -27.5t-4.5 -26.5q34 15 69 23.5t64 13.5q33 5 65 6q45 0 86 -10.5t79 -27t73 -36.5t67 -40 q53 -32 101.5 -58t93.5 -26h2q33 0 63.5 13.5t57 33.5t48 43.5t37 43.5t24 33.5t8.5 14.5l55 -16q-1 -7 -3 -31.5t-5.5 -58.5t-8 -74t-9.5 -77.5t-11 -69t-12 -48.5q-11 -31 -32 -62.5t-51.5 -57t-71 -42t-91.5 -16.5z" />
<glyph unicode="&#xa5;" horiz-adv-x="1947" d="M768 0l14 502h-520v298h528l4 141h-532v299h344l-468 674h340l496 -649l495 649h339l-467 -674h343v-299h-531l3 -141h528v-298h-519l14 -502h-411z" />
<glyph unicode="&#xa7;" horiz-adv-x="1394" d="M715 -225q-268 0 -393 143q-27 31 -46.5 59.5t-33 60t-22.5 68.5t-14 84l-1 36h319l-1 -31q-1 -35 6 -50t16 -24q6 -5 16 -10.5t29.5 -10t50.5 -7.5t78 -3q38 0 64 1.5t46 6t35.5 12t32.5 19.5q30 21 41.5 41t10.5 57q-1 64 -110 105q-15 6 -50 16.5t-72 21.5t-65.5 19 t-31.5 9q-63 17 -123 42t-100 51q-69 43 -105 106t-33 137q1 47 14 87.5t35.5 73t53 54.5t67.5 31v1q-38 32 -57 74t-22 101q-2 37 2.5 68t16 58t31.5 51.5t50 49.5q54 46 120.5 66.5t159.5 20.5q58 0 105.5 -5.5t86.5 -17.5t70 -30.5t57 -44.5q38 -38 58 -84.5t20 -95.5 v-30h-229l1 31q0 11 -3.5 21.5t-15.5 24.5l-1 1q-36 44 -146 44q-76 0 -125 -34q-10 -7 -17 -12.5t-11 -13t-6 -17.5t-2 -26q0 -20 9.5 -34t38.5 -34q19 -14 41 -22.5t57 -16.5l105 -26q44 -11 80 -21.5t65 -22t53.5 -24.5t45.5 -29q26 -19 50 -47t39.5 -63t18.5 -77 t-12 -88q-24 -75 -93 -122q-18 -12 -38 -22q34 -13 60 -26.5t47 -27.5q124 -91 115 -286q-2 -43 -10 -79.5t-24 -70t-39.5 -64t-55.5 -61.5q-33 -32 -77 -58t-97 -44q-54 -20 -114 -30t-122 -10zM694 625q18 -3 34 -4t30 -1q35 0 58 8t43 22q12 9 20.5 16t13.5 15.5t7 18.5 t2 24q-1 35 -18.5 61t-49.5 37q-12 5 -39 14.5t-57 18.5t-56 16t-36 7q-7 2 -13 2h-12q-22 0 -37.5 -4.5t-30.5 -10.5l-3 -2q-27 -10 -42.5 -37t-15.5 -65q0 -32 15 -52.5t47 -35.5q67 -31 140 -48z" />
<glyph unicode="&#xa8;" horiz-adv-x="1448" d="M1151 1638q0 -36 -13.5 -67.5t-37.5 -55.5t-55.5 -37.5t-67.5 -13.5t-67.5 13.5t-55.5 37.5t-37.5 55.5t-13.5 67.5t13.5 68t37.5 55.5t55.5 37t67.5 13.5t67.5 -13.5t55.5 -37t37.5 -55.5t13.5 -68zM647 1638q0 -36 -14 -67.5t-38 -55.5t-55.5 -37.5t-66.5 -13.5 q-36 0 -68 13.5t-56 37.5t-38 55.5t-14 67.5t14 68t38 55.5t56 37t68 13.5q35 0 66.5 -13.5t55.5 -37t38 -55.5t14 -68z" />
<glyph unicode="&#xa9;" horiz-adv-x="1706" d="M848 -43q-133 0 -250.5 49t-210.5 141q-93 93 -141.5 210.5t-48.5 250.5q0 131 48.5 247t141.5 210q93 93 210.5 140.5t250.5 47.5q128 0 245 -47.5t210 -140.5q92 -94 141 -210t49 -247q0 -133 -49 -250.5t-141 -210.5q-93 -92 -210 -141t-245 -49zM848 1069 q-97 0 -182 -36t-148.5 -98.5t-100 -146.5t-36.5 -180q0 -97 36.5 -182t100 -148.5t148.5 -100t182 -36.5q94 0 178 36.5t147 100t99.5 148.5t36.5 182q0 96 -36.5 180t-99.5 146.5t-147 98.5t-178 36zM829 303q-61 0 -111 22.5t-85 65.5q-35 44 -54.5 100t-19.5 119 q0 76 19 133.5t57 104.5q37 43 90.5 64.5t116.5 21.5q51 0 93.5 -12t74.5 -37q28 -20 43.5 -48.5t21.5 -60.5l8 -41h-157q-3 26 -7.5 34.5t-9.5 14.5q-8 7 -21.5 13t-45.5 6t-60.5 -20t-42.5 -54q-6 -12 -10 -21t-7 -19t-4 -22t-1 -30q0 -35 9.5 -68t18.5 -49l3 -4 q4 -8 9.5 -16.5t15.5 -15.5t25.5 -12t39.5 -5q9 0 20.5 0.5t22 2.5t18.5 7.5t10 14.5l4 28h179v-31q0 -46 -20 -83.5t-62 -63.5q-34 -25 -79 -32t-102 -7z" />
<glyph unicode="&#xaa;" horiz-adv-x="981" d="M400 1186q-48 0 -88 15t-72 44q-32 30 -47 68q-9 19 -12.5 40t-2.5 44q2 32 7.5 56.5t14.5 43.5q10 20 22.5 33t26.5 26q34 29 70 45t78 22q29 4 64 4.5t66 0.5h30h22q18 0 24.5 3t8.5 5q3 2 3.5 8.5t0.5 13.5l1 37q0 18 -6 39t-25 33q-38 24 -104 24q-42 0 -63.5 -5 t-31.5 -10q-15 -9 -21 -18t-8 -25l-1 -15h-143v17q0 12 2.5 28.5t10.5 34.5t22.5 36t38.5 33q37 23 86.5 35t106.5 12q113 0 196 -49q79 -50 79 -151l1 -372v-2l71 -60l1 -66l-12 -4q-2 -1 -4 -1.5t-4 -1.5q-11 -3 -20 -5t-20 -3q-20 -1 -42 0q-67 4 -91 59q-2 5 -3 9t-3 9 q-15 -15 -36.5 -34.5t-41.5 -30.5q-34 -17 -73 -21t-79 -4zM456 1517q-29 -2 -52 -10t-34 -19q-21 -21 -26 -35.5t-6 -40.5q0 -10 3 -18.5t13 -16.5q7 -6 18 -9.5t23.5 -5t24.5 -2t22 -0.5h5q27 0 57 5t46 11t27.5 11.5t18.5 13.5t10.5 21t4.5 34l1 62h-61h-42 q-17 0 -32.5 -0.5t-20.5 -0.5z" />
<glyph unicode="&#xab;" horiz-adv-x="2011" d="M725 0l-371 637l422 577h277l-408 -577l406 -637h-326zM1300 0l-370 637l422 577h276l-407 -577l405 -637h-326z" />
<glyph unicode="&#xac;" horiz-adv-x="1707" d="M1151 333l12 332h-941v219h1166l21 -551h-258z" />
<glyph unicode="&#xae;" horiz-adv-x="1706" d="M831 -43q-128 0 -245.5 49.5t-210.5 140.5q-91 93 -141 211t-50 246q0 130 50 248t141 211q93 91 210.5 140.5t245.5 49.5q132 0 250 -49.5t211 -140.5q91 -93 141 -211t50 -248q0 -128 -50 -246t-141 -211q-93 -91 -211 -140.5t-250 -49.5zM831 1069q-94 0 -177.5 -36.5 t-146.5 -100t-99.5 -148t-36.5 -180.5q0 -95 36.5 -179t99.5 -147t146.5 -100t177.5 -37q96 0 180.5 37t148 100t100 147t36.5 179q0 96 -36.5 180.5t-100 148t-148 100t-180.5 36.5zM1116 391l-125 176q42 26 69 68.5t27 93.5q0 41 -16 77t-43 62.5t-63 42t-76 15.5h-264 l-15 -615h166l-4 234h47q9 0 14.5 -7t10.5 -18l121 -209h153zM891 684h-127l-2 107h129q26 0 38.5 -15t12.5 -37q0 -23 -14.5 -39t-36.5 -16z" />
<glyph unicode="&#xb0;" horiz-adv-x="905" d="M453 1286q51 0 96 -19.5t78.5 -53t53 -78.5t19.5 -97q0 -51 -19.5 -96t-53 -78.5t-78.5 -53t-96 -19.5q-52 0 -97 19.5t-78.5 53t-53 78.5t-19.5 96q0 52 19.5 97t53 78.5t78.5 53t97 19.5zM453 920q24 0 45.5 9.5t37.5 25.5t25.5 37.5t9.5 45.5q0 25 -9.5 46.5 t-25.5 37.5t-37.5 25.5t-45.5 9.5q-25 0 -46.5 -9.5t-37.5 -25.5t-25.5 -37.5t-9.5 -46.5q0 -24 9.5 -45.5t25.5 -37.5t37.5 -25.5t46.5 -9.5z" />
<glyph unicode="&#xb1;" d="M506 408v299h-299v266h299v299h266v-299h299v-266h-299v-299h-266zM207 0v272h864v-272h-864z" />
<glyph unicode="&#xb2;" horiz-adv-x="854" d="M177.652 1217l0.921875 14.2949v6.91699q0 3.22754 0.920898 6.91602q2.30371 39.1953 6.2207 73.3184q3.91602 34.123 18.6602 64.5576q8.29395 16.5996 21.4248 34.1221q13.1318 17.5225 30.4102 34.3535t38.0127 32.7402q20.7334 15.9082 43.7715 29.2812 l88.0039 50.2617q28.5664 17.0615 48.1484 31.126q19.582 14.0635 31.1016 25.1309q17.0479 17.0615 21.6553 34.123t4.60742 38.7344q0 14.2939 -0.460938 24.4385q-0.460938 10.1455 -2.30371 17.9844t-5.98926 14.2949q-4.14746 6.45508 -11.0586 13.3721 q-15.666 15.6777 -38.2422 24.209q-22.5771 8.53027 -47.458 8.53027q-18.4307 0 -32.0225 -2.53613t-23.498 -6.45508q-9.90625 -3.91992 -16.3574 -8.76172q-6.4502 -4.8418 -11.0576 -9.45312q-6.45117 -6.45508 -12.4404 -19.1367q-5.99023 -12.6807 -8.29395 -26.9746 l-1.84277 -11.5283h-111.503l2.76465 15.2168q0.460938 1.84473 2.07324 11.0674q1.61328 9.22168 3.68652 20.2891q2.07324 11.0664 4.60742 21.9033q2.53418 10.8359 4.83789 16.3691q20.7344 49.3398 64.9668 74.7021q25.8018 14.2949 59.2061 21.4414 q33.4053 7.14746 76.7158 7.14746q118.414 0 173.705 -65.4785q27.1836 -31.8174 41.0068 -67.5547q13.8223 -35.7363 13.8223 -75.8545q0 -43.3447 -14.7441 -79.543t-44.6934 -63.8652q-11.9795 -11.9893 -23.0371 -21.4424q-11.0586 -9.45215 -21.6553 -18.2139 q-10.5977 -8.76172 -21.1953 -16.8311q-10.5967 -8.06934 -22.1162 -16.3701q-4.14648 -3.68848 -8.98438 -7.14648q-4.83789 -3.45898 -9.90625 -7.14746q-0.460938 -0.461914 -6.4502 -4.8418q-5.99023 -4.38086 -15.4355 -11.5283t-20.9648 -15.4473 q-11.5186 -8.30078 -22.1162 -16.3701q-10.5967 -8.06934 -19.3516 -14.9863q-8.75391 -6.91699 -12.9014 -10.1445q-9.21484 -7.83887 -13.8223 -14.7559t-6.91113 -12.9111h281.061v-141.564h-475.499z" />
<glyph unicode="&#xb3;" horiz-adv-x="770" d="M367.609 1215.59q-29.7383 0 -55.3594 3.87891q-25.6211 3.87988 -47.582 13.0068q-44.3789 16.8848 -74.1182 50.6553q-11.8955 14.1475 -20.1309 28.0664t-13.9541 28.9795q-5.71875 15.0596 -8.69336 32.4014q-2.97363 17.3418 -4.3457 38.334v14.1475h131.308 l3.66016 -7.30176q1.83008 -2.28223 4.11816 -5.93262q2.28711 -3.19531 5.26074 -8.21484t7.5498 -11.4092q1.83008 -2.73828 6.17578 -5.47656q4.34668 -2.7373 13.2686 -5.01953q8.9209 -2.28223 22.876 -3.65137q13.9541 -1.36914 34.543 -1.36914h8.69238 q11.8955 0 24.249 0.228516q12.3525 0.228516 23.333 1.59766t19.9023 4.33496q8.9209 2.9668 13.9541 8.44238q7.77734 8.21484 12.124 15.5166t6.63379 15.5166q2.28809 8.21387 2.97461 18.2539q0.685547 10.04 0.685547 23.7305q0 15.5166 -1.60059 24.8721 q-1.60156 9.35547 -5.0332 15.2881q-3.43066 5.93262 -8.9209 10.2686q-5.49023 4.33496 -13.7266 9.35449q-9.15039 5.93359 -18.5293 10.04q-9.37891 4.10742 -20.5879 6.61719q-11.209 2.51074 -24.9355 3.65137q-13.7246 1.14062 -31.5684 1.14062h-15.5557 q-4.5752 0 -8.69238 -0.456055q-4.11816 -0.456055 -8.23633 -0.456055l-14.1826 -0.913086v102.225l15.0986 -2.28223q5.49023 0 10.9805 -0.456055t9.60742 -0.456055q4.11719 -0.913086 8.46387 -0.913086h9.37988q21.0449 0 38.4316 3.42285 q17.3848 3.42285 30.6533 9.81152q10.9805 5.47656 19.2158 11.4092t13.9541 13.4629q5.71973 7.5293 8.46387 18.0254q2.74609 10.4971 2.74609 25.1006q0 26.9248 -5.49023 41.7568q-5.49023 14.8311 -17.3867 23.959q-7.77734 5.47559 -18.0713 9.81152 q-10.2939 4.33496 -21.5039 7.07324q-11.209 2.73828 -23.1045 4.10742t-22.418 1.36914q-26.9941 0 -46.21 -8.89941q-19.2158 -8.89844 -29.7393 -25.7842q-2.28711 -4.10742 -3.66016 -9.12695q-1.37207 -5.01953 -2.05859 -9.81152 q-0.685547 -4.79199 -0.685547 -8.89941v-5.93262l0.914062 -14.6035h-121.699q-0.916016 7.30176 -0.458008 10.9531q0.458008 3.65039 0.458008 11.4082q0 2.73828 0.457031 7.75879q0.457031 5.01953 1.37305 10.9521q4.11719 31.4893 11.8945 45.6357 q12.8105 24.1875 31.5693 42.2139t42.5498 30.8037q23.333 12.7783 51.6992 18.9395t60.8496 6.16113q103.857 0 161.963 -47.4619q29.7383 -24.1865 44.8359 -58.6416q15.0986 -34.4561 15.0986 -79.6357q0 -17.3408 -2.5166 -30.8037q-2.51562 -13.4629 -7.0918 -24.6436 q-4.57422 -11.1807 -11.209 -20.7646q-6.63379 -9.58301 -14.8691 -19.167q-6.40527 -7.75781 -13.2676 -14.1465q-6.86328 -6.38965 -15.5566 -12.3223q36.1445 -16.8848 58.1055 -48.374q16.0137 -23.2744 23.5625 -47.0049t7.54883 -53.8506 q0 -26.9258 -3.43164 -51.5684q-3.43164 -24.6436 -9.83594 -46.5488q-16.0137 -52.9385 -47.125 -82.6016q-32.9414 -31.4883 -81.4385 -45.6357q-23.333 -7.75781 -49.8701 -10.9531q-26.5352 -3.19434 -56.7324 -3.19434z" />
<glyph unicode="&#xb4;" horiz-adv-x="1706" d="M940 1913l190 -191l-393 -366l-164 166l367 391v0z" />
<glyph unicode="&#xb5;" horiz-adv-x="1484" d="M200 -686l23 1107l6 793h261l6 -788q2 -48 11.5 -80.5t17.5 -42.5q12 -17 28 -27t37 -15t48.5 -7t63.5 -2q44 0 77 13.5t59 36.5t46.5 53.5t39.5 65.5q9 18 16 40.5t12 52t8 68t5 88.5l6 544h260q0 -7 1 -45t2.5 -97t3.5 -133t4 -152t4 -155t4 -142.5t3.5 -113.5t2.5 -68 q1 -26 3.5 -71t5.5 -98.5t6 -109.5t6 -103.5t4.5 -81.5t2.5 -43h-300l9 312q-14 -21 -30.5 -40.5t-31.5 -32.5q-63 -53 -130.5 -77t-148.5 -24q-79 0 -146 18l13 -643h-319z" />
<glyph unicode="&#xb6;" horiz-adv-x="1486" d="M730 -225v1203q0 186 45 369l4 15q18 54 59 92h-42q-51 -2 -92.5 -31.5t-58.5 -77.5l-3 -11q-21 -88 -30.5 -177t-9.5 -179q0 -47 1.5 -122.5t4 -166.5t5 -192t6 -200t6.5 -190t5.5 -162.5t4 -117t1.5 -52.5h-316q0 8 3 60.5t7.5 134.5t10 184t11 209.5t11 211.5t9.5 189 t6.5 142.5t2.5 71.5v11.5t1 12.5q-41 25 -74 59.5t-56 75.5t-35 87t-12 94q0 74 27.5 141t80.5 120q49 50 111.5 79t132.5 32h724v-236h-55q-53 -1 -95.5 -32.5t-58.5 -81.5l-4 -17q-38 -173 -38 -345q0 -33 3 -92t8.5 -133.5t12 -159t13.5 -167.5t13.5 -159.5t11.5 -135 t8.5 -94.5t3.5 -37v-1v-1q0 -46 -17.5 -86.5t-48 -71t-71 -48t-86.5 -17.5h-151z" />
<glyph unicode="&#xb7;" horiz-adv-x="799" d="M598 936q0 -42 -16 -79t-44 -64.5t-64.5 -43.5t-78.5 -16t-79.5 16t-65 43.5t-44 64.5t-16.5 79t16.5 79t44 64.5t65 43.5t79.5 16t78.5 -16t64.5 -43.5t44 -64.5t16 -79z" />
<glyph unicode="&#xb8;" horiz-adv-x="1706" d="M807 0q32 -12 59.5 -32.5t47.5 -48t31 -60.5t11 -70q0 -46 -17.5 -86.5t-48 -71t-71.5 -48t-88 -17.5h-153v149h153q31 0 52.5 21.5t21.5 52.5t-21.5 52.5t-52.5 21.5h-115v137h191z" />
<glyph unicode="&#xb9;" horiz-adv-x="625" d="M337.867 1214l27.8008 508.208h-156.436v96.1475l12.7217 1.89453q42.8779 3.78906 75.3906 11.1309q32.5127 7.34082 49.9463 16.8135h0.942383q8.48145 4.73633 14.8428 8.52539t11.0723 9.23535q4.71289 5.44727 8.24609 13.9727q3.53418 8.52539 7.30371 22.7344 l2.82715 10.8936h90.9395l27.8008 -699.556h-173.398z" />
<glyph unicode="&#xba;" horiz-adv-x="1466" d="M680 630q-123 0 -193 83q-19 21 -33 45t-25 50q-22 57 -22 123q0 70 23 131q21 57 61 103q73 86 199 88h5q125 -2 198 -88q20 -23 35 -48.5t26 -54.5q23 -61 23 -131q0 -62 -22 -123q-20 -53 -58 -95q-71 -83 -192 -83h-25zM691 1153q-35 0 -61.5 -15t-48.5 -46 q-23 -32 -31.5 -64t-8.5 -73q0 -44 8 -73.5t25 -57.5q30 -46 113 -46h6q43 0 69.5 11t42.5 35q18 26 27.5 55t9.5 74q0 48 -9.5 79.5t-28.5 60.5q-21 30 -47.5 45t-62.5 15h-3z" />
<glyph unicode="&#xbb;" horiz-adv-x="2011" d="M961 0l405 637l-408 577h277l422 -577l-371 -637h-325zM385 0l406 637l-408 577h274l424 -577l-370 -637h-326z" />
<glyph unicode="&#xbc;" horiz-adv-x="2048" d="M363 639l35 644h-198v122l16 2q54 5 95 14t64 21q12 6 20 11t14 12t10.5 17.5t9.5 28.5l4 14h115l36 -886h-221zM1454 0l16 145h-350v175l398 565h116l9 -564h116v-176h-105l16 -145h-216zM1481 321l25 362l-237 -362h212zM568 0l536 1777h293l-535 -1777h-294z" />
<glyph unicode="&#xbd;" horiz-adv-x="2048" d="M363 640l35 644h-198v122l16 2q54 5 95.5 14t64.5 21l1 1q11 6 18.5 10.5t13.5 11.5t11 17.5t10 28.5l3 14h116l35 -886h-221zM1215 0l1 18v9t1 9q2 51 7 95.5t25 84.5q22 44 68.5 89t106.5 80l114 65q75 44 102 73q23 23 29.5 45.5t6.5 49.5q0 19 -0.5 32.5t-3.5 23.5 t-8.5 18.5t-14.5 17.5q-20 20 -49.5 31.5t-61.5 11.5q-49 0 -72 -12t-36 -24q-8 -8 -16.5 -24.5t-10.5 -36.5l-2 -14h-145l3 20q0 3 2.5 15t5.5 26l6 28t6 22q25 62 85 97q33 18 76 27.5t100 9.5q153 0 226 -85q72 -86 72 -188q0 -113 -78 -186q-31 -30 -58 -51.5t-56 -42.5 q-6 -5 -12 -9.5t-12 -9.5l-17.5 -12.5t-39 -29t-42.5 -32t-28 -22.5q-13 -10 -19 -19t-8 -16h366v-184h-619zM569 0l535 1777h293l-534 -1777h-294z" />
<glyph unicode="&#xbe;" horiz-adv-x="2048" d="M494 622q-38 0 -72 6t-63 17q-59 23 -97 68q-32 36 -45.5 74t-15.5 93l-1 19h172q4 -7 7 -18t21 -25q3 -3 9 -6.5t17 -6.5t29 -5.5t45 -2.5h10q32 0 63 2.5t45 17.5q19 21 23.5 40.5t4.5 54.5q0 20 -1.5 32.5t-6 20.5t-11.5 13.5t-19 12.5q-23 17 -50.5 23t-73.5 6h-21 q-5 -1 -10.5 -1h-11.5l-19 -2v134l20 -2q8 -1 14.5 -1t11.5 -1h24q57 0 91 17q29 14 43 32.5t14 56.5q0 35 -6 54.5t-22 31.5q-20 16 -52 22.5t-60 6.5q-71 0 -99 -45q-8 -11 -9 -25t0 -19l1 -20h-152l-5 10q-2 3 -2.5 6.5t0.5 12.5q0 5 0.5 11t1.5 14q5 42 15 61 q17 31 41 55t56 40q61 34 149 34q136 0 212 -62q78 -63 78 -184q0 -45 -12.5 -72.5t-33.5 -52.5q-19 -21 -38 -33q23 -12 42 -28t33 -37q22 -30 31.5 -61.5t9.5 -71.5q0 -69 -17 -128q-19 -67 -61 -109q-21 -20 -48 -35t-60 -25q-30 -9 -65 -14.5t-74 -5.5zM1628 0l18 145 h-350v175l396 565h117l8 -564h117v-176h-105l15 -145h-216zM1655 321l26 362l-237 -362h211zM745 0l534 1777h294l-534 -1777h-294z" />
<glyph unicode="&#xbf;" horiz-adv-x="1378" d="M715 -43q-64 0 -125 8t-115 23.5t-99.5 37.5t-78.5 50q-37 31 -65.5 66t-47.5 77q-43 84 -43 178q0 50 10 115.5t31 124.5q14 36 31.5 68.5t41.5 64t54.5 62.5t69.5 63q35 31 56 46t36 26q9 6 17.5 12.5t19.5 14.5q4 4 10.5 13.5t14 30.5t14.5 56.5t12 91.5q3 32 4 62 t1 52.5t-0.5 36.5t-0.5 15v30h322v-28v-16.5v-38t-0.5 -54t-1.5 -63.5q-3 -64 -8.5 -105.5t-12 -68t-13.5 -40t-13 -20.5q-22 -24 -40 -43.5t-37.5 -38.5t-43.5 -40.5t-58 -49.5v-2h-2q-27 -21 -53 -44q-23 -20 -47.5 -45t-42.5 -52q-12 -18 -18 -38.5t-9 -41.5t-3.5 -41 t-0.5 -35q0 -46 13 -80t41 -63q27 -31 70.5 -43t115.5 -12q47 0 81 3.5t59 12t42.5 22.5t32.5 35q6 11 13 38t9 83v10v25h299v-29q0 -29 -5.5 -74.5t-20.5 -101.5q-7 -24 -17 -50.5t-23 -53.5t-29.5 -52t-37.5 -45q-74 -71 -179.5 -108t-229.5 -37zM725 1573q-35 0 -66 13.5 t-54 36.5t-36.5 54t-13.5 66t13.5 66.5t36.5 55t54 37t66 13.5t66.5 -13.5t55 -37t37 -55t13.5 -66.5t-13.5 -66t-37 -54t-55 -36.5t-66.5 -13.5z" />
<glyph unicode="&#xc0;" horiz-adv-x="2066" d="M1190 1915l723 -1915h-418l-149 549h-621l-152 -549h-421l729 1913h309v2zM799 842h467l-232 731zM828 2526l408 -432l-164 -164l-432 406l188 190v0z" />
<glyph unicode="&#xc1;" horiz-adv-x="2066" d="M1190 1915l723 -1915h-418l-149 549h-621l-152 -549h-421l729 1913h309v2zM799 842h467l-232 731zM1230 2488l190 -191l-393 -366l-164 166l367 391v0z" />
<glyph unicode="&#xc2;" horiz-adv-x="2066" d="M1190 1915l723 -1915h-418l-149 549h-621l-152 -549h-421l729 1913h309v2zM799 842h467l-232 731zM1363 2064l-133 -133l-195 198l-196 -198l-133 133l329 348l328 -348v0z" />
<glyph unicode="&#xc3;" horiz-adv-x="2066" d="M1190 1915l723 -1915h-418l-149 549h-621l-152 -549h-421l729 1913h309v2zM799 842h467l-232 731zM1493 2327l-334 -396l-262 250l-184 -211l-146 146l330 348l262 -244l195 244l139 -137v0z" />
<glyph unicode="&#xc4;" horiz-adv-x="2066" d="M1190 1915l723 -1915h-418l-149 549h-621l-152 -549h-421l729 1913h309v2zM799 842h467l-232 731zM1461 2105q0 -36 -13.5 -67.5t-37.5 -55.5t-55.5 -37.5t-67.5 -13.5t-67.5 13.5t-55.5 37.5t-37.5 55.5t-13.5 67.5t13.5 68t37.5 55.5t55.5 37t67.5 13.5t67.5 -13.5 t55.5 -37t37.5 -55.5t13.5 -68zM957 2105q0 -36 -14 -67.5t-38 -55.5t-55.5 -37.5t-66.5 -13.5q-36 0 -68 13.5t-56 37.5t-38 55.5t-14 67.5t14 68t38 55.5t56 37t68 13.5q35 0 66.5 -13.5t55.5 -37t38 -55.5t14 -68z" />
<glyph unicode="&#xc5;" horiz-adv-x="2066" d="M1190 1915l723 -1915h-418l-149 549h-621l-152 -549h-421l729 1913h309v2zM799 842h467l-232 731zM1033 1927q-53 0 -99 20t-80 54.5t-54 80.5t-20 99q0 52 20 98t54 80.5t80 54.5t99 20q52 0 98.5 -20t80.5 -54.5t54 -80.5t20 -98q0 -53 -20 -99t-54 -80.5t-80.5 -54.5 t-98.5 -20zM1033 2298q-24 0 -45.5 -9.5t-37.5 -25t-25 -37t-9 -45.5t9 -45.5t25 -37.5t37.5 -25t45.5 -9t45.5 9t37.5 25t25 37.5t9 45.5t-9 45.5t-25 37t-37.5 25t-45.5 9.5z" />
<glyph unicode="&#xc6;" horiz-adv-x="2730" d="M1325 0l16 549h-489l-317 -549h-424l1140 1913h1286v-275h-862l13 -477h679v-317h-669l12 -498h827v-346h-1212zM977 840h373l18 708l-391 -708v0v0z" />
<glyph unicode="&#xc7;" horiz-adv-x="2130" d="M887 -672v191h209q24 0 45.5 9.5t37 25t24.5 36.5t9 45t-9 45.5t-24.5 37t-37 25t-45.5 9.5h-152v225q-156 17 -283.5 83.5t-218.5 179.5q-54 68 -96.5 145.5t-73.5 167.5q-15 45 -26 88.5t-18.5 87t-11 88.5t-3.5 94q0 122 14 227t43 199q31 91 75 171t106 149 q117 136 288 207q162 67 351 67q157 0 286 -38t228 -115q75 -57 120 -133q26 -42 45 -89t31 -98l8 -37h-370l-2 27q-5 34 -24.5 62.5t-35.5 43.5q-47 51 -113.5 73t-170.5 22q-68 0 -133 -21.5t-122 -60.5t-103 -93.5t-75 -121.5q-19 -44 -33 -79.5t-23 -74t-13.5 -85.5 t-5.5 -114q0 -65 10.5 -125.5t26.5 -113.5t34.5 -96t34.5 -72q3 -5 5.5 -9.5t4.5 -11.5q13 -25 36 -60.5t64.5 -67.5t106 -55t162.5 -23q46 0 90 4t80.5 10.5t63 14.5t38.5 16q25 17 40 47t20 67l2 27h446v-31q0 -155 -82 -276q-57 -87 -155 -152q-96 -67 -238 -94 q-52 -11 -112 -17t-136 -8v-32q58 -6 109 -32t88 -67t58.5 -94t21.5 -113q0 -63 -24 -118.5t-65.5 -97.5t-97.5 -66.5t-120 -24.5h-209z" />
<glyph unicode="&#xc8;" horiz-adv-x="1630" d="M195 0l53 1913h1159v-281h-862l12 -471h680v-315h-670l13 -498h827v-348h-1212zM621 2527l408 -432l-164 -164l-432 406l188 190v0z" />
<glyph unicode="&#xc9;" horiz-adv-x="1630" d="M195 0l53 1913h1159v-281h-862l12 -471h680v-315h-670l13 -498h827v-348h-1212zM1008 2488l190 -191l-393 -366l-164 166l367 391v0z" />
<glyph unicode="&#xca;" horiz-adv-x="1630" d="M195 0l53 1913h1159v-281h-862l12 -471h680v-315h-670l13 -498h827v-348h-1212zM1143 2064l-133 -133l-195 198l-196 -198l-133 133l329 348l328 -348v0z" />
<glyph unicode="&#xcb;" horiz-adv-x="1630" d="M195 0l53 1913h1159v-281h-862l12 -471h680v-315h-670l13 -498h827v-348h-1212zM1242 2105q0 -36 -13.5 -67.5t-37.5 -55.5t-55.5 -37.5t-67.5 -13.5t-67.5 13.5t-55.5 37.5t-37.5 55.5t-13.5 67.5t13.5 68t37.5 55.5t55.5 37t67.5 13.5t67.5 -13.5t55.5 -37t37.5 -55.5 t13.5 -68zM738 2105q0 -36 -14 -67.5t-38 -55.5t-55.5 -37.5t-66.5 -13.5q-36 0 -68 13.5t-56 37.5t-38 55.5t-14 67.5t14 68t38 55.5t56 37t68 13.5q35 0 66.5 -13.5t55.5 -37t38 -55.5t14 -68z" />
<glyph unicode="&#xcc;" horiz-adv-x="795" d="M199 0l53 1913h289l53 -1913h-395zM213 2527l408 -432l-164 -164l-432 406l188 190v0z" />
<glyph unicode="&#xcd;" horiz-adv-x="795" d="M199 0l53 1913h289l53 -1913h-395zM578 2488l190 -191l-393 -366l-164 166l367 391v0z" />
<glyph unicode="&#xce;" horiz-adv-x="795" d="M199 0l53 1913h289l53 -1913h-395zM727 2064l-133 -133l-195 198l-196 -198l-133 133l329 348l328 -348v0z" />
<glyph unicode="&#xcf;" horiz-adv-x="795" d="M199 0l53 1913h289l53 -1913h-395zM819 2105q0 -36 -13.5 -67.5t-37.5 -55.5t-55.5 -37.5t-67.5 -13.5t-67.5 13.5t-55.5 37.5t-37.5 55.5t-13.5 67.5t13.5 68t37.5 55.5t55.5 37t67.5 13.5t67.5 -13.5t55.5 -37t37.5 -55.5t13.5 -68zM315 2105q0 -36 -14 -67.5 t-38 -55.5t-55.5 -37.5t-66.5 -13.5q-36 0 -68 13.5t-56 37.5t-38 55.5t-14 67.5t14 68t38 55.5t56 37t68 13.5q35 0 66.5 -13.5t55.5 -37t38 -55.5t14 -68z" />
<glyph unicode="&#xd0;" horiz-adv-x="2098" d="M352 918h-262v204h267l22 791h652q122 0 235.5 -34t212 -96.5t179.5 -150t139 -193.5t89.5 -228t31.5 -254q0 -198 -53.5 -370.5t-154.5 -302.5q-104 -134 -248 -207q-76 -38 -158.5 -57t-173.5 -20h-804zM711 347h326q118 0 217.5 46.5t172 129t113 196t40.5 247.5 q0 90 -21 174.5t-59.5 158.5t-92 135t-118.5 105t-138.5 68t-152.5 24h-323l14 -509h463v-204h-457z" />
<glyph unicode="&#xd1;" horiz-adv-x="2013" d="M1380 0l-798 1319l32 -1319h-415l57 1913h301l879 -1317l30 1085l170 232h125l54 -1913h-435zM1543 2327l-334 -396l-262 250l-184 -211l-146 146l330 348l262 -244l195 244l139 -137v0z" />
<glyph unicode="&#xd2;" horiz-adv-x="2128" d="M1024 -25q-93 0 -174.5 14.5t-153.5 45.5q-142 61 -252 186q-114 134 -176 291q-16 42 -29 91t-22 102t-13.5 108.5t-4.5 110.5q0 57 5 116t14.5 115.5t22.5 108.5t29 96q32 87 79.5 164.5t107.5 148.5q110 129 262 197q72 31 157.5 45t182.5 16h6q97 -2 182.5 -16 t157.5 -45q151 -68 262 -197q60 -71 107 -148.5t79 -164.5q16 -44 29.5 -96t23 -108.5t14.5 -115.5t5 -116q0 -55 -5 -110.5t-14 -108.5t-22 -102t-29 -91q-60 -157 -176 -291q-54 -62 -116.5 -108.5t-135.5 -77.5q-71 -31 -153 -45.5t-176 -14.5h-74zM1055 1649 q-56 0 -108.5 -12.5t-100 -36t-88.5 -57.5t-72 -77q-68 -91 -102.5 -206.5t-34.5 -249.5q0 -150 27.5 -265.5t82.5 -203.5q32 -53 71 -87t87 -53q48 -20 104.5 -28t129.5 -8h22q72 0 129 8t105 28q94 37 157 140q56 88 83.5 203.5t27.5 265.5q0 134 -34.5 249.5 t-102.5 206.5q-32 43 -72.5 77t-88 57.5t-100.5 36t-108 12.5h-14zM817 2529l408 -432l-164 -164l-432 406l188 190v0z" />
<glyph unicode="&#xd3;" horiz-adv-x="2128" d="M1024 -25q-93 0 -174.5 14.5t-153.5 45.5q-142 61 -252 186q-114 134 -176 291q-16 42 -29 91t-22 102t-13.5 108.5t-4.5 110.5q0 57 5 116t14.5 115.5t22.5 108.5t29 96q32 87 79.5 164.5t107.5 148.5q110 129 262 197q72 31 157.5 45t182.5 16h6q97 -2 182.5 -16 t157.5 -45q151 -68 262 -197q60 -71 107 -148.5t79 -164.5q16 -44 29.5 -96t23 -108.5t14.5 -115.5t5 -116q0 -55 -5 -110.5t-14 -108.5t-22 -102t-29 -91q-60 -157 -176 -291q-54 -62 -116.5 -108.5t-135.5 -77.5q-71 -31 -153 -45.5t-176 -14.5h-74zM1055 1649 q-56 0 -108.5 -12.5t-100 -36t-88.5 -57.5t-72 -77q-68 -91 -102.5 -206.5t-34.5 -249.5q0 -150 27.5 -265.5t82.5 -203.5q32 -53 71 -87t87 -53q48 -20 104.5 -28t129.5 -8h22q72 0 129 8t105 28q94 37 157 140q56 88 83.5 203.5t27.5 265.5q0 134 -34.5 249.5 t-102.5 206.5q-32 43 -72.5 77t-88 57.5t-100.5 36t-108 12.5h-14zM1274 2490l190 -191l-393 -366l-164 166l367 391v0z" />
<glyph unicode="&#xd4;" horiz-adv-x="2128" d="M1024 -25q-93 0 -174.5 14.5t-153.5 45.5q-142 61 -252 186q-114 134 -176 291q-16 42 -29 91t-22 102t-13.5 108.5t-4.5 110.5q0 57 5 116t14.5 115.5t22.5 108.5t29 96q32 87 79.5 164.5t107.5 148.5q110 129 262 197q72 31 157.5 45t182.5 16h6q97 -2 182.5 -16 t157.5 -45q151 -68 262 -197q60 -71 107 -148.5t79 -164.5q16 -44 29.5 -96t23 -108.5t14.5 -115.5t5 -116q0 -55 -5 -110.5t-14 -108.5t-22 -102t-29 -91q-60 -157 -176 -291q-54 -62 -116.5 -108.5t-135.5 -77.5q-71 -31 -153 -45.5t-176 -14.5h-74zM1055 1649 q-56 0 -108.5 -12.5t-100 -36t-88.5 -57.5t-72 -77q-68 -91 -102.5 -206.5t-34.5 -249.5q0 -150 27.5 -265.5t82.5 -203.5q32 -53 71 -87t87 -53q48 -20 104.5 -28t129.5 -8h22q72 0 129 8t105 28q94 37 157 140q56 88 83.5 203.5t27.5 265.5q0 134 -34.5 249.5 t-102.5 206.5q-32 43 -72.5 77t-88 57.5t-100.5 36t-108 12.5h-14zM1393 2064l-133 -133l-195 198l-196 -198l-133 133l329 348l328 -348v0z" />
<glyph unicode="&#xd5;" horiz-adv-x="2128" d="M1024 -25q-93 0 -174.5 14.5t-153.5 45.5q-142 61 -252 186q-114 134 -176 291q-16 42 -29 91t-22 102t-13.5 108.5t-4.5 110.5q0 57 5 116t14.5 115.5t22.5 108.5t29 96q32 87 79.5 164.5t107.5 148.5q110 129 262 197q72 31 157.5 45t182.5 16h6q97 -2 182.5 -16 t157.5 -45q151 -68 262 -197q60 -71 107 -148.5t79 -164.5q16 -44 29.5 -96t23 -108.5t14.5 -115.5t5 -116q0 -55 -5 -110.5t-14 -108.5t-22 -102t-29 -91q-60 -157 -176 -291q-54 -62 -116.5 -108.5t-135.5 -77.5q-71 -31 -153 -45.5t-176 -14.5h-74zM1055 1649 q-56 0 -108.5 -12.5t-100 -36t-88.5 -57.5t-72 -77q-68 -91 -102.5 -206.5t-34.5 -249.5q0 -150 27.5 -265.5t82.5 -203.5q32 -53 71 -87t87 -53q48 -20 104.5 -28t129.5 -8h22q72 0 129 8t105 28q94 37 157 140q56 88 83.5 203.5t27.5 265.5q0 134 -34.5 249.5 t-102.5 206.5q-32 43 -72.5 77t-88 57.5t-100.5 36t-108 12.5h-14zM1579 2327l-334 -396l-262 250l-184 -211l-146 146l330 348l262 -244l195 244l139 -137v0z" />
<glyph unicode="&#xd6;" horiz-adv-x="2128" d="M1024 -25q-93 0 -174.5 14.5t-153.5 45.5q-142 61 -252 186q-114 134 -176 291q-16 42 -29 91t-22 102t-13.5 108.5t-4.5 110.5q0 57 5 116t14.5 115.5t22.5 108.5t29 96q32 87 79.5 164.5t107.5 148.5q110 129 262 197q72 31 157.5 45t182.5 16h6q97 -2 182.5 -16 t157.5 -45q151 -68 262 -197q60 -71 107 -148.5t79 -164.5q16 -44 29.5 -96t23 -108.5t14.5 -115.5t5 -116q0 -55 -5 -110.5t-14 -108.5t-22 -102t-29 -91q-60 -157 -176 -291q-54 -62 -116.5 -108.5t-135.5 -77.5q-71 -31 -153 -45.5t-176 -14.5h-74zM1055 1649 q-56 0 -108.5 -12.5t-100 -36t-88.5 -57.5t-72 -77q-68 -91 -102.5 -206.5t-34.5 -249.5q0 -150 27.5 -265.5t82.5 -203.5q32 -53 71 -87t87 -53q48 -20 104.5 -28t129.5 -8h22q72 0 129 8t105 28q94 37 157 140q56 88 83.5 203.5t27.5 265.5q0 134 -34.5 249.5 t-102.5 206.5q-32 43 -72.5 77t-88 57.5t-100.5 36t-108 12.5h-14zM1488 2105q0 -36 -13.5 -67.5t-37.5 -55.5t-55.5 -37.5t-67.5 -13.5t-67.5 13.5t-55.5 37.5t-37.5 55.5t-13.5 67.5t13.5 68t37.5 55.5t55.5 37t67.5 13.5t67.5 -13.5t55.5 -37t37.5 -55.5t13.5 -68z M984 2105q0 -36 -14 -67.5t-38 -55.5t-55.5 -37.5t-66.5 -13.5q-36 0 -68 13.5t-56 37.5t-38 55.5t-14 67.5t14 68t38 55.5t56 37t68 13.5q35 0 66.5 -13.5t55.5 -37t38 -55.5t14 -68z" />
<glyph unicode="&#xd7;" d="M95 250l336 336l-336 338l248 250l338 -338l338 338l247 -250l-335 -338l335 -336l-247 -250l-338 338l-338 -338z" />
<glyph unicode="&#xd8;" horiz-adv-x="2058" d="M281 -43l161 281q-5 5 -9 10t-9 10q-111 129 -172 285q-32 85 -49 176t-17 188q0 207 68 391q32 82 76.5 157.5t103.5 143.5q111 130 258 195q72 32 155.5 49t174.5 19h18q85 -2 161.5 -16.5t146.5 -43.5l65 111h363l-164 -297q3 -5 6 -8.5t6 -8.5q118 -136 180 -301 q34 -92 52 -190t18 -201q0 -195 -68 -364q-29 -79 -71.5 -149.5t-98.5 -135.5q-54 -62 -116 -109t-131 -79q-147 -70 -322 -70h-76q-65 0 -125.5 14.5t-117.5 32.5l-50 -90h-417zM1016 422h16q125 0 210.5 38.5t137.5 119.5q26 40 47 80.5t35.5 87.5t22.5 102t8 123 q0 91 -15.5 165.5t-50.5 145.5l-471 -858zM1024 1569q-107 0 -186.5 -42.5t-145.5 -137.5q-35 -48 -59 -94.5t-39 -96t-22 -104t-7 -117.5q0 -61 5 -112.5t15.5 -96.5t27 -86t40.5 -80l543 940q-34 14 -74 20.5t-88 6.5h-10z" />
<glyph unicode="&#xd9;" horiz-adv-x="2007" d="M813 -43q-99 0 -184.5 16t-157.5 52q-71 35 -124 86t-87 114q-21 39 -33 83.5t-19 93t-9 99t-2 101.5q0 1 1 37t2.5 97.5t4 143t5 174t5 190t5 191t5 177.5t4 148.5t3 105.5t1.5 47h289l35 -1264v-8q0 -17 0.5 -42t4.5 -52t11.5 -52.5t22.5 -43.5q34 -40 74 -62t78.5 -32 t71.5 -11.5t54 -1.5q63 0 128.5 27.5t130.5 81.5q57 46 100.5 110t64.5 133q13 43 22.5 79t15.5 75t9 87t3 114l24 862h289q0 -8 2 -67.5t4.5 -152.5t5.5 -210.5t6.5 -241.5t7.5 -246t7.5 -223.5t6.5 -174t5 -97.5q3 -33 12 -80.5t19.5 -100t23 -105.5t23 -97.5t18 -76 t10.5 -40.5h-319l-94 129l-2 164q-34 -63 -78 -116t-98 -91q-48 -35 -95 -59.5t-96.5 -40t-102.5 -22.5t-114 -7zM825 2527l408 -432l-164 -164l-432 406l188 190v0z" />
<glyph unicode="&#xda;" horiz-adv-x="2007" d="M813 -43q-99 0 -184.5 16t-157.5 52q-71 35 -124 86t-87 114q-21 39 -33 83.5t-19 93t-9 99t-2 101.5q0 1 1 37t2.5 97.5t4 143t5 174t5 190t5 191t5 177.5t4 148.5t3 105.5t1.5 47h289l35 -1264v-8q0 -17 0.5 -42t4.5 -52t11.5 -52.5t22.5 -43.5q34 -40 74 -62t78.5 -32 t71.5 -11.5t54 -1.5q63 0 128.5 27.5t130.5 81.5q57 46 100.5 110t64.5 133q13 43 22.5 79t15.5 75t9 87t3 114l24 862h289q0 -8 2 -67.5t4.5 -152.5t5.5 -210.5t6.5 -241.5t7.5 -246t7.5 -223.5t6.5 -174t5 -97.5q3 -33 12 -80.5t19.5 -100t23 -105.5t23 -97.5t18 -76 t10.5 -40.5h-319l-94 129l-2 164q-34 -63 -78 -116t-98 -91q-48 -35 -95 -59.5t-96.5 -40t-102.5 -22.5t-114 -7zM1119 2488l190 -191l-393 -366l-164 166l367 391v0z" />
<glyph unicode="&#xdb;" horiz-adv-x="2007" d="M813 -43q-99 0 -184.5 16t-157.5 52q-71 35 -124 86t-87 114q-21 39 -33 83.5t-19 93t-9 99t-2 101.5q0 1 1 37t2.5 97.5t4 143t5 174t5 190t5 191t5 177.5t4 148.5t3 105.5t1.5 47h289l35 -1264v-8q0 -17 0.5 -42t4.5 -52t11.5 -52.5t22.5 -43.5q34 -40 74 -62t78.5 -32 t71.5 -11.5t54 -1.5q63 0 128.5 27.5t130.5 81.5q57 46 100.5 110t64.5 133q13 43 22.5 79t15.5 75t9 87t3 114l24 862h289q0 -8 2 -67.5t4.5 -152.5t5.5 -210.5t6.5 -241.5t7.5 -246t7.5 -223.5t6.5 -174t5 -97.5q3 -33 12 -80.5t19.5 -100t23 -105.5t23 -97.5t18 -76 t10.5 -40.5h-319l-94 129l-2 164q-34 -63 -78 -116t-98 -91q-48 -35 -95 -59.5t-96.5 -40t-102.5 -22.5t-114 -7zM1292 2064l-133 -133l-195 198l-196 -198l-133 133l329 348l328 -348v0z" />
<glyph unicode="&#xdc;" horiz-adv-x="2007" d="M813 -43q-99 0 -184.5 16t-157.5 52q-71 35 -124 86t-87 114q-21 39 -33 83.5t-19 93t-9 99t-2 101.5q0 1 1 37t2.5 97.5t4 143t5 174t5 190t5 191t5 177.5t4 148.5t3 105.5t1.5 47h289l35 -1264v-8q0 -17 0.5 -42t4.5 -52t11.5 -52.5t22.5 -43.5q34 -40 74 -62t78.5 -32 t71.5 -11.5t54 -1.5q63 0 128.5 27.5t130.5 81.5q57 46 100.5 110t64.5 133q13 43 22.5 79t15.5 75t9 87t3 114l24 862h289q0 -8 2 -67.5t4.5 -152.5t5.5 -210.5t6.5 -241.5t7.5 -246t7.5 -223.5t6.5 -174t5 -97.5q3 -33 12 -80.5t19.5 -100t23 -105.5t23 -97.5t18 -76 t10.5 -40.5h-319l-94 129l-2 164q-34 -63 -78 -116t-98 -91q-48 -35 -95 -59.5t-96.5 -40t-102.5 -22.5t-114 -7zM1365 2105q0 -36 -13.5 -67.5t-37.5 -55.5t-55.5 -37.5t-67.5 -13.5t-67.5 13.5t-55.5 37.5t-37.5 55.5t-13.5 67.5t13.5 68t37.5 55.5t55.5 37t67.5 13.5 t67.5 -13.5t55.5 -37t37.5 -55.5t13.5 -68zM861 2105q0 -36 -14 -67.5t-38 -55.5t-55.5 -37.5t-66.5 -13.5q-36 0 -68 13.5t-56 37.5t-38 55.5t-14 67.5t14 68t38 55.5t56 37t68 13.5q35 0 66.5 -13.5t55.5 -37t38 -55.5t14 -68z" />
<glyph unicode="&#xdd;" horiz-adv-x="1837" d="M657 0l121 817l-637 1096h316l501 -854l406 854h332l-578 -1098q-5 -60 -10 -127.5t-10 -134.5t-10 -129t-9 -111.5t-6 -81.5t-2 -38q-6 -8 -27.5 -34t-48 -56.5t-51.5 -59.5t-37 -43h-250zM1077 2488l190 -191l-393 -366l-164 166l367 391v0z" />
<glyph unicode="&#xde;" horiz-adv-x="1707" d="M278 0q1 9 5 47t9.5 97t12 135t11.5 162.5t8.5 179t3.5 184.5v22t0.5 55t0.5 77t0.5 88t0.5 88.5t0.5 78t0.5 56.5v24q0 152 -7.5 262t-17.5 184.5t-20 116t-14 56.5h284q17 -115 27 -227t17 -227q21 20 44 39t45 33q25 15 54.5 25.5t60 17.5t60 10.5t53.5 3.5 q103 0 191 -62q73 -52 138 -150q19 -29 36.5 -67.5t31.5 -83t24 -93t16 -97.5q14 -115 0.5 -211t-51.5 -164q-47 -84 -93.5 -139t-97.5 -89q-50 -32 -107 -47t-132 -16q-65 0 -119 9t-103 36q-15 8 -27 17t-23 18l-1 -449h-322zM604 826q1 -19 8 -33t17.5 -26t25 -22.5 t31.5 -20.5q67 -43 163 -41q75 1 129 39.5t85 116.5q21 52 29 99.5t6.5 90.5t-10 82t-21.5 74q-12 30 -27.5 63.5t-37 62t-49.5 47t-64 18.5q-42 0 -86.5 -20.5t-96.5 -63.5q-14 -12 -32 -29.5t-34 -38.5t-27 -45t-12 -49z" />
<glyph unicode="&#xdf;" horiz-adv-x="1898" d="M776 1690q-55 0 -99.5 -20.5t-75.5 -55.5t-47.5 -80.5t-16.5 -95.5l30 -1438h-362l33 1473q0 91 46 171t121.5 140t172.5 94.5t198 34.5h242q101 0 198 -34.5t172.5 -94.5t121.5 -140t46 -171q0 -63 -10 -121t-37 -108.5t-74.5 -91.5t-121.5 -69l-2 -2q83 -25 153 -74.5 t121 -117t80 -150.5t29 -174q0 -76 -21.5 -147t-59.5 -134t-90.5 -115t-115.5 -89.5t-133.5 -58.5t-145.5 -21h-233l-6 297h213q64 0 120 24t98 65.5t66.5 97.5t24.5 120t-24.5 120t-66.5 98t-98 66.5t-120 24.5h-225l-7 275h148q54 0 102 20t84 54t57 79t21 95q0 49 -21 95 t-57.5 81t-85 56.5t-102.5 21.5h-240z" />
<glyph unicode="&#xe0;" horiz-adv-x="1481" d="M530 -43q-86 0 -157.5 27t-126.5 79q-57 54 -84 121q-16 34 -22.5 71t-4.5 77q3 59 12.5 102.5t26.5 77.5t39.5 57.5t48.5 46.5q59 51 123 79.5t141 39.5q50 8 112 9t118 1h53h41q31 0 42.5 5t14.5 8q5 5 5.5 16.5t0.5 24.5l2 63q0 16 -2.5 34.5t-8.5 36t-16.5 32.5 t-27.5 26q-32 22 -78.5 32.5t-105.5 10.5q-38 0 -66 -2.5t-48 -6t-33 -8.5t-21 -9q-28 -16 -39 -32.5t-14 -45.5l-2 -27h-254v31q0 21 4.5 50.5t18.5 61.5t40 64t68 59q66 42 154 63t190 21q202 0 348 -88q141 -86 141 -268l2 -661v-3l127 -108l2 -119l-22 -6l-15 -5 q-19 -6 -35 -9.5t-36 -5.5t-36.5 -2t-37.5 2q-60 5 -100 30t-62 76q-3 8 -6 15.5t-6 15.5l-29 -29t-34 -31.5t-37 -30t-37 -24.5q-30 -15 -63 -24t-67.5 -13.5t-70 -6t-70.5 -1.5zM629 555q-51 -3 -91.5 -16t-60.5 -33q-19 -19 -30 -35.5t-17 -33t-7.5 -35.5t-2.5 -42 q0 -18 5 -33t24 -30q13 -12 32.5 -18t41 -9t43 -3.5t38.5 -0.5h8q25 0 51.5 2.5t51.5 6.5t46.5 9.5t35.5 10.5q28 10 48 20t32.5 25t19 38t8.5 60l2 119h-108h-75q-29 0 -57 -0.5t-38 -1.5zM426 1913l408 -432l-164 -164l-432 406l188 190v0z" />
<glyph unicode="&#xe1;" horiz-adv-x="1481" d="M530 -43q-86 0 -157.5 27t-126.5 79q-57 54 -84 121q-16 34 -22.5 71t-4.5 77q3 59 12.5 102.5t26.5 77.5t39.5 57.5t48.5 46.5q59 51 123 79.5t141 39.5q50 8 112 9t118 1h53h41q31 0 42.5 5t14.5 8q5 5 5.5 16.5t0.5 24.5l2 63q0 16 -2.5 34.5t-8.5 36t-16.5 32.5 t-27.5 26q-32 22 -78.5 32.5t-105.5 10.5q-38 0 -66 -2.5t-48 -6t-33 -8.5t-21 -9q-28 -16 -39 -32.5t-14 -45.5l-2 -27h-254v31q0 21 4.5 50.5t18.5 61.5t40 64t68 59q66 42 154 63t190 21q202 0 348 -88q141 -86 141 -268l2 -661v-3l127 -108l2 -119l-22 -6l-15 -5 q-19 -6 -35 -9.5t-36 -5.5t-36.5 -2t-37.5 2q-60 5 -100 30t-62 76q-3 8 -6 15.5t-6 15.5l-29 -29t-34 -31.5t-37 -30t-37 -24.5q-30 -15 -63 -24t-67.5 -13.5t-70 -6t-70.5 -1.5zM629 555q-51 -3 -91.5 -16t-60.5 -33q-19 -19 -30 -35.5t-17 -33t-7.5 -35.5t-2.5 -42 q0 -18 5 -33t24 -30q13 -12 32.5 -18t41 -9t43 -3.5t38.5 -0.5h8q25 0 51.5 2.5t51.5 6.5t46.5 9.5t35.5 10.5q28 10 48 20t32.5 25t19 38t8.5 60l2 119h-108h-75q-29 0 -57 -0.5t-38 -1.5zM878 1913l190 -191l-393 -366l-164 166l367 391v0z" />
<glyph unicode="&#xe2;" horiz-adv-x="1440" d="M530 -43q-86 0 -157.5 27t-126.5 79q-57 54 -84 121q-16 34 -22.5 71t-4.5 77q3 59 12.5 102.5t26.5 77.5t39.5 57.5t48.5 46.5q59 51 123 79.5t141 39.5q50 8 112 9t118 1h53h41q31 0 42.5 5t14.5 8q5 5 5.5 16.5t0.5 24.5l2 63q0 16 -2.5 34.5t-8.5 36t-16.5 32.5 t-27.5 26q-32 22 -78.5 32.5t-105.5 10.5q-38 0 -66 -2.5t-48 -6t-33 -8.5t-21 -9q-28 -16 -39 -32.5t-14 -45.5l-2 -27h-254v31q0 21 4.5 50.5t18.5 61.5t40 64t68 59q66 42 154 63t190 21q202 0 348 -88q141 -86 141 -268l2 -661v-3l127 -108l2 -119l-22 -6l-15 -5 q-19 -6 -35 -9.5t-36 -5.5t-36.5 -2t-37.5 2q-60 5 -100 30t-62 76q-3 8 -6 15.5t-6 15.5l-29 -29t-34 -31.5t-37 -30t-37 -24.5q-30 -15 -63 -24t-67.5 -13.5t-70 -6t-70.5 -1.5zM629 555q-51 -3 -91.5 -16t-60.5 -33q-19 -19 -30 -35.5t-17 -33t-7.5 -35.5t-2.5 -42 q0 -18 5 -33t24 -30q13 -12 32.5 -18t41 -9t43 -3.5t38.5 -0.5h8q25 0 51.5 2.5t51.5 6.5t46.5 9.5t35.5 10.5q28 10 48 20t32.5 25t19 38t8.5 60l2 119h-108h-75q-29 0 -57 -0.5t-38 -1.5zM997 1565l-133 -133l-195 198l-196 -198l-133 133l329 348l328 -348v0z" />
<glyph unicode="&#xe3;" horiz-adv-x="1440" d="M530 -43q-86 0 -157.5 27t-126.5 79q-57 54 -84 121q-16 34 -22.5 71t-4.5 77q3 59 12.5 102.5t26.5 77.5t39.5 57.5t48.5 46.5q59 51 123 79.5t141 39.5q50 8 112 9t118 1h53h41q31 0 42.5 5t14.5 8q5 5 5.5 16.5t0.5 24.5l2 63q0 16 -2.5 34.5t-8.5 36t-16.5 32.5 t-27.5 26q-32 22 -78.5 32.5t-105.5 10.5q-38 0 -66 -2.5t-48 -6t-33 -8.5t-21 -9q-28 -16 -39 -32.5t-14 -45.5l-2 -27h-254v31q0 21 4.5 50.5t18.5 61.5t40 64t68 59q66 42 154 63t190 21q202 0 348 -88q141 -86 141 -268l2 -661v-3l127 -108l2 -119l-22 -6l-15 -5 q-19 -6 -35 -9.5t-36 -5.5t-36.5 -2t-37.5 2q-60 5 -100 30t-62 76q-3 8 -6 15.5t-6 15.5l-29 -29t-34 -31.5t-37 -30t-37 -24.5q-30 -15 -63 -24t-67.5 -13.5t-70 -6t-70.5 -1.5zM629 555q-51 -3 -91.5 -16t-60.5 -33q-19 -19 -30 -35.5t-17 -33t-7.5 -35.5t-2.5 -42 q0 -18 5 -33t24 -30q13 -12 32.5 -18t41 -9t43 -3.5t38.5 -0.5h8q25 0 51.5 2.5t51.5 6.5t46.5 9.5t35.5 10.5q28 10 48 20t32.5 25t19 38t8.5 60l2 119h-108h-75q-29 0 -57 -0.5t-38 -1.5zM1141 1776l-334 -396l-262 250l-184 -211l-146 146l330 348l262 -244l195 244 l139 -137v0z" />
<glyph unicode="&#xe4;" horiz-adv-x="1481" d="M530 -43q-86 0 -157.5 27t-126.5 79q-57 54 -84 121q-16 34 -22.5 71t-4.5 77q3 59 12.5 102.5t26.5 77.5t39.5 57.5t48.5 46.5q59 51 123 79.5t141 39.5q50 8 112 9t118 1h53h41q31 0 42.5 5t14.5 8q5 5 5.5 16.5t0.5 24.5l2 63q0 16 -2.5 34.5t-8.5 36t-16.5 32.5 t-27.5 26q-32 22 -78.5 32.5t-105.5 10.5q-38 0 -66 -2.5t-48 -6t-33 -8.5t-21 -9q-28 -16 -39 -32.5t-14 -45.5l-2 -27h-254v31q0 21 4.5 50.5t18.5 61.5t40 64t68 59q66 42 154 63t190 21q202 0 348 -88q141 -86 141 -268l2 -661v-3l127 -108l2 -119l-22 -6l-15 -5 q-19 -6 -35 -9.5t-36 -5.5t-36.5 -2t-37.5 2q-60 5 -100 30t-62 76q-3 8 -6 15.5t-6 15.5l-29 -29t-34 -31.5t-37 -30t-37 -24.5q-30 -15 -63 -24t-67.5 -13.5t-70 -6t-70.5 -1.5zM629 555q-51 -3 -91.5 -16t-60.5 -33q-19 -19 -30 -35.5t-17 -33t-7.5 -35.5t-2.5 -42 q0 -18 5 -33t24 -30q13 -12 32.5 -18t41 -9t43 -3.5t38.5 -0.5h8q25 0 51.5 2.5t51.5 6.5t46.5 9.5t35.5 10.5q28 10 48 20t32.5 25t19 38t8.5 60l2 119h-108h-75q-29 0 -57 -0.5t-38 -1.5zM1101 1638q0 -36 -13.5 -67.5t-37.5 -55.5t-55.5 -37.5t-67.5 -13.5t-67.5 13.5 t-55.5 37.5t-37.5 55.5t-13.5 67.5t13.5 68t37.5 55.5t55.5 37t67.5 13.5t67.5 -13.5t55.5 -37t37.5 -55.5t13.5 -68zM597 1638q0 -36 -14 -67.5t-38 -55.5t-55.5 -37.5t-66.5 -13.5q-36 0 -68 13.5t-56 37.5t-38 55.5t-14 67.5t14 68t38 55.5t56 37t68 13.5 q35 0 66.5 -13.5t55.5 -37t38 -55.5t14 -68z" />
<glyph unicode="&#xe5;" horiz-adv-x="1440" d="M530 -43q-86 0 -157.5 27t-126.5 79q-57 54 -84 121q-16 34 -22.5 71t-4.5 77q3 59 12.5 102.5t26.5 77.5t39.5 57.5t48.5 46.5q59 51 123 79.5t141 39.5q50 8 112 9t118 1h53h41q31 0 42.5 5t14.5 8q5 5 5.5 16.5t0.5 24.5l2 63q0 16 -2.5 34.5t-8.5 36t-16.5 32.5 t-27.5 26q-32 22 -78.5 32.5t-105.5 10.5q-38 0 -66 -2.5t-48 -6t-33 -8.5t-21 -9q-28 -16 -39 -32.5t-14 -45.5l-2 -27h-254v31q0 21 4.5 50.5t18.5 61.5t40 64t68 59q66 42 154 63t190 21q202 0 348 -88q141 -86 141 -268l2 -661v-3l127 -108l2 -119l-22 -6l-15 -5 q-19 -6 -35 -9.5t-36 -5.5t-36.5 -2t-37.5 2q-60 5 -100 30t-62 76q-3 8 -6 15.5t-6 15.5l-29 -29t-34 -31.5t-37 -30t-37 -24.5q-30 -15 -63 -24t-67.5 -13.5t-70 -6t-70.5 -1.5zM629 555q-51 -3 -91.5 -16t-60.5 -33q-19 -19 -30 -35.5t-17 -33t-7.5 -35.5t-2.5 -42 q0 -18 5 -33t24 -30q13 -12 32.5 -18t41 -9t43 -3.5t38.5 -0.5h8q25 0 51.5 2.5t51.5 6.5t46.5 9.5t35.5 10.5q28 10 48 20t32.5 25t19 38t8.5 60l2 119h-108h-75q-29 0 -57 -0.5t-38 -1.5zM698 1405q-53 0 -99 20t-80 54.5t-54 80.5t-20 99q0 52 20 98t54 80.5t80 54.5 t99 20q52 0 98.5 -20t80.5 -54.5t54 -80.5t20 -98q0 -53 -20 -99t-54 -80.5t-80.5 -54.5t-98.5 -20zM698 1776q-24 0 -45.5 -9.5t-37.5 -25t-25 -37t-9 -45.5t9 -45.5t25 -37.5t37.5 -25t45.5 -9t45.5 9t37.5 25t25 37.5t9 45.5t-9 45.5t-25 37t-37.5 25t-45.5 9.5z" />
<glyph unicode="&#xe6;" horiz-adv-x="2234" d="M1499 -43q-238 0 -387 156q-17 18 -32 36.5t-29 38.5l-46 -46t-57 -54.5t-59 -50.5t-51 -35q-60 -32 -129.5 -38.5t-139.5 -6.5q-88 0 -159 26t-125 78q-29 28 -50 58.5t-36 62.5q-14 34 -21 72t-4 76q2 64 12.5 108.5t27 76.5t39 56t48.5 47q63 57 126.5 87.5 t135.5 39.5q25 4 54 6.5t59 3.5t60 1h57h53h41q32 0 43.5 4.5t13.5 7.5q5 5 5.5 17t0.5 24l2 63q0 16 -2 34.5t-7.5 36t-16 32.5t-27.5 26q-67 43 -186 43q-75 0 -113 -8.5t-55 -17.5q-23 -14 -35.5 -36t-17.5 -54l-3 -25h-251v29q0 21 4.5 50.5t18 61.5t39.5 64t69 59 q65 42 153.5 64t190.5 22q99 0 187.5 -23t160.5 -67q26 -17 47 -36t37 -42q35 36 74 64.5t81 48.5q107 55 230 55q91 0 154.5 -19t101.5 -38q22 -12 48 -30t51 -41t47.5 -50t37.5 -55q23 -43 47 -95.5t35 -117.5v-2q5 -56 -8 -102.5t-45 -81.5q-42 -48 -114 -75t-171 -30 l-477 -27q3 -35 15.5 -73.5t37.5 -67.5q15 -18 31 -33t38.5 -26t54.5 -17t79 -6h4h2q34 0 68.5 0.5t63.5 2t52 4.5t35 8q14 5 23.5 12.5t11.5 30.5l2 26h307v-31q0 -48 -14.5 -90.5t-42.5 -83.5q-23 -32 -50 -56.5t-50 -41.5q-59 -43 -117.5 -60.5t-101.5 -23.5 q-38 -5 -89 -5.5t-98 -0.5zM838 555q-65 0 -108.5 -1t-63.5 -3q-44 -2 -85.5 -18t-66.5 -39q-19 -19 -30 -33.5t-17 -29.5t-7.5 -32t-2.5 -39q0 -20 5 -34t23 -31q14 -11 34 -17t42 -8.5t43.5 -3t38.5 -0.5h8q24 0 50.5 2.5t51 6.5t46 8.5t35.5 9.5q27 10 47 20t33.5 26 t20.5 40.5t9 62.5v103v8q-18 0 -46.5 1t-59.5 1zM1536 1047q-32 0 -63.5 -11t-60.5 -28t-54.5 -38t-44.5 -42q-34 -37 -56 -93t-30 -122l465 22q26 2 55.5 10t44.5 31q24 44 -16 129q-31 68 -93.5 105t-146.5 37z" />
<glyph unicode="&#xe7;" horiz-adv-x="1352" d="M547 -475v149h155q31 0 52.5 21.5t21.5 52.5t-21.5 52.5t-52.5 21.5h-116v139q-45 6 -87.5 17.5t-80.5 29.5q-94 44 -156 121q-69 85 -106 202t-37 255q0 78 10 147t29 129q39 120 118 211q78 90 189 135q54 23 111.5 34t119.5 11q104 0 188.5 -24.5t149.5 -75.5 q93 -71 133 -211l13 -37h-273l-6 19q-8 20 -16 32t-21 23q-15 14 -30 26.5t-34.5 21.5t-44 14.5t-57.5 5.5q-89 0 -157 -50.5t-105 -132.5q-11 -27 -18.5 -48t-11.5 -44t-5.5 -52t-1.5 -73q0 -81 13.5 -144t44.5 -126v-2q12 -26 23.5 -45t31.5 -33q25 -16 67 -23.5t105 -7.5 h16q66 0 105 5t51 12q16 8 22.5 15t8.5 26l4 26h305v-31q0 -38 -13.5 -79.5t-41.5 -83.5q-20 -32 -47.5 -61.5t-53.5 -49.5q-60 -45 -127.5 -63t-136.5 -23q33 -12 60.5 -32.5t47.5 -48t31 -60.5t11 -70q0 -46 -17.5 -86.5t-48 -71t-71.5 -48t-87 -17.5h-155z" />
<glyph unicode="&#xe8;" horiz-adv-x="1374" d="M690 -43q-121 0 -216.5 38.5t-170.5 119.5q-168 175 -168 452q0 143 45 269q22 60 52.5 114t70.5 101q82 94 184 147q54 28 113 41.5t121 13.5q92 0 155 -19t101 -38q23 -11 49 -29t50.5 -40.5t47 -49.5t37.5 -55q25 -45 48 -97.5t34 -117.5v-2q12 -110 -53 -184 q-42 -48 -114 -74t-171 -29l-477 -29q5 -35 17 -73t36 -66q15 -18 31 -33t38.5 -26.5t54.5 -18t79 -6.5h6q34 1 68.5 1.5t64 2t52.5 4t36 7.5t22.5 13t12.5 30l2 24h307v-26q-2 -48 -15.5 -92t-41.5 -83q-25 -34 -52 -57.5t-50 -40.5q-29 -22 -59 -37t-58 -24.5t-53.5 -14.5 t-46.5 -8q-39 -6 -90.5 -7t-98.5 -1zM727 1047q-37 0 -68 -9t-58 -25t-50.5 -36.5t-44.5 -44.5q-35 -37 -57.5 -93t-28.5 -122l463 22q13 1 28 3t28.5 7t25 12.5t18.5 18.5q25 46 -14 129q-19 40 -47.5 66.5t-61.5 42.5t-67.5 22.5t-65.5 6.5zM596 1913l408 -432l-164 -164 l-432 406l188 190v0z" />
<glyph unicode="&#xe9;" horiz-adv-x="1374" d="M690 -43q-121 0 -216.5 38.5t-170.5 119.5q-168 175 -168 452q0 143 45 269q22 60 52.5 114t70.5 101q82 94 184 147q54 28 113 41.5t121 13.5q92 0 155 -19t101 -38q23 -11 49 -29t50.5 -40.5t47 -49.5t37.5 -55q25 -45 48 -97.5t34 -117.5v-2q12 -110 -53 -184 q-42 -48 -114 -74t-171 -29l-477 -29q5 -35 17 -73t36 -66q15 -18 31 -33t38.5 -26.5t54.5 -18t79 -6.5h6q34 1 68.5 1.5t64 2t52.5 4t36 7.5t22.5 13t12.5 30l2 24h307v-26q-2 -48 -15.5 -92t-41.5 -83q-25 -34 -52 -57.5t-50 -40.5q-29 -22 -59 -37t-58 -24.5t-53.5 -14.5 t-46.5 -8q-39 -6 -90.5 -7t-98.5 -1zM727 1047q-37 0 -68 -9t-58 -25t-50.5 -36.5t-44.5 -44.5q-35 -37 -57.5 -93t-28.5 -122l463 22q13 1 28 3t28.5 7t25 12.5t18.5 18.5q25 46 -14 129q-19 40 -47.5 66.5t-61.5 42.5t-67.5 22.5t-65.5 6.5zM940 1913l190 -191l-393 -366 l-164 166l367 391v0z" />
<glyph unicode="&#xea;" horiz-adv-x="1393" d="M690 -43q-121 0 -216.5 38.5t-170.5 119.5q-168 175 -168 452q0 143 45 269q22 60 52.5 114t70.5 101q82 94 184 147q54 28 113 41.5t121 13.5q92 0 155 -19t101 -38q23 -11 49 -29t50.5 -40.5t47 -49.5t37.5 -55q25 -45 48 -97.5t34 -117.5v-2q12 -110 -53 -184 q-42 -48 -114 -74t-171 -29l-477 -29q5 -35 17 -73t36 -66q15 -18 31 -33t38.5 -26.5t54.5 -18t79 -6.5h6q34 1 68.5 1.5t64 2t52.5 4t36 7.5t22.5 13t12.5 30l2 24h307v-26q-2 -48 -15.5 -92t-41.5 -83q-25 -34 -52 -57.5t-50 -40.5q-29 -22 -59 -37t-58 -24.5t-53.5 -14.5 t-46.5 -8q-39 -6 -90.5 -7t-98.5 -1zM727 1047q-37 0 -68 -9t-58 -25t-50.5 -36.5t-44.5 -44.5q-35 -37 -57.5 -93t-28.5 -122l463 22q13 1 28 3t28.5 7t25 12.5t18.5 18.5q25 46 -14 129q-19 40 -47.5 66.5t-61.5 42.5t-67.5 22.5t-65.5 6.5zM1087 1565l-133 -133l-195 198 l-196 -198l-133 133l329 348l328 -348v0z" />
<glyph unicode="&#xeb;" horiz-adv-x="1374" d="M690 -43q-121 0 -216.5 38.5t-170.5 119.5q-168 175 -168 452q0 143 45 269q22 60 52.5 114t70.5 101q82 94 184 147q54 28 113 41.5t121 13.5q92 0 155 -19t101 -38q23 -11 49 -29t50.5 -40.5t47 -49.5t37.5 -55q25 -45 48 -97.5t34 -117.5v-2q12 -110 -53 -184 q-42 -48 -114 -74t-171 -29l-477 -29q5 -35 17 -73t36 -66q15 -18 31 -33t38.5 -26.5t54.5 -18t79 -6.5h6q34 1 68.5 1.5t64 2t52.5 4t36 7.5t22.5 13t12.5 30l2 24h307v-26q-2 -48 -15.5 -92t-41.5 -83q-25 -34 -52 -57.5t-50 -40.5q-29 -22 -59 -37t-58 -24.5t-53.5 -14.5 t-46.5 -8q-39 -6 -90.5 -7t-98.5 -1zM727 1047q-37 0 -68 -9t-58 -25t-50.5 -36.5t-44.5 -44.5q-35 -37 -57.5 -93t-28.5 -122l463 22q13 1 28 3t28.5 7t25 12.5t18.5 18.5q25 46 -14 129q-19 40 -47.5 66.5t-61.5 42.5t-67.5 22.5t-65.5 6.5zM1151 1638q0 -36 -13.5 -67.5 t-37.5 -55.5t-55.5 -37.5t-67.5 -13.5t-67.5 13.5t-55.5 37.5t-37.5 55.5t-13.5 67.5t13.5 68t37.5 55.5t55.5 37t67.5 13.5t67.5 -13.5t55.5 -37t37.5 -55.5t13.5 -68zM647 1638q0 -36 -14 -67.5t-38 -55.5t-55.5 -37.5t-66.5 -13.5q-36 0 -68 13.5t-56 37.5t-38 55.5 t-14 67.5t14 68t38 55.5t56 37t68 13.5q35 0 66.5 -13.5t55.5 -37t38 -55.5t14 -68z" />
<glyph unicode="&#xec;" horiz-adv-x="1141" d="M727 0h-315l26 1214h262zM993 1638q0 -36 -13.5 -67.5t-37.5 -55.5t-55.5 -37.5t-67.5 -13.5t-67.5 13.5t-55.5 37.5t-37.5 55.5t-13.5 67.5t13.5 68t37.5 55.5t55.5 37t67.5 13.5t67.5 -13.5t55.5 -37t37.5 -55.5t13.5 -68zM489 1638q0 -36 -14 -67.5t-38 -55.5 t-55.5 -37.5t-66.5 -13.5q-36 0 -68 13.5t-56 37.5t-38 55.5t-14 67.5t14 68t38 55.5t56 37t68 13.5q35 0 66.5 -13.5t55.5 -37t38 -55.5t14 -68z" />
<glyph unicode="&#xed;" horiz-adv-x="844" d="M215 0l27 1214h262l24 -1214h-313zM570 1913l190 -191l-393 -366l-164 166z" />
<glyph unicode="&#xee;" horiz-adv-x="973" d="M643 0h-315l26 1214h262zM817 1565l-133 -133l-195 198l-196 -198l-133 133l329 348z" />
<glyph unicode="&#xef;" horiz-adv-x="1141" d="M725 0h-315l26 1214h262zM991 1638q0 -36 -13.5 -67.5t-37.5 -55.5t-55.5 -37.5t-67.5 -13.5t-67.5 13.5t-55.5 37.5t-37.5 55.5t-13.5 67.5t13.5 68t37.5 55.5t55.5 37t67.5 13.5t67.5 -13.5t55.5 -37t37.5 -55.5t13.5 -68zM487 1638q0 -36 -14 -67.5t-38 -55.5 t-55.5 -37.5t-66.5 -13.5q-36 0 -68 13.5t-56 37.5t-38 55.5t-14 67.5t14 68t38 55.5t56 37t68 13.5q35 0 66.5 -13.5t55.5 -37t38 -55.5t14 -68z" />
<glyph unicode="&#xf0;" horiz-adv-x="1470" d="M704 -43q-251 0 -400 172q-78 90 -120 198q-47 121 -47 257q0 143 49 273q44 118 125 212q155 182 414 184h13q52 0 89.5 -3t68.5 -11q-22 45 -65.5 113t-119.5 149l-298 -157l-87 165l240 127q-56 46 -115.5 86.5t-109 71t-81.5 48.5l-32 18l13 53h212q2 -1 32 -14.5 t75.5 -36.5t100 -54t105.5 -66l290 154l88 -166l-223 -118q27 -27 51 -54q68 -78 115.5 -149t79.5 -134t51.5 -117.5t32.5 -100.5q14 -52 28.5 -111.5t25 -124t15.5 -133t1 -137.5q-8 -129 -47 -230.5t-117 -191.5q-149 -172 -401 -172h-52zM727 1044q-69 0 -121.5 -30.5 t-102.5 -101.5q-23 -33 -39.5 -64.5t-27 -65t-15 -70.5t-4.5 -80q0 -45 3.5 -82t12 -69t21.5 -61t32 -58q33 -51 89 -74.5t145 -23.5h12q90 0 145.5 24t88.5 74q18 27 32 54.5t24 59.5t15 69t5 84q0 48 -4 88t-12.5 74t-22.5 64.5t-34 60.5q-44 66 -102 97t-133 31h-7z" />
<glyph unicode="&#xf1;" horiz-adv-x="1364" d="M1249 0h-315l2 31q4 141 7.5 245.5t5.5 180.5t2.5 127t1 83.5t0 50t-0.5 27.5v15q0 66 -2.5 104.5t-11.5 61.5q-9 21 -21.5 42.5t-31 39t-46.5 28.5t-69 11q-14 0 -30 -5t-32 -12t-30 -15.5t-23 -15.5q-17 -11 -31.5 -22.5t-29.5 -25.5t-31 -31t-35 -39 q-21 -25 -31.5 -49.5t-21.5 -59.5q-5 -15 -7.5 -31t-4 -34t-1.5 -39.5t1 -49.5q0 -14 0.5 -46t1.5 -75.5t2.5 -94.5t2.5 -102.5t2.5 -99.5t2.5 -85t1.5 -60t0.5 -24l2 -31h-317l2 31q0 1 2 35.5t5 90.5t6.5 128.5t7.5 151t7.5 156.5t6 145.5t4 119t0.5 76.5q-1 31 -4 74 t-6.5 82t-6 66t-2.5 28l-4 30h264l9 -131q13 18 29 36t33 34t35 29.5t36 21.5q49 25 105 37t116 12q130 0 221 -49.5t139 -146.5q25 -48 37.5 -116.5t14.5 -170.5q0 -23 1.5 -66.5t4 -99.5t5 -119.5l5 -127t5.5 -122t5 -103.5t3 -72.5t1 -28.5v-31zM1231 1776l-334 -396 l-262 250l-184 -211l-146 146l330 348l262 -244l195 244l139 -137v0z" />
<glyph unicode="&#xf2;" horiz-adv-x="1448" d="M705 -43q-127 0 -227.5 42.5t-174.5 129.5q-38 45 -68.5 95t-52.5 104q-45 120 -45 256q0 72 12 140.5t35 131.5q23 59 54 112t73 101q154 181 414 184h12q128 -2 231.5 -47.5t180.5 -136.5q40 -48 71.5 -101t53.5 -112q25 -63 37 -131.5t12 -140.5q0 -135 -47 -256 q-20 -54 -50.5 -104t-68.5 -95q-150 -172 -401 -172h-51zM727 1044q-74 0 -128.5 -30.5t-100.5 -95.5q-23 -33 -39 -66t-25.5 -67.5t-13.5 -72t-4 -79.5q0 -45 4 -82.5t12 -70t21.5 -62t31.5 -58.5q32 -49 89 -72.5t145 -23.5h12q90 0 146 23.5t88 72.5q18 28 32.5 56 t24.5 59.5t15 69t5 84.5q0 49 -5 89.5t-15 75.5t-25 66t-34 60q-44 63 -99 93.5t-131 30.5h-6zM486 1913l408 -432l-164 -164l-432 406l188 190v0z" />
<glyph unicode="&#xf3;" horiz-adv-x="1448" d="M705 -43q-127 0 -227.5 42.5t-174.5 129.5q-38 45 -68.5 95t-52.5 104q-45 120 -45 256q0 72 12 140.5t35 131.5q23 59 54 112t73 101q154 181 414 184h12q128 -2 231.5 -47.5t180.5 -136.5q40 -48 71.5 -101t53.5 -112q25 -63 37 -131.5t12 -140.5q0 -135 -47 -256 q-20 -54 -50.5 -104t-68.5 -95q-150 -172 -401 -172h-51zM727 1044q-74 0 -128.5 -30.5t-100.5 -95.5q-23 -33 -39 -66t-25.5 -67.5t-13.5 -72t-4 -79.5q0 -45 4 -82.5t12 -70t21.5 -62t31.5 -58.5q32 -49 89 -72.5t145 -23.5h12q90 0 146 23.5t88 72.5q18 28 32.5 56 t24.5 59.5t15 69t5 84.5q0 49 -5 89.5t-15 75.5t-25 66t-34 60q-44 63 -99 93.5t-131 30.5h-6zM940 1913l190 -191l-393 -366l-164 166l367 391v0z" />
<glyph unicode="&#xf4;" horiz-adv-x="1466" d="M705 -43q-127 0 -227.5 42.5t-174.5 129.5q-38 45 -68.5 95t-52.5 104q-45 120 -45 256q0 72 12 140.5t35 131.5q23 59 54 112t73 101q154 181 414 184h12q128 -2 231.5 -47.5t180.5 -136.5q40 -48 71.5 -101t53.5 -112q25 -63 37 -131.5t12 -140.5q0 -135 -47 -256 q-20 -54 -50.5 -104t-68.5 -95q-150 -172 -401 -172h-51zM727 1044q-74 0 -128.5 -30.5t-100.5 -95.5q-23 -33 -39 -66t-25.5 -67.5t-13.5 -72t-4 -79.5q0 -45 4 -82.5t12 -70t21.5 -62t31.5 -58.5q32 -49 89 -72.5t145 -23.5h12q90 0 146 23.5t88 72.5q18 28 32.5 56 t24.5 59.5t15 69t5 84.5q0 49 -5 89.5t-15 75.5t-25 66t-34 60q-44 63 -99 93.5t-131 30.5h-6zM1057 1565l-133 -133l-195 198l-196 -198l-133 133l329 348l328 -348v0z" />
<glyph unicode="&#xf5;" horiz-adv-x="1466" d="M705 -43q-127 0 -227.5 42.5t-174.5 129.5q-38 45 -68.5 95t-52.5 104q-45 120 -45 256q0 72 12 140.5t35 131.5q23 59 54 112t73 101q154 181 414 184h12q128 -2 231.5 -47.5t180.5 -136.5q40 -48 71.5 -101t53.5 -112q25 -63 37 -131.5t12 -140.5q0 -135 -47 -256 q-20 -54 -50.5 -104t-68.5 -95q-150 -172 -401 -172h-51zM727 1044q-74 0 -128.5 -30.5t-100.5 -95.5q-23 -33 -39 -66t-25.5 -67.5t-13.5 -72t-4 -79.5q0 -45 4 -82.5t12 -70t21.5 -62t31.5 -58.5q32 -49 89 -72.5t145 -23.5h12q90 0 146 23.5t88 72.5q18 28 32.5 56 t24.5 59.5t15 69t5 84.5q0 49 -5 89.5t-15 75.5t-25 66t-34 60q-44 63 -99 93.5t-131 30.5h-6zM1194 1776l-334 -396l-262 250l-184 -211l-146 146l330 348l262 -244l195 244l139 -137v0z" />
<glyph unicode="&#xf6;" horiz-adv-x="1448" d="M705 -43q-127 0 -227.5 42.5t-174.5 129.5q-38 45 -68.5 95t-52.5 104q-45 120 -45 256q0 72 12 140.5t35 131.5q23 59 54 112t73 101q154 181 414 184h12q128 -2 231.5 -47.5t180.5 -136.5q40 -48 71.5 -101t53.5 -112q25 -63 37 -131.5t12 -140.5q0 -135 -47 -256 q-20 -54 -50.5 -104t-68.5 -95q-150 -172 -401 -172h-51zM727 1044q-74 0 -128.5 -30.5t-100.5 -95.5q-23 -33 -39 -66t-25.5 -67.5t-13.5 -72t-4 -79.5q0 -45 4 -82.5t12 -70t21.5 -62t31.5 -58.5q32 -49 89 -72.5t145 -23.5h12q90 0 146 23.5t88 72.5q18 28 32.5 56 t24.5 59.5t15 69t5 84.5q0 49 -5 89.5t-15 75.5t-25 66t-34 60q-44 63 -99 93.5t-131 30.5h-6zM1151 1638q0 -36 -13.5 -67.5t-37.5 -55.5t-55.5 -37.5t-67.5 -13.5t-67.5 13.5t-55.5 37.5t-37.5 55.5t-13.5 67.5t13.5 68t37.5 55.5t55.5 37t67.5 13.5t67.5 -13.5t55.5 -37 t37.5 -55.5t13.5 -68zM647 1638q0 -36 -14 -67.5t-38 -55.5t-55.5 -37.5t-66.5 -13.5q-36 0 -68 13.5t-56 37.5t-38 55.5t-14 67.5t14 68t38 55.5t56 37t68 13.5q35 0 66.5 -13.5t55.5 -37t38 -55.5t14 -68z" />
<glyph unicode="&#xf7;" d="M889 1051q0 -42 -16 -79t-44 -64.5t-64.5 -43.5t-78.5 -16t-79 16t-65 43.5t-44 64.5t-16 79t16 79t44 64t65 43t79 16t78.5 -16t64.5 -43t44 -64t16 -79zM889 160q0 -42 -16 -78.5t-44 -64.5t-64.5 -44t-78.5 -16t-79 16t-65 44t-44 64.5t-16 78.5t16 79.5t44 65t65 44 t79 16.5t78.5 -16.5t64.5 -44t44 -65t16 -79.5zM1254 510h-1137v178h1137v-178z" />
<glyph unicode="&#xf8;" horiz-adv-x="1466" d="M197 -82l116 201l-10 10q-38 45 -68.5 95t-50.5 104q-23 60 -35 124t-12 132q0 72 12.5 140.5t36.5 133.5q22 59 53.5 111.5t71.5 101.5q155 182 414 182h14q114 0 209 -36l45 75h271l-119 -215l6 -6q40 -49 71.5 -101.5t53.5 -111.5q49 -128 49 -274q0 -135 -47 -256 q-22 -54 -51.5 -104t-69.5 -95q-74 -87 -174 -129.5t-225 -42.5h-53q-45 0 -86.5 4.5t-79.5 15.5l-33 -59h-309zM721 266h12q90 0 146 22.5t88 73.5q18 27 32 55t24 59.5t15.5 69t5.5 83.5q0 59 -9 106t-27 90l-310 -559h23zM727 1034q-74 0 -125.5 -28t-97.5 -93 q-23 -33 -39.5 -64.5t-27 -65t-15 -70.5t-4.5 -80q0 -80 11.5 -136t39.5 -108l365 631q-41 14 -99 14h-8z" />
<glyph unicode="&#xf9;" horiz-adv-x="1419" d="M580 -43q-63 0 -119.5 13t-104.5 38q-48 23 -85 57.5t-66 77.5q-32 50 -48 123.5t-14 167.5l21 780h254l10 -778q3 -46 11 -77t16 -42q23 -32 63 -41.5t111 -9.5q43 0 75 13.5t57 36t45.5 53t39.5 65.5t28.5 90.5t12.5 153.5l6 536h256v-28q0 -66 1.5 -150t3 -173 t3.5 -177t4.5 -161.5t5.5 -126.5t7 -72q3 -18 10.5 -41.5t18.5 -50t24 -54t26 -53.5q31 -62 68 -127h-313l-66 170q-18 -29 -42 -60.5t-46 -50.5q-62 -52 -129 -77t-145 -25zM526 1913l408 -432l-164 -164l-432 406l188 190v0z" />
<glyph unicode="&#xfa;" horiz-adv-x="1419" d="M580 -43q-63 0 -119.5 13t-104.5 38q-48 23 -85 57.5t-66 77.5q-32 50 -48 123.5t-14 167.5l21 780h254l10 -778q3 -46 11 -77t16 -42q23 -32 63 -41.5t111 -9.5q43 0 75 13.5t57 36t45.5 53t39.5 65.5t28.5 90.5t12.5 153.5l6 536h256v-28q0 -66 1.5 -150t3 -173 t3.5 -177t4.5 -161.5t5.5 -126.5t7 -72q3 -18 10.5 -41.5t18.5 -50t24 -54t26 -53.5q31 -62 68 -127h-313l-66 170q-18 -29 -42 -60.5t-46 -50.5q-62 -52 -129 -77t-145 -25zM870 1913l190 -191l-393 -366l-164 166l367 391v0z" />
<glyph unicode="&#xfb;" horiz-adv-x="1427" d="M580 -43q-63 0 -119.5 13t-104.5 38q-48 23 -85 57.5t-66 77.5q-32 50 -48 123.5t-14 167.5l21 780h254l10 -778q3 -46 11 -77t16 -42q23 -32 63 -41.5t111 -9.5q43 0 75 13.5t57 36t45.5 53t39.5 65.5t28.5 90.5t12.5 153.5l6 536h256v-28q0 -66 1.5 -150t3 -173 t3.5 -177t4.5 -161.5t5.5 -126.5t7 -72q3 -18 10.5 -41.5t18.5 -50t24 -54t26 -53.5q31 -62 68 -127h-313l-66 170q-18 -29 -42 -60.5t-46 -50.5q-62 -52 -129 -77t-145 -25zM979 1565l-133 -133l-195 198l-196 -198l-133 133l329 348l328 -348v0z" />
<glyph unicode="&#xfc;" horiz-adv-x="1419" d="M580 -43q-63 0 -119.5 13t-104.5 38q-48 23 -85 57.5t-66 77.5q-32 50 -48 123.5t-14 167.5l21 780h254l10 -778q3 -46 11 -77t16 -42q23 -32 63 -41.5t111 -9.5q43 0 75 13.5t57 36t45.5 53t39.5 65.5t28.5 90.5t12.5 153.5l6 536h256v-28q0 -66 1.5 -150t3 -173 t3.5 -177t4.5 -161.5t5.5 -126.5t7 -72q3 -18 10.5 -41.5t18.5 -50t24 -54t26 -53.5q31 -62 68 -127h-313l-66 170q-18 -29 -42 -60.5t-46 -50.5q-62 -52 -129 -77t-145 -25zM1110 1638q0 -36 -13.5 -67.5t-37.5 -55.5t-55.5 -37.5t-67.5 -13.5t-67.5 13.5t-55.5 37.5 t-37.5 55.5t-13.5 67.5t13.5 68t37.5 55.5t55.5 37t67.5 13.5t67.5 -13.5t55.5 -37t37.5 -55.5t13.5 -68zM606 1638q0 -36 -14 -67.5t-38 -55.5t-55.5 -37.5t-66.5 -13.5q-36 0 -68 13.5t-56 37.5t-38 55.5t-14 67.5t14 68t38 55.5t56 37t68 13.5q35 0 66.5 -13.5t55.5 -37 t38 -55.5t14 -68z" />
<glyph unicode="&#xfd;" horiz-adv-x="1341" d="M332 -686q-63 0 -118.5 21t-98.5 59l-11 10l39 258l39 -39q8 -6 17.5 -10.5t26 -7.5t42.5 -4.5t68 -1.5q26 0 41 3t24 11q13 12 18 25.5t13 31.5v2q7 19 22.5 65t35.5 105.5t42.5 126t42.5 126t35.5 106t22.5 65.5l-488 948h273l330 -620l215 620h270l-14 -38 q0 -2 -11 -35t-29.5 -89t-43.5 -130.5t-53.5 -159.5t-59 -175.5t-60 -179t-57 -170t-50 -147.5t-38.5 -113.5t-22 -66.5q-17 -51 -31 -94.5t-27 -83.5q-21 -65 -37 -115t-31 -88t-29 -65.5t-30 -47.5q-27 -32 -53.5 -52t-58.5 -31t-72 -15t-94 -4zM909 1913l190 -191 l-393 -366l-164 166l367 391v0z" />
<glyph unicode="&#xfe;" horiz-adv-x="1362" d="M191 477q0 5 0.5 41.5t0.5 89.5t1 113t1 112t0.5 87.5t0.5 38.5q1 87 -1 173.5t-5.5 170t-8.5 161t-11 145.5q-13 159 -30 304h276q9 -111 18 -239q4 -54 7.5 -117.5t7.5 -133.5t7 -144.5t6 -150.5q20 20 42.5 38.5t43.5 30.5q25 15 54 25.5t59 17t59 10t53 3.5 q103 0 187 -60q37 -26 70.5 -62.5t66.5 -85.5q18 -28 35 -69.5t31 -91.5t24 -107t16 -117q13 -133 -0.5 -242.5t-50.5 -175.5q-46 -81 -91.5 -135.5t-96.5 -87.5q-48 -32 -104 -46.5t-130 -15.5h-13q-61 0 -109 8t-97 36q-15 8 -27 17t-22 18l-1 -722h-316q12 230 23 446 q4 92 8.5 190t8 192.5t5.5 180.5t2 154zM463 407q3 -17 8 -29t15 -21.5t24.5 -19.5t36.5 -23q38 -23 74 -34.5t83 -11.5q40 1 71 12t56 31t45.5 48t39.5 63q22 41 30.5 99t7 119.5t-11 119.5t-23.5 97q-34 94 -79 142q-22 23 -45.5 35.5t-50.5 12.5q-80 0 -180 -84 q-14 -12 -32 -29t-33.5 -38t-26.5 -44.5t-12 -48.5z" />
<glyph unicode="&#xff;" horiz-adv-x="1341" d="M332 -686q-63 0 -118.5 21t-98.5 59l-11 10l39 258l39 -39q8 -6 17.5 -10.5t26 -7.5t42.5 -4.5t68 -1.5q26 0 41 3t24 11q13 12 18 25.5t13 31.5v2q7 19 22.5 65t35.5 105.5t42.5 126t42.5 126t35.5 106t22.5 65.5l-488 948h273l330 -620l215 620h270l-14 -38 q0 -2 -11 -35t-29.5 -89t-43.5 -130.5t-53.5 -159.5t-59 -175.5t-60 -179t-57 -170t-50 -147.5t-38.5 -113.5t-22 -66.5q-17 -51 -31 -94.5t-27 -83.5q-21 -65 -37 -115t-31 -88t-29 -65.5t-30 -47.5q-27 -32 -53.5 -52t-58.5 -31t-72 -15t-94 -4zM1151 1638 q0 -36 -13.5 -67.5t-37.5 -55.5t-55.5 -37.5t-67.5 -13.5t-67.5 13.5t-55.5 37.5t-37.5 55.5t-13.5 67.5t13.5 68t37.5 55.5t55.5 37t67.5 13.5t67.5 -13.5t55.5 -37t37.5 -55.5t13.5 -68zM647 1638q0 -36 -14 -67.5t-38 -55.5t-55.5 -37.5t-66.5 -13.5q-36 0 -68 13.5 t-56 37.5t-38 55.5t-14 67.5t14 68t38 55.5t56 37t68 13.5q35 0 66.5 -13.5t55.5 -37t38 -55.5t14 -68z" />
<glyph unicode="&#x100;" horiz-adv-x="2066" d="M1432 1942h-814v184h814v-184zM1190 1913h-309l-729 -1913h421l152 549h621l149 -549h418l-723 1915v-2zM799 842l235 731l232 -731h-467v0z" />
<glyph unicode="&#x101;" horiz-adv-x="1442" d="M1107 1402h-814v184h814v-184zM530 -43q-86 0 -157.5 27t-126.5 79q-57 54 -84 121q-16 34 -22.5 71t-4.5 77q3 59 12.5 102.5t26.5 77.5t39.5 57.5t48.5 46.5q59 51 123 79.5t141 39.5q50 8 112 9t118 1h53h41q31 0 42.5 5t14.5 8q5 5 5.5 16.5t0.5 24.5l2 63 q0 16 -2.5 34.5t-8.5 36t-16.5 32.5t-27.5 26q-32 22 -78.5 32.5t-105.5 10.5q-38 0 -66 -2.5t-48 -6t-33 -8.5t-21 -9q-28 -16 -39 -32.5t-14 -45.5l-2 -27h-254v31q0 21 4.5 50.5t18.5 61.5t40 64t68 59q66 42 154 63t190 21q202 0 348 -88q141 -86 141 -268l2 -661v-3 l127 -108l2 -119l-22 -6l-15 -5q-19 -6 -35 -9.5t-36 -5.5t-36.5 -2t-37.5 2q-60 5 -100 30t-62 76q-3 8 -6 15.5t-6 15.5l-29 -29t-34 -31.5t-37 -30t-37 -24.5q-30 -15 -63 -24t-67.5 -13.5t-70 -6t-70.5 -1.5zM629 555q-51 -3 -91.5 -16t-60.5 -33q-19 -19 -30 -35.5 t-17 -33t-7.5 -35.5t-2.5 -42q0 -18 5 -33t24 -30q13 -12 32.5 -18t41 -9t43 -3.5t38.5 -0.5h8q25 0 51.5 2.5t51.5 6.5t46.5 9.5t35.5 10.5q28 10 48 20t32.5 25t19 38t8.5 60l2 119h-108h-75q-29 0 -57 -0.5t-38 -1.5z" />
<glyph unicode="&#x102;" horiz-adv-x="2066" d="M1190 1915l723 -1915h-418l-149 549h-621l-152 -549h-421l729 1913h309v2zM799 842h467l-232 731zM1321 2281q0 -66 -16.5 -127t-52 -107.5t-90 -74.5t-129.5 -28t-129.5 29.5t-90 77t-52.5 108t-17 122.5h88q0 -42 14.5 -79t41 -65t63.5 -44.5t82 -16.5t81 15t62 42.5 t41 65t17 82.5h87z" />
<glyph unicode="&#x103;" horiz-adv-x="1442" d="M530 -43q-86 0 -157.5 27t-126.5 79q-57 54 -84 121q-16 34 -22.5 71t-4.5 77q3 59 12.5 102.5t26.5 77.5t39.5 57.5t48.5 46.5q59 51 123 79.5t141 39.5q50 8 112 9t118 1h53h41q31 0 42.5 5t14.5 8q5 5 5.5 16.5t0.5 24.5l2 63q0 16 -2.5 34.5t-8.5 36t-16.5 32.5 t-27.5 26q-32 22 -78.5 32.5t-105.5 10.5q-38 0 -66 -2.5t-48 -6t-33 -8.5t-21 -9q-28 -16 -39 -32.5t-14 -45.5l-2 -27h-254v31q0 21 4.5 50.5t18.5 61.5t40 64t68 59q66 42 154 63t190 21q202 0 348 -88q141 -86 141 -268l2 -661v-3l127 -108l2 -119l-22 -6l-15 -5 q-19 -6 -35 -9.5t-36 -5.5t-36.5 -2t-37.5 2q-60 5 -100 30t-62 76q-3 8 -6 15.5t-6 15.5l-29 -29t-34 -31.5t-37 -30t-37 -24.5q-30 -15 -63 -24t-67.5 -13.5t-70 -6t-70.5 -1.5zM629 555q-51 -3 -91.5 -16t-60.5 -33q-19 -19 -30 -35.5t-17 -33t-7.5 -35.5t-2.5 -42 q0 -18 5 -33t24 -30q13 -12 32.5 -18t41 -9t43 -3.5t38.5 -0.5h8q25 0 51.5 2.5t51.5 6.5t46.5 9.5t35.5 10.5q28 10 48 20t32.5 25t19 38t8.5 60l2 119h-108h-75q-29 0 -57 -0.5t-38 -1.5zM1009 1753q0 -66 -16.5 -127t-52 -107.5t-90 -74.5t-129.5 -28t-129.5 29.5t-90 77 t-52.5 108t-17 122.5h88q0 -42 14.5 -79t41 -65t63.5 -44.5t82 -16.5t81 15t62 42.5t41 65t17 82.5h87z" />
<glyph unicode="&#x104;" horiz-adv-x="2066" d="M1190 1915l723 -1915h-418l-149 549h-621l-152 -549h-421l729 1913h309v2zM799 842h467l-232 731zM1874 0v-138h-116q-31 0 -52 -21.5t-21 -51.5q0 -31 21 -52.5t52 -21.5h155v-150h-155q-47 0 -87.5 17.5t-71 48t-48 71t-17.5 87.5q0 36 11 69.5t31 61t47.5 48 t60.5 32.5h190z" />
<glyph unicode="&#x105;" horiz-adv-x="1442" d="M530 -43q-86 0 -157.5 27t-126.5 79q-57 54 -84 121q-16 34 -22.5 71t-4.5 77q3 59 12.5 102.5t26.5 77.5t39.5 57.5t48.5 46.5q59 51 123 79.5t141 39.5q50 8 112 9t118 1h53h41q31 0 42.5 5t14.5 8q5 5 5.5 16.5t0.5 24.5l2 63q0 16 -2.5 34.5t-8.5 36t-16.5 32.5 t-27.5 26q-32 22 -78.5 32.5t-105.5 10.5q-38 0 -66 -2.5t-48 -6t-33 -8.5t-21 -9q-28 -16 -39 -32.5t-14 -45.5l-2 -27h-254v31q0 21 4.5 50.5t18.5 61.5t40 64t68 59q66 42 154 63t190 21q202 0 348 -88q141 -86 141 -268l2 -661v-3l127 -108l2 -119l-22 -6l-15 -5 q-19 -6 -35 -9.5t-36 -5.5t-36.5 -2t-37.5 2q-60 5 -100 30t-62 76q-3 8 -6 15.5t-6 15.5l-29 -29t-34 -31.5t-37 -30t-37 -24.5q-30 -15 -63 -24t-67.5 -13.5t-70 -6t-70.5 -1.5zM629 555q-51 -3 -91.5 -16t-60.5 -33q-19 -19 -30 -35.5t-17 -33t-7.5 -35.5t-2.5 -42 q0 -18 5 -33t24 -30q13 -12 32.5 -18t41 -9t43 -3.5t38.5 -0.5h8q25 0 51.5 2.5t51.5 6.5t46.5 9.5t35.5 10.5q28 10 48 20t32.5 25t19 38t8.5 60l2 119h-108h-75q-29 0 -57 -0.5t-38 -1.5zM1255 0v-138h-116q-31 0 -52 -21.5t-21 -51.5q0 -31 21 -52.5t52 -21.5h155v-150 h-155q-47 0 -87.5 17.5t-71 48t-48 71t-17.5 87.5q0 36 11 69.5t31 61t47.5 48t60.5 32.5h190z" />
<glyph unicode="&#x106;" horiz-adv-x="2007" d="M1014 -25q-93 0 -177 17t-159 49q-78 34 -143 84t-119 115q-54 66 -96.5 143.5t-71.5 165.5q-29 90 -44.5 184t-15.5 191q0 239 58 417q29 93 73.5 171t104.5 147q57 66 128.5 118t156.5 87q80 34 166.5 50.5t179.5 16.5q313 0 510 -153q75 -59 124.5 -140.5t67.5 -175.5 l6 -35h-362l-4 23q-6 32 -22 59.5t-42 55.5q-46 45 -111 65.5t-165 20.5q-67 0 -131 -21t-120.5 -59.5t-102 -92.5t-74.5 -120q-18 -43 -32 -78t-23 -73t-13.5 -84.5t-5.5 -112.5q0 -64 10 -126.5t25 -118.5t32 -102t32 -76q15 -32 39.5 -69t67 -70t108.5 -56t165 -27h2 q45 0 88 4t79 10t62 13.5t38 15.5q24 17 40 46t19 66l2 27h442v-31q-2 -75 -21.5 -143.5t-60.5 -128.5q-35 -54 -81 -95.5t-99.5 -72t-112 -50.5t-118.5 -30q-78 -14 -156 -17.5t-143 -3.5zM1262 2500l190 -191l-393 -366l-164 166l367 391v0z" />
<glyph unicode="&#x107;" horiz-adv-x="1382" d="M686 -43q-130 0 -234 44t-173 128q-69 85 -105.5 201.5t-36.5 253.5q0 80 9.5 148t29.5 130q38 121 117 209q38 45 85.5 79.5t104.5 57.5q53 22 110.5 33.5t119.5 11.5q103 0 188 -25.5t150 -76.5q93 -71 133 -209l12 -39h-272l-6 19q-8 20 -15 36t-18 27 q-15 13 -31 24.5t-36 19.5t-45 13t-58 5q-45 0 -84.5 -13.5t-72.5 -37.5t-59 -57.5t-44 -74.5q-12 -27 -19.5 -48.5t-11.5 -44.5t-5 -52t-1 -72q0 -81 13 -144t42 -126l2 -4q13 -25 23.5 -43.5t31.5 -32.5q25 -16 66 -23.5t104 -7.5h19q65 0 100 4t47 11q16 8 25.5 15.5 t11.5 27.5l4 24h305v-29q0 -38 -13.5 -79.5t-41.5 -83.5q-20 -32 -47 -61.5t-53 -49.5q-42 -31 -87 -48.5t-92.5 -26.5t-95.5 -11t-96 -2zM910 1913l190 -191l-393 -366l-164 166l367 391v0z" />
<glyph unicode="&#x10c;" horiz-adv-x="2007" d="M1014 -25q-93 0 -177 17t-159 49q-78 34 -143 84t-119 115q-54 66 -96.5 143.5t-71.5 165.5q-29 90 -44.5 184t-15.5 191q0 239 58 417q29 93 73.5 171t104.5 147q57 66 128.5 118t156.5 87q80 34 166.5 50.5t179.5 16.5q313 0 510 -153q75 -59 124.5 -140.5t67.5 -175.5 l6 -35h-362l-4 23q-6 32 -22 59.5t-42 55.5q-46 45 -111 65.5t-165 20.5q-67 0 -131 -21t-120.5 -59.5t-102 -92.5t-74.5 -120q-18 -43 -32 -78t-23 -73t-13.5 -84.5t-5.5 -112.5q0 -64 10 -126.5t25 -118.5t32 -102t32 -76q15 -32 39.5 -69t67 -70t108.5 -56t165 -27h2 q45 0 88 4t79 10t62 13.5t38 15.5q24 17 40 46t19 66l2 27h442v-31q-2 -75 -21.5 -143.5t-60.5 -128.5q-35 -54 -81 -95.5t-99.5 -72t-112 -50.5t-118.5 -30q-78 -14 -156 -17.5t-143 -3.5zM735 2292l133 133l193 -199l197 199l133 -133l-329 -350l-327 350v0z" />
<glyph unicode="&#x10d;" horiz-adv-x="1382" d="M686 -43q-130 0 -234 44t-173 128q-69 85 -105.5 201.5t-36.5 253.5q0 80 9.5 148t29.5 130q38 121 117 209q38 45 85.5 79.5t104.5 57.5q53 22 110.5 33.5t119.5 11.5q103 0 188 -25.5t150 -76.5q93 -71 133 -209l12 -39h-272l-6 19q-8 20 -15 36t-18 27 q-15 13 -31 24.5t-36 19.5t-45 13t-58 5q-45 0 -84.5 -13.5t-72.5 -37.5t-59 -57.5t-44 -74.5q-12 -27 -19.5 -48.5t-11.5 -44.5t-5 -52t-1 -72q0 -81 13 -144t42 -126l2 -4q13 -25 23.5 -43.5t31.5 -32.5q25 -16 66 -23.5t104 -7.5h19q65 0 100 4t47 11q16 8 25.5 15.5 t11.5 27.5l4 24h305v-29q0 -38 -13.5 -79.5t-41.5 -83.5q-20 -32 -47 -61.5t-53 -49.5q-42 -31 -87 -48.5t-92.5 -26.5t-95.5 -11t-96 -2zM403 1780l133 133l193 -199l197 199l133 -133l-329 -350l-327 350v0z" />
<glyph unicode="&#x10e;" horiz-adv-x="1966" d="M254 1913h653q122 0 235.5 -34t212 -96.5t179.5 -149.5t139 -193t89.5 -228t31.5 -254q0 -198 -53.5 -370.5t-155.5 -302.5q-101 -136 -248 -207q-75 -38 -157.5 -57t-173.5 -21h-805zM586 348h325q118 0 218 46.5t173 129t113.5 196.5t40.5 249q0 90 -21 174t-59.5 158 t-92 134.5t-118.5 104.5t-139.5 68t-153.5 24h-321zM475 2291l133 133l193 -199l197 199l133 -133l-329 -350l-327 350v0z" />
<glyph unicode="&#x10f;" horiz-adv-x="2051" d="M647 -43h-2q-65 0 -111.5 15.5t-80.5 39.5t-58.5 54t-46.5 59l-4 4q-24 34 -52.5 84.5t-55.5 111t-50.5 129t-38.5 140.5q-18 81 -22.5 147t4.5 123q5 32 14.5 59t23 52t32 49t41.5 51q77 87 183.5 132.5t233.5 45.5q69 0 126 -15.5t110 -47.5q19 -11 39 -25.5t43 -36.5 l53 785h266l-55 -973v-39t0.5 -84t1 -110.5t1.5 -119t2.5 -108.5t4.5 -80t10.5 -68t17 -77.5t20 -78t19 -68.5t14 -48.5t5.5 -19.5l13 -39h-351v117q-29 -35 -62.5 -62.5t-68.5 -46.5q-52 -26 -104.5 -38.5t-114.5 -12.5zM678 1047q-12 0 -24 -1.5t-23 -3.5 q-77 -12 -127 -43t-88 -86q-21 -30 -26 -77t-0.5 -98t15.5 -99.5t23 -79.5q16 -44 28 -72t23 -50t24 -41.5t32 -45.5q18 -26 32 -42.5t35 -25.5t55 -12.5t93 -3.5q55 0 99 19.5t75 54.5q38 47 51 103.5t16 136.5q1 54 -3.5 102t-13 87.5t-19.5 69.5t-23 48 q-45 75 -111 117.5t-143 42.5zM1595 2320q42 0 79.5 -16t65.5 -43.5t44 -64.5t16 -79q0 -122 -5.5 -203.5t-16.5 -136t-28 -88.5t-40 -62q-26 -30 -59.5 -49.5t-62.5 -31.5q-35 -14 -70 -21l-25 133q40 9 68 27.5t51 46.5q12 17 20.5 35t13.5 40.5t7 50.5t2 66 q-11 -6 -28.5 -8t-31.5 -2q-41 0 -78 16t-64.5 43.5t-43.5 64.5t-16 79t16 79t43.5 64.5t64.5 43.5t78 16z" />
<glyph unicode="&#x112;" horiz-adv-x="1630" d="M1282 1942h-814v184h814v-184zM195 0l53 1913h1159v-281h-862l12 -471h680v-315h-670l13 -498h827v-348h-1212z" />
<glyph unicode="&#x113;" horiz-adv-x="1397" d="M1107 1402h-814v184h814v-184zM690 -43q-121 0 -216.5 38.5t-170.5 119.5q-168 175 -168 452q0 143 45 269q22 60 52.5 114t70.5 101q82 94 184 147q54 28 113 41.5t121 13.5q92 0 155 -19t101 -38q23 -11 49 -29t50.5 -40.5t47 -49.5t37.5 -55q25 -45 48 -97.5 t34 -117.5v-2q12 -110 -53 -184q-42 -48 -114 -74t-171 -29l-477 -29q5 -35 17 -73t36 -66q15 -18 31 -33t38.5 -26.5t54.5 -18t79 -6.5h6q34 1 68.5 1.5t64 2t52.5 4t36 7.5t22.5 13t12.5 30l2 24h307v-26q-2 -48 -15.5 -92t-41.5 -83q-25 -34 -52 -57.5t-50 -40.5 q-29 -22 -59 -37t-58 -24.5t-53.5 -14.5t-46.5 -8q-39 -6 -90.5 -7t-98.5 -1zM727 1047q-37 0 -68 -9t-58 -25t-50.5 -36.5t-44.5 -44.5q-35 -37 -57.5 -93t-28.5 -122l463 22q13 1 28 3t28.5 7t25 12.5t18.5 18.5q25 46 -14 129q-19 40 -47.5 66.5t-61.5 42.5t-67.5 22.5 t-65.5 6.5z" />
<glyph unicode="&#x116;" horiz-adv-x="1630" d="M195 0l53 1913h1159v-281h-862l12 -471h680v-315h-670l13 -498h827v-348h-1212zM816 1943q-38 0 -71.5 14t-58.5 39t-39.5 58t-14.5 71q0 37 14.5 70.5t39.5 59t58.5 40t71.5 14.5t71 -14.5t58 -40t39 -59t14 -70.5q0 -38 -14 -71t-38.5 -58t-58 -39t-71.5 -14z" />
<glyph unicode="&#x117;" horiz-adv-x="1397" d="M690 -43q-121 0 -216.5 38.5t-170.5 119.5q-168 175 -168 452q0 143 45 269q22 60 52.5 114t70.5 101q82 94 184 147q54 28 113 41.5t121 13.5q92 0 155 -19t101 -38q23 -11 49 -29t50.5 -40.5t47 -49.5t37.5 -55q25 -45 48 -97.5t34 -117.5v-2q12 -110 -53 -184 q-42 -48 -114 -74t-171 -29l-477 -29q5 -35 17 -73t36 -66q15 -18 31 -33t38.5 -26.5t54.5 -18t79 -6.5h6q34 1 68.5 1.5t64 2t52.5 4t36 7.5t22.5 13t12.5 30l2 24h307v-26q-2 -48 -15.5 -92t-41.5 -83q-25 -34 -52 -57.5t-50 -40.5q-29 -22 -59 -37t-58 -24.5t-53.5 -14.5 t-46.5 -8q-39 -6 -90.5 -7t-98.5 -1zM727 1047q-37 0 -68 -9t-58 -25t-50.5 -36.5t-44.5 -44.5q-35 -37 -57.5 -93t-28.5 -122l463 22q13 1 28 3t28.5 7t25 12.5t18.5 18.5q25 46 -14 129q-19 40 -47.5 66.5t-61.5 42.5t-67.5 22.5t-65.5 6.5zM699 1497q-38 0 -71.5 14 t-58.5 39t-39.5 58t-14.5 71q0 37 14.5 70.5t39.5 59t58.5 40t71.5 14.5t71 -14.5t58 -40t39 -59t14 -70.5q0 -38 -14 -71t-38.5 -58t-58 -39t-71.5 -14z" />
<glyph unicode="&#x118;" horiz-adv-x="1630" d="M195 0l53 1913h1159v-281h-862l12 -471h680v-315h-670l13 -498h827v-348h-1212zM988 0v-138h-116q-31 0 -52 -21.5t-21 -51.5q0 -31 21 -52.5t52 -21.5h155v-150h-155q-47 0 -87.5 17.5t-71 48t-48 71t-17.5 87.5q0 36 11 69.5t31 61t47.5 48t60.5 32.5h190z" />
<glyph unicode="&#x119;" horiz-adv-x="1397" d="M690 -43q-121 0 -216.5 38.5t-170.5 119.5q-168 175 -168 452q0 143 45 269q22 60 52.5 114t70.5 101q82 94 184 147q54 28 113 41.5t121 13.5q92 0 155 -19t101 -38q23 -11 49 -29t50.5 -40.5t47 -49.5t37.5 -55q25 -45 48 -97.5t34 -117.5v-2q12 -110 -53 -184 q-42 -48 -114 -74t-171 -29l-477 -29q5 -35 17 -73t36 -66q15 -18 31 -33t38.5 -26.5t54.5 -18t79 -6.5h6q34 1 68.5 1.5t64 2t52.5 4t36 7.5t22.5 13t12.5 30l2 24h307v-26q-2 -48 -15.5 -92t-41.5 -83q-25 -34 -52 -57.5t-50 -40.5q-29 -22 -59 -37t-58 -24.5t-53.5 -14.5 t-46.5 -8q-39 -6 -90.5 -7t-98.5 -1zM727 1047q-37 0 -68 -9t-58 -25t-50.5 -36.5t-44.5 -44.5q-35 -37 -57.5 -93t-28.5 -122l463 22q13 1 28 3t28.5 7t25 12.5t18.5 18.5q25 46 -14 129q-19 40 -47.5 66.5t-61.5 42.5t-67.5 22.5t-65.5 6.5zM856 -35v-138h-116 q-31 0 -52 -21.5t-21 -51.5q0 -31 21 -52.5t52 -21.5h155v-150h-155q-47 0 -87.5 17.5t-71 48t-48 71t-17.5 87.5q0 36 11 69.5t31 61t47.5 48t60.5 32.5h190z" />
<glyph unicode="&#x11a;" horiz-adv-x="1630" d="M195 0l53 1913h1159v-281h-862l12 -471h680v-315h-670l13 -498h827v-348h-1212zM487 2292l133 133l193 -199l197 199l133 -133l-329 -350l-327 350v0z" />
<glyph unicode="&#x11b;" horiz-adv-x="1397" d="M690 -43q-121 0 -216.5 38.5t-170.5 119.5q-168 175 -168 452q0 143 45 269q22 60 52.5 114t70.5 101q82 94 184 147q54 28 113 41.5t121 13.5q92 0 155 -19t101 -38q23 -11 49 -29t50.5 -40.5t47 -49.5t37.5 -55q25 -45 48 -97.5t34 -117.5v-2q12 -110 -53 -184 q-42 -48 -114 -74t-171 -29l-477 -29q5 -35 17 -73t36 -66q15 -18 31 -33t38.5 -26.5t54.5 -18t79 -6.5h6q34 1 68.5 1.5t64 2t52.5 4t36 7.5t22.5 13t12.5 30l2 24h307v-26q-2 -48 -15.5 -92t-41.5 -83q-25 -34 -52 -57.5t-50 -40.5q-29 -22 -59 -37t-58 -24.5t-53.5 -14.5 t-46.5 -8q-39 -6 -90.5 -7t-98.5 -1zM727 1047q-37 0 -68 -9t-58 -25t-50.5 -36.5t-44.5 -44.5q-35 -37 -57.5 -93t-28.5 -122l463 22q13 1 28 3t28.5 7t25 12.5t18.5 18.5q25 46 -14 129q-19 40 -47.5 66.5t-61.5 42.5t-67.5 22.5t-65.5 6.5zM371 1780l133 133l193 -199 l197 199l133 -133l-329 -350l-327 350v0z" />
<glyph unicode="&#x11e;" horiz-adv-x="2077" d="M1012 -25q-93 0 -177 17t-159 49q-78 34 -143 84t-119 115q-54 68 -96.5 144.5t-71.5 166.5q-29 88 -44.5 182t-15.5 191q0 238 58 419q59 182 178 316q57 68 128.5 119t156.5 88q80 34 167 49.5t181 15.5q152 0 280 -37t228 -114q68 -54 117.5 -132t80.5 -184l11 -37 h-369l-8 19q-14 35 -29 60t-38 45q-20 18 -45 36t-58 32.5t-74.5 23t-95.5 8.5q-67 0 -130.5 -21t-119 -59.5t-101 -92t-75.5 -118.5q-20 -44 -34.5 -79t-23.5 -73.5t-13 -85t-5 -112.5q0 -64 12 -129t28.5 -122.5t35 -102t30.5 -66.5q19 -35 42.5 -75t64 -74.5t104.5 -58.5 t164 -26h10q55 0 96.5 3t76.5 10.5t67.5 21.5t68.5 35q15 9 31 21.5t30.5 31t25 43.5t14.5 58h-285v325h676l31 -930h-360l8 175q-22 -25 -47 -47t-56 -42q-66 -45 -164.5 -65.5t-244.5 -20.5zM1349 2278q0 -66 -16.5 -127t-52 -107.5t-90 -74.5t-129.5 -28t-129.5 29.5 t-90 77t-52.5 108t-17 122.5h88q0 -42 14.5 -79t41 -65t63.5 -44.5t82 -16.5t81 15t62 42.5t41 65t17 82.5h87z" />
<glyph unicode="&#x11f;" horiz-adv-x="1389" d="M627 -686h-2q-72 0 -119.5 4t-82.5 13.5t-64.5 25.5t-63.5 41q-32 23 -57 55t-43 70q-44 89 -56 225l-2 43l309 -92l5 -16q5 -19 9 -29.5t7.5 -16.5t8 -9t11.5 -7q20 -12 57 -17t99 -5q39 0 78 3t72.5 15t61 35t44.5 63q4 9 8 29.5t8 58t6.5 96t2.5 144.5 q-8 -8 -17 -16.5t-20 -16.5q-47 -37 -106.5 -54t-133.5 -17q-100 0 -191.5 37.5t-168.5 111.5q-162 154 -162 467q0 84 6.5 153.5t20.5 129.5q17 71 42 125.5t62 97.5q38 45 81 79.5t89 59.5q103 56 209 53q53 -1 90 -5t65 -10.5t49.5 -16t43.5 -21.5q17 -11 40.5 -32 t43.5 -46l34 92h271l-15 -38q0 -1 -8.5 -26t-18 -62.5t-18 -81t-8.5 -80.5q0 -11 -0.5 -51.5t-1 -99.5t-1 -130.5t-1 -144.5t-1 -142t-1 -123.5t-0.5 -88.5v-37q0 -112 -4 -194.5t-12 -147.5q-10 -75 -25.5 -129.5t-38.5 -98.5q-68 -124 -190 -176q-59 -25 -131.5 -37 t-169.5 -12zM684 1049q-96 0 -156.5 -41t-95.5 -129q-5 -14 -10.5 -43t-9 -66.5t-4.5 -81.5t2 -88q6 -104 22.5 -167.5t48.5 -98.5q29 -35 69 -50.5t105 -15.5h9q60 1 98 8.5t62.5 20.5t40.5 31t32 41q11 15 20 33.5t15.5 45.5t10.5 64t5 88q9 257 -59 334q-97 115 -205 115 zM933 1753q0 -66 -16.5 -127t-52 -107.5t-90 -74.5t-129.5 -28t-129.5 29.5t-90 77t-52.5 108t-17 122.5h88q0 -42 14.5 -79t41 -65t63.5 -44.5t82 -16.5t81 15t62 42.5t41 65t17 82.5h87z" />
<glyph unicode="&#x122;" horiz-adv-x="2077" d="M1012 -25q-93 0 -177 17t-159 49q-78 34 -143 84t-119 115q-54 68 -96.5 144.5t-71.5 166.5q-29 88 -44.5 182t-15.5 191q0 238 58 419q59 182 178 316q57 68 128.5 119t156.5 88q80 34 167 49.5t181 15.5q152 0 280 -37t228 -114q68 -54 117.5 -132t80.5 -184l11 -37 h-369l-8 19q-14 35 -29 60t-38 45q-20 18 -45 36t-58 32.5t-74.5 23t-95.5 8.5q-67 0 -130.5 -21t-119 -59.5t-101 -92t-75.5 -118.5q-20 -44 -34.5 -79t-23.5 -73.5t-13 -85t-5 -112.5q0 -64 12 -129t28.5 -122.5t35 -102t30.5 -66.5q19 -35 42.5 -75t64 -74.5t104.5 -58.5 t164 -26h10q55 0 96.5 3t76.5 10.5t67.5 21.5t68.5 35q15 9 31 21.5t30.5 31t25 43.5t14.5 58h-285v325h676l31 -930h-360l8 175q-22 -25 -47 -47t-56 -42q-66 -45 -164.5 -65.5t-244.5 -20.5zM1073.2 -71.418q30.9033 0 58.127 -11.7734t47.0898 -32.0098 q19.8662 -20.2354 31.6387 -47.4609q11.7725 -27.2266 11.7725 -58.1318q0 -89.7725 -3.67871 -149.743q-3.67969 -59.9707 -11.7725 -100.074q-8.09375 -40.1035 -20.6025 -65.1221q-12.5078 -25.0186 -30.166 -45.6221q-19.1309 -22.0752 -43.0439 -36.792 q-23.9121 -14.7168 -45.9854 -22.8115q-25.7529 -10.3008 -52.2402 -15.4521l-16.9238 96.3955q27.96 8.09375 48.5615 21.707q20.6025 13.6133 38.9971 34.2168q8.8291 12.5088 15.083 25.7539t9.93262 29.8018q3.67969 16.5557 5.15039 37.1592 q1.47168 20.6035 1.47168 48.5664q-8.09277 -4.41602 -21.3369 -5.88672q-13.2441 -1.47266 -22.0742 -1.47266q-30.9023 0 -58.126 11.7734t-47.458 32.0098q-20.2334 20.2354 -32.0059 47.4609q-11.7725 27.2266 -11.7725 58.1318t11.7725 58.1318 q11.7725 27.2256 32.0059 47.4609q20.2344 20.2363 47.458 32.0098t58.126 11.7734z" />
<glyph unicode="&#x123;" horiz-adv-x="1389" d="M663 1326q-31 0 -58 12t-47.5 32t-32 47.5t-11.5 59.5q0 90 4 150t12 100t21 65.5t30 45.5q18 23 42.5 37t46.5 23q26 10 53 16l17 -99q-29 -6 -49 -19.5t-38 -34.5q-10 -12 -16.5 -25.5t-10 -30t-5 -38t-1.5 -49.5q9 5 22 6.5t21 1.5q31 0 59 -12t48 -32t32 -47t12 -58 q0 -32 -12 -59.5t-32 -47.5t-48 -32t-59 -12zM627 -686h-2q-72 0 -119.5 4t-82.5 13.5t-64.5 25.5t-63.5 41q-32 23 -57 55t-43 70q-44 89 -56 225l-2 43l309 -92l5 -16q5 -19 9 -29.5t7.5 -16.5t8 -9t11.5 -7q20 -12 57 -17t99 -5q39 0 78 3t72.5 15t61 35t44.5 63 q4 9 8 29.5t8 58t6.5 96t2.5 144.5q-8 -8 -17 -16.5t-20 -16.5q-47 -37 -106.5 -54t-133.5 -17q-100 0 -191.5 37.5t-168.5 111.5q-162 154 -162 467q0 84 6.5 153.5t20.5 129.5q17 71 42 125.5t62 97.5q38 45 81 79.5t89 59.5q103 56 209 53q53 -1 90 -5t65 -10.5t49.5 -16 t43.5 -21.5q17 -11 40.5 -32t43.5 -46l34 92h271l-15 -38q0 -1 -8.5 -26t-18 -62.5t-18 -81t-8.5 -80.5q0 -11 -0.5 -51.5t-1 -99.5t-1 -130.5t-1 -144.5t-1 -142t-1 -123.5t-0.5 -88.5v-37q0 -112 -4 -194.5t-12 -147.5q-10 -75 -25.5 -129.5t-38.5 -98.5 q-68 -124 -190 -176q-59 -25 -131.5 -37t-169.5 -12zM684 1049q-96 0 -156.5 -41t-95.5 -129q-5 -14 -10.5 -43t-9 -66.5t-4.5 -81.5t2 -88q6 -104 22.5 -167.5t48.5 -98.5q29 -35 69 -50.5t105 -15.5h9q60 1 98 8.5t62.5 20.5t40.5 31t32 41q11 15 20 33.5t15.5 45.5 t10.5 64t5 88q9 257 -59 334q-97 115 -205 115z" />
<glyph unicode="&#x12a;" horiz-adv-x="795" d="M777 1942h-754v184h754v-184zM199 0l53 1913h289l53 -1913h-395z" />
<glyph unicode="&#x12b;" horiz-adv-x="700" d="M508 0h-315l26 1214h262l27 -1214v0v0zM667 1402h-644v184h644v-184z" />
<glyph unicode="&#x12e;" horiz-adv-x="795" d="M199 0l53 1913h289l53 -1913h-395zM525 0v-138h-116q-31 0 -52 -21.5t-21 -51.5q0 -31 21 -52.5t52 -21.5h155v-150h-155q-47 0 -87.5 17.5t-71 48t-48 71t-17.5 87.5q0 36 11 69.5t31 61t47.5 48t60.5 32.5h190z" />
<glyph unicode="&#x12f;" horiz-adv-x="700" d="M350 1498q-38 0 -71.5 14t-58.5 39t-39.5 58t-14.5 71q0 37 14.5 70.5t39.5 59t58.5 40t71.5 14.5t71 -14.5t58 -40t39 -59t14 -70.5q0 -38 -14 -71t-38.5 -58t-58 -39t-71.5 -14zM508 0h-315l26 1214h262zM471 0v-138h-116q-31 0 -52 -21.5t-21 -51.5q0 -31 21 -52.5 t52 -21.5h155v-150h-155q-47 0 -87.5 17.5t-71 48t-48 71t-17.5 87.5q0 36 11 69.5t31 61t47.5 48t60.5 32.5h190z" />
<glyph unicode="&#x130;" horiz-adv-x="795" d="M199 0l53 1873h289l53 -1873h-395zM399 1981q-38 0 -71.5 14t-58.5 39t-39.5 58t-14.5 71q0 37 14.5 70.5t39.5 59t58.5 40t71.5 14.5t71 -14.5t58 -40t39 -59t14 -70.5q0 -38 -14 -71t-38.5 -58t-58 -39t-71.5 -14z" />
<glyph unicode="&#x131;" horiz-adv-x="700" d="M508 0h-315l26 1214h262l27 -1214v0v0z" />
<glyph unicode="&#x136;" horiz-adv-x="1806" d="M195 0l55 1913h295l12 -694l645 694h363l-764 -854l807 -926v-133h-412l-625 788l39 -788h-415zM803.197 -71.418q30.9033 0 58.127 -11.7734t47.0898 -32.0098q19.8662 -20.2354 31.6387 -47.4609q11.7725 -27.2266 11.7725 -58.1318q0 -89.7725 -3.67871 -149.743 q-3.67969 -59.9707 -11.7725 -100.074q-8.09375 -40.1035 -20.6025 -65.1221q-12.5078 -25.0186 -30.166 -45.6221q-19.1309 -22.0752 -43.0439 -36.792q-23.9121 -14.7168 -45.9854 -22.8115q-25.7529 -10.3008 -52.2402 -15.4521l-16.9238 96.3955 q27.96 8.09375 48.5615 21.707q20.6025 13.6133 38.9971 34.2168q8.8291 12.5088 15.083 25.7539t9.93262 29.8018q3.67969 16.5557 5.15039 37.1592q1.47168 20.6035 1.47168 48.5664q-8.09277 -4.41602 -21.3369 -5.88672q-13.2441 -1.47266 -22.0742 -1.47266 q-30.9023 0 -58.126 11.7734t-47.458 32.0098q-20.2334 20.2354 -32.0059 47.4609q-11.7725 27.2266 -11.7725 58.1318t11.7725 58.1318q11.7725 27.2256 32.0059 47.4609q20.2344 20.2363 47.458 32.0098t58.126 11.7734z" />
<glyph unicode="&#x137;" horiz-adv-x="1303" d="M1165 0h-301l-432 502l10 -502h-319v29q0 2 1 53t3 131.5t4.5 181t4.5 201t4 191.5t3 153v31q0 42 1.5 102t5.5 131q2 71 5.5 149t6.5 153.5t6 143.5t5 120t3.5 82.5t1.5 31.5v29h268l-2 -31q0 -1 -2 -36t-5 -91t-7 -128t-7 -147.5t-5 -148t-2 -129.5q0 -32 0.5 -68.5 t1.5 -73t2 -70.5t2 -60l346 284h375l-574 -477l598 -610zM623.197 -71.418q30.9033 0 58.127 -11.7734t47.0898 -32.0098q19.8662 -20.2354 31.6387 -47.4609q11.7725 -27.2266 11.7725 -58.1318q0 -89.7725 -3.67871 -149.743q-3.67969 -59.9707 -11.7725 -100.074 q-8.09375 -40.1035 -20.6025 -65.1221q-12.5078 -25.0186 -30.166 -45.6221q-19.1309 -22.0752 -43.0439 -36.792q-23.9121 -14.7168 -45.9854 -22.8115q-25.7529 -10.3008 -52.2402 -15.4521l-16.9238 96.3955q27.96 8.09375 48.5615 21.707 q20.6025 13.6133 38.9971 34.2168q8.8291 12.5088 15.083 25.7539t9.93262 29.8018q3.67969 16.5557 5.15039 37.1592q1.47168 20.6035 1.47168 48.5664q-8.09277 -4.41602 -21.3369 -5.88672q-13.2441 -1.47266 -22.0742 -1.47266q-30.9023 0 -58.126 11.7734 t-47.458 32.0098q-20.2334 20.2354 -32.0059 47.4609q-11.7725 27.2266 -11.7725 58.1318t11.7725 58.1318q11.7725 27.2256 32.0059 47.4609q20.2344 20.2363 47.458 32.0098t58.126 11.7734z" />
<glyph unicode="&#x139;" horiz-adv-x="1501" d="M190 0l54 1915l288 -2l43 -1565h629l105 -145v-203h-1119zM611 2500l190 -191l-393 -366l-164 166l367 391v0z" />
<glyph unicode="&#x13a;" horiz-adv-x="854" d="M289 0q-35 0 -67 14.5t-54 40.5q-17 22 -27 46t-12 59v82q2 2 2 33.5t2 80.5q1 53 2.5 123t3 148t3.5 159.5t4 158t4 143t4 114.5q1 61 2.5 135.5t2.5 150t2 146.5t1.5 126t1 89t0.5 35v29h266v-29q0 -1 0.5 -34.5t0.5 -89t0.5 -126t-0.5 -146t-2.5 -150t-4.5 -136.5 q-2 -47 -3 -110.5t-2 -135.5t-1 -148v-148q0 -169 2 -353q0 -15 0.5 -22.5t3.5 -12.5q5 -8 27 -8h127l106 -264h-395zM516 2500l190 -191l-393 -366l-164 166l367 391v0z" />
<glyph unicode="&#x13b;" horiz-adv-x="1501" d="M190 0l54 1915l288 -2l43 -1565h629l105 -145v-203h-1119zM693.197 -71.418q30.9033 0 58.127 -11.7734t47.0898 -32.0098q19.8662 -20.2354 31.6387 -47.4609q11.7725 -27.2266 11.7725 -58.1318q0 -89.7725 -3.67871 -149.743q-3.67969 -59.9707 -11.7725 -100.074 q-8.09375 -40.1035 -20.6025 -65.1221q-12.5078 -25.0186 -30.166 -45.6221q-19.1309 -22.0752 -43.0439 -36.792q-23.9121 -14.7168 -45.9854 -22.8115q-25.7529 -10.3008 -52.2402 -15.4521l-16.9238 96.3955q27.96 8.09375 48.5615 21.707 q20.6025 13.6133 38.9971 34.2168q8.8291 12.5088 15.083 25.7539t9.93262 29.8018q3.67969 16.5557 5.15039 37.1592q1.47168 20.6035 1.47168 48.5664q-8.09277 -4.41602 -21.3369 -5.88672q-13.2441 -1.47266 -22.0742 -1.47266q-30.9023 0 -58.126 11.7734 t-47.458 32.0098q-20.2334 20.2354 -32.0059 47.4609q-11.7725 27.2266 -11.7725 58.1318t11.7725 58.1318q11.7725 27.2256 32.0059 47.4609q20.2344 20.2363 47.458 32.0098t58.126 11.7734z" />
<glyph unicode="&#x13c;" horiz-adv-x="854" d="M289 0q-35 0 -67 14.5t-54 40.5q-17 22 -27 46t-12 59v82q2 2 2 33.5t2 80.5q1 53 2.5 123t3 148t3.5 159.5t4 158t4 143t4 114.5q1 61 2.5 135.5t2.5 150t2 146.5t1.5 126t1 89t0.5 35v29h266v-29q0 -1 0.5 -34.5t0.5 -89t0.5 -126t-0.5 -146t-2.5 -150t-4.5 -136.5 q-2 -47 -3 -110.5t-2 -135.5t-1 -148v-148q0 -169 2 -353q0 -15 0.5 -22.5t3.5 -12.5q5 -8 27 -8h127l106 -264h-395zM463.197 -71.418q30.9033 0 58.127 -11.7734t47.0898 -32.0098q19.8662 -20.2354 31.6387 -47.4609q11.7725 -27.2266 11.7725 -58.1318 q0 -89.7725 -3.67871 -149.743q-3.67969 -59.9707 -11.7725 -100.074q-8.09375 -40.1035 -20.6025 -65.1221q-12.5078 -25.0186 -30.166 -45.6221q-19.1309 -22.0752 -43.0439 -36.792q-23.9121 -14.7168 -45.9854 -22.8115q-25.7529 -10.3008 -52.2402 -15.4521 l-16.9238 96.3955q27.96 8.09375 48.5615 21.707q20.6025 13.6133 38.9971 34.2168q8.8291 12.5088 15.083 25.7539t9.93262 29.8018q3.67969 16.5557 5.15039 37.1592q1.47168 20.6035 1.47168 48.5664q-8.09277 -4.41602 -21.3369 -5.88672 q-13.2441 -1.47266 -22.0742 -1.47266q-30.9023 0 -58.126 11.7734t-47.458 32.0098q-20.2334 20.2354 -32.0059 47.4609q-11.7725 27.2266 -11.7725 58.1318t11.7725 58.1318q11.7725 27.2256 32.0059 47.4609q20.2344 20.2363 47.458 32.0098t58.126 11.7734z" />
<glyph unicode="&#x13d;" horiz-adv-x="1501" d="M190 0l54 1915l288 -2l43 -1565h629l105 -145v-203h-1119zM749 2263q42 0 79.5 -16t65.5 -43.5t44 -64.5t16 -79q0 -122 -5.5 -203.5t-16.5 -136t-28 -88.5t-40 -62q-26 -30 -59.5 -49.5t-62.5 -31.5q-35 -14 -70 -21l-25 133q40 9 68 27.5t51 46.5q12 17 20.5 35 t13.5 40.5t7 50.5t2 66q-11 -6 -28.5 -8t-31.5 -2q-41 0 -78 16t-64.5 43.5t-43.5 64.5t-16 79t16 79t43.5 64.5t64.5 43.5t78 16z" />
<glyph unicode="&#x13e;" horiz-adv-x="1300" d="M289 0q-35 0 -67 14.5t-54 40.5q-17 22 -27 46t-12 59v82q2 2 2 33.5t2 80.5q1 53 2.5 123t3 148t3.5 159.5t4 158t4 143t4 114.5q1 61 2.5 135.5t2.5 150t2 146.5t1.5 126t1 89t0.5 35v29h266v-29q0 -1 0.5 -34.5t0.5 -89t0.5 -126t-0.5 -146t-2.5 -150t-4.5 -136.5 q-2 -47 -3 -110.5t-2 -135.5t-1 -148v-148q0 -169 2 -353q0 -15 0.5 -22.5t3.5 -12.5q5 -8 27 -8h127l106 -264h-395zM856 2263q42 0 79.5 -16t65.5 -43.5t44 -64.5t16 -79q0 -122 -5.5 -203.5t-16.5 -136t-28 -88.5t-40 -62q-26 -30 -59.5 -49.5t-62.5 -31.5 q-35 -14 -70 -21l-25 133q40 9 68 27.5t51 46.5q12 17 20.5 35t13.5 40.5t7 50.5t2 66q-11 -6 -28.5 -8t-31.5 -2q-41 0 -78 16t-64.5 43.5t-43.5 64.5t-16 79t16 79t43.5 64.5t64.5 43.5t78 16z" />
<glyph unicode="&#x141;" horiz-adv-x="1520" d="M1316 348l104 -147v-201h-1119l16 595l-231 -134v285l239 139l29 1029h289l22 -832l298 172v-285l-289 -168l12 -453h630v0z" />
<glyph unicode="&#x142;" horiz-adv-x="1099" d="M641 782q-1 -91 -0.5 -176t0.5 -151q0 -77 1 -146q0 -16 1 -23.5t4 -12.5q3 -7 26 -7h126l108 -266h-395q-35 0 -68 15.5t-54 42.5q-17 20 -27 43.5t-11 58.5v82v1q0 2 0.5 33.5t2.5 81.5q1 51 2.5 119t3.5 143l-275 -159v285l282 164q2 87 3.5 163t3.5 130q2 61 3.5 135 t3 149.5t2.5 146.5t1.5 126.5t1 89.5t0.5 36v28h266v-28q0 -2 0.5 -36t0.5 -89v-126t-0.5 -146.5t-2 -149.5t-4.5 -136q-1 -28 -1.5 -62t-1.5 -73l320 186v-285z" />
<glyph unicode="&#x143;" horiz-adv-x="2013" d="M1380 0l-798 1319l32 -1319h-415l57 1913h301l879 -1317l30 1085l170 232h125l54 -1913h-435zM1235 2500l190 -191l-393 -366l-164 166l367 391v0z" />
<glyph unicode="&#x144;" horiz-adv-x="1413" d="M1249 0h-315l2 31q4 141 7.5 245.5t5.5 180.5t2.5 127t1 83.5t0 50t-0.5 27.5v15q0 66 -2.5 104.5t-11.5 61.5q-9 21 -21.5 42.5t-31 39t-46.5 28.5t-69 11q-14 0 -30 -5t-32 -12t-30 -15.5t-23 -15.5q-17 -11 -31.5 -22.5t-29.5 -25.5t-31 -31t-35 -39 q-21 -25 -31.5 -49.5t-21.5 -59.5q-5 -15 -7.5 -31t-4 -34t-1.5 -39.5t1 -49.5q0 -14 0.5 -46t1.5 -75.5t2.5 -94.5t2.5 -102.5t2.5 -99.5t2.5 -85t1.5 -60t0.5 -24l2 -31h-317l2 31q0 1 2 35.5t5 90.5t6.5 128.5t7.5 151t7.5 156.5t6 145.5t4 119t0.5 76.5q-1 31 -4 74 t-6.5 82t-6 66t-2.5 28l-4 30h264l9 -131q13 18 29 36t33 34t35 29.5t36 21.5q49 25 105 37t116 12q130 0 221 -49.5t139 -146.5q25 -48 37.5 -116.5t14.5 -170.5q0 -23 1.5 -66.5t4 -99.5t5 -119.5l5 -127t5.5 -122t5 -103.5t3 -72.5t1 -28.5v-31zM795 1913l190 -191 l-393 -366l-164 166l367 391v0z" />
<glyph unicode="&#x145;" horiz-adv-x="2013" d="M1380 0l-798 1319l32 -1319h-415l57 1913h301l879 -1317l30 1085l170 232h125l54 -1913h-435zM1093.2 -71.418q30.9033 0 58.127 -11.7734t47.0898 -32.0098q19.8662 -20.2354 31.6387 -47.4609q11.7725 -27.2266 11.7725 -58.1318q0 -89.7725 -3.67871 -149.743 q-3.67969 -59.9707 -11.7725 -100.074q-8.09375 -40.1035 -20.6025 -65.1221q-12.5078 -25.0186 -30.166 -45.6221q-19.1309 -22.0752 -43.0439 -36.792q-23.9121 -14.7168 -45.9854 -22.8115q-25.7529 -10.3008 -52.2402 -15.4521l-16.9238 96.3955 q27.96 8.09375 48.5615 21.707q20.6025 13.6133 38.9971 34.2168q8.8291 12.5088 15.083 25.7539t9.93262 29.8018q3.67969 16.5557 5.15039 37.1592q1.47168 20.6035 1.47168 48.5664q-8.09277 -4.41602 -21.3369 -5.88672q-13.2441 -1.47266 -22.0742 -1.47266 q-30.9023 0 -58.126 11.7734t-47.458 32.0098q-20.2334 20.2354 -32.0059 47.4609q-11.7725 27.2266 -11.7725 58.1318t11.7725 58.1318q11.7725 27.2256 32.0059 47.4609q20.2344 20.2363 47.458 32.0098t58.126 11.7734z" />
<glyph unicode="&#x146;" horiz-adv-x="1413" d="M1249 0h-315l2 31q4 141 7.5 245.5t5.5 180.5t2.5 127t1 83.5t0 50t-0.5 27.5v15q0 66 -2.5 104.5t-11.5 61.5q-9 21 -21.5 42.5t-31 39t-46.5 28.5t-69 11q-14 0 -30 -5t-32 -12t-30 -15.5t-23 -15.5q-17 -11 -31.5 -22.5t-29.5 -25.5t-31 -31t-35 -39 q-21 -25 -31.5 -49.5t-21.5 -59.5q-5 -15 -7.5 -31t-4 -34t-1.5 -39.5t1 -49.5q0 -14 0.5 -46t1.5 -75.5t2.5 -94.5t2.5 -102.5t2.5 -99.5t2.5 -85t1.5 -60t0.5 -24l2 -31h-317l2 31q0 1 2 35.5t5 90.5t6.5 128.5t7.5 151t7.5 156.5t6 145.5t4 119t0.5 76.5q-1 31 -4 74 t-6.5 82t-6 66t-2.5 28l-4 30h264l9 -131q13 18 29 36t33 34t35 29.5t36 21.5q49 25 105 37t116 12q130 0 221 -49.5t139 -146.5q25 -48 37.5 -116.5t14.5 -170.5q0 -23 1.5 -66.5t4 -99.5t5 -119.5l5 -127t5.5 -122t5 -103.5t3 -72.5t1 -28.5v-31zM713.197 -71.418 q30.9033 0 58.127 -11.7734t47.0898 -32.0098q19.8662 -20.2354 31.6387 -47.4609q11.7725 -27.2266 11.7725 -58.1318q0 -89.7725 -3.67871 -149.743q-3.67969 -59.9707 -11.7725 -100.074q-8.09375 -40.1035 -20.6025 -65.1221q-12.5078 -25.0186 -30.166 -45.6221 q-19.1309 -22.0752 -43.0439 -36.792q-23.9121 -14.7168 -45.9854 -22.8115q-25.7529 -10.3008 -52.2402 -15.4521l-16.9238 96.3955q27.96 8.09375 48.5615 21.707q20.6025 13.6133 38.9971 34.2168q8.8291 12.5088 15.083 25.7539t9.93262 29.8018 q3.67969 16.5557 5.15039 37.1592q1.47168 20.6035 1.47168 48.5664q-8.09277 -4.41602 -21.3369 -5.88672q-13.2441 -1.47266 -22.0742 -1.47266q-30.9023 0 -58.126 11.7734t-47.458 32.0098q-20.2334 20.2354 -32.0059 47.4609q-11.7725 27.2266 -11.7725 58.1318 t11.7725 58.1318q11.7725 27.2256 32.0059 47.4609q20.2344 20.2363 47.458 32.0098t58.126 11.7734z" />
<glyph unicode="&#x147;" horiz-adv-x="2013" d="M1380 0l-798 1319l32 -1319h-415l57 1913h301l879 -1317l30 1085l170 232h125l54 -1913h-435zM678 2292l133 133l193 -199l197 199l133 -133l-329 -350l-327 350v0z" />
<glyph unicode="&#x148;" horiz-adv-x="1413" d="M1249 0h-315l2 31q4 141 7.5 245.5t5.5 180.5t2.5 127t1 83.5t0 50t-0.5 27.5v15q0 66 -2.5 104.5t-11.5 61.5q-9 21 -21.5 42.5t-31 39t-46.5 28.5t-69 11q-14 0 -30 -5t-32 -12t-30 -15.5t-23 -15.5q-17 -11 -31.5 -22.5t-29.5 -25.5t-31 -31t-35 -39 q-21 -25 -31.5 -49.5t-21.5 -59.5q-5 -15 -7.5 -31t-4 -34t-1.5 -39.5t1 -49.5q0 -14 0.5 -46t1.5 -75.5t2.5 -94.5t2.5 -102.5t2.5 -99.5t2.5 -85t1.5 -60t0.5 -24l2 -31h-317l2 31q0 1 2 35.5t5 90.5t6.5 128.5t7.5 151t7.5 156.5t6 145.5t4 119t0.5 76.5q-1 31 -4 74 t-6.5 82t-6 66t-2.5 28l-4 30h264l9 -131q13 18 29 36t33 34t35 29.5t36 21.5q49 25 105 37t116 12q130 0 221 -49.5t139 -146.5q25 -48 37.5 -116.5t14.5 -170.5q0 -23 1.5 -66.5t4 -99.5t5 -119.5l5 -127t5.5 -122t5 -103.5t3 -72.5t1 -28.5v-31zM379 1780l133 133 l193 -199l197 199l133 -133l-329 -350l-327 350v0z" />
<glyph unicode="&#x14c;" horiz-adv-x="2128" d="M1482 1942h-814v184h814v-184zM1024 -25q-93 0 -174.5 14.5t-153.5 45.5q-142 61 -252 186q-114 134 -176 291q-16 42 -29 91t-22 102t-13.5 108.5t-4.5 110.5q0 57 5 116t14.5 115.5t22.5 108.5t29 96q32 87 79.5 164.5t107.5 148.5q110 129 262 197q72 31 157.5 45 t182.5 16h6q97 -2 182.5 -16t157.5 -45q151 -68 262 -197q60 -71 107 -148.5t79 -164.5q16 -44 29.5 -96t23 -108.5t14.5 -115.5t5 -116q0 -55 -5 -110.5t-14 -108.5t-22 -102t-29 -91q-60 -157 -176 -291q-54 -62 -116.5 -108.5t-135.5 -77.5q-71 -31 -153 -45.5 t-176 -14.5h-74zM1055 1649q-56 0 -108.5 -12.5t-100 -36t-88.5 -57.5t-72 -77q-68 -91 -102.5 -206.5t-34.5 -249.5q0 -150 27.5 -265.5t82.5 -203.5q32 -53 71 -87t87 -53q48 -20 104.5 -28t129.5 -8h22q72 0 129 8t105 28q94 37 157 140q56 88 83.5 203.5t27.5 265.5 q0 134 -34.5 249.5t-102.5 206.5q-32 43 -72.5 77t-88 57.5t-100.5 36t-108 12.5h-14z" />
<glyph unicode="&#x14d;" horiz-adv-x="1470" d="M1117 1402h-814v184h814v-184zM705 -43q-127 0 -227.5 42.5t-174.5 129.5q-38 45 -68.5 95t-52.5 104q-45 120 -45 256q0 72 12 140.5t35 131.5q23 59 54 112t73 101q154 181 414 184h12q128 -2 231.5 -47.5t180.5 -136.5q40 -48 71.5 -101t53.5 -112q25 -63 37 -131.5 t12 -140.5q0 -135 -47 -256q-20 -54 -50.5 -104t-68.5 -95q-150 -172 -401 -172h-51zM727 1044q-74 0 -128.5 -30.5t-100.5 -95.5q-23 -33 -39 -66t-25.5 -67.5t-13.5 -72t-4 -79.5q0 -45 4 -82.5t12 -70t21.5 -62t31.5 -58.5q32 -49 89 -72.5t145 -23.5h12q90 0 146 23.5 t88 72.5q18 28 32.5 56t24.5 59.5t15 69t5 84.5q0 49 -5 89.5t-15 75.5t-25 66t-34 60q-44 63 -99 93.5t-131 30.5h-6z" />
<glyph unicode="&#x150;" horiz-adv-x="2128" d="M1024 -25q-93 0 -174.5 14.5t-153.5 45.5q-142 61 -252 186q-114 134 -176 291q-16 42 -29 91t-22 102t-13.5 108.5t-4.5 110.5q0 57 5 116t14.5 115.5t22.5 108.5t29 96q32 87 79.5 164.5t107.5 148.5q110 129 262 197q72 31 157.5 45t182.5 16h6q97 -2 182.5 -16 t157.5 -45q151 -68 262 -197q60 -71 107 -148.5t79 -164.5q16 -44 29.5 -96t23 -108.5t14.5 -115.5t5 -116q0 -55 -5 -110.5t-14 -108.5t-22 -102t-29 -91q-60 -157 -176 -291q-54 -62 -116.5 -108.5t-135.5 -77.5q-71 -31 -153 -45.5t-176 -14.5h-74zM1055 1649 q-56 0 -108.5 -12.5t-100 -36t-88.5 -57.5t-72 -77q-68 -91 -102.5 -206.5t-34.5 -249.5q0 -150 27.5 -265.5t82.5 -203.5q32 -53 71 -87t87 -53q48 -20 104.5 -28t129.5 -8h22q72 0 129 8t105 28q94 37 157 140q56 88 83.5 203.5t27.5 265.5q0 134 -34.5 249.5 t-102.5 206.5q-32 43 -72.5 77t-88 57.5t-100.5 36t-108 12.5h-14zM943 2491l190 -191l-383 -358l-165 166zM1533 2491l190 -191l-383 -358l-166 166z" />
<glyph unicode="&#x151;" horiz-adv-x="1470" d="M705 -43q-127 0 -227.5 42.5t-174.5 129.5q-38 45 -68.5 95t-52.5 104q-45 120 -45 256q0 72 12 140.5t35 131.5q23 59 54 112t73 101q154 181 414 184h12q128 -2 231.5 -47.5t180.5 -136.5q40 -48 71.5 -101t53.5 -112q25 -63 37 -131.5t12 -140.5q0 -135 -47 -256 q-20 -54 -50.5 -104t-68.5 -95q-150 -172 -401 -172h-51zM727 1044q-74 0 -128.5 -30.5t-100.5 -95.5q-23 -33 -39 -66t-25.5 -67.5t-13.5 -72t-4 -79.5q0 -45 4 -82.5t12 -70t21.5 -62t31.5 -58.5q32 -49 89 -72.5t145 -23.5h12q90 0 146 23.5t88 72.5q18 28 32.5 56 t24.5 59.5t15 69t5 84.5q0 49 -5 89.5t-15 75.5t-25 66t-34 60q-44 63 -99 93.5t-131 30.5h-6zM524 1913l190 -191l-383 -358l-165 166zM1114 1913l190 -191l-383 -358l-166 166z" />
<glyph unicode="&#x152;" horiz-adv-x="2933" d="M997 -43q-188 0 -327 59q-147 62 -252 187q-115 133 -176 293q-16 40 -29 89t-22 102.5t-14 108.5t-5 109q0 58 5 117t14 115.5t22.5 108t30.5 95.5q65 174 184 314q56 65 122.5 113.5t141.5 82.5q72 31 156.5 45.5t181.5 16.5h8q97 -2 182 -16.5t156 -45.5 q56 -24 105 -55.5t94 -73.5l4 191h1161v-275h-864l12 -479h682v-315h-672l13 -498h827v-346h-1212l4 90q-31 -22 -64 -40t-67 -34q-139 -59 -328 -59h-74zM1028 1638q-41 0 -89.5 -10t-98 -32.5t-97 -58.5t-86.5 -89q-66 -91 -100.5 -207t-34.5 -250q0 -149 26.5 -265 t82.5 -204q34 -51 73 -85.5t87 -53.5t104 -28t127 -9h25q71 0 127 9t104 28q95 38 160 139q55 88 81.5 204t26.5 265q0 134 -34.5 250t-100.5 207q-39 53 -86 89t-96.5 58.5t-98 32.5t-90.5 10h-12z" />
<glyph unicode="&#x153;" horiz-adv-x="2367" d="M1630 -43q-121 0 -215 38.5t-170 119.5q-9 9 -18 18.5t-17 20.5q-5 -7 -9.5 -12t-10.5 -11q-148 -174 -397 -174h-54q-250 0 -401 174q-38 45 -67.5 95t-51.5 104q-47 121 -47 256q0 72 12 140.5t37 131.5q22 59 53.5 111t71.5 100q78 91 181 137.5t233 46.5h12 q128 -2 231 -47.5t181 -136.5q9 -11 19 -23t18 -24q6 6 12 13l12 14q42 48 87.5 85t94.5 62q56 29 114 43t120 14h2q91 0 153.5 -19t100.5 -38q23 -11 49 -29t50.5 -41t47 -50t37.5 -56q25 -43 48 -95.5t34 -117.5v-2q12 -110 -53 -184q-42 -48 -114 -74t-171 -31l-475 -27 q3 -35 15.5 -73t35.5 -66q15 -18 31 -33t39 -26.5t55 -18t78 -6.5h6q34 1 68.5 1.5t64.5 2t53 4t35 7.5q13 5 22.5 13t12.5 30l2 26h307l-2 -28q0 -98 -55 -175q-25 -34 -52 -57.5t-50 -40.5q-29 -22 -59 -37t-58 -24.5t-53.5 -14.5t-46.5 -8q-38 -5 -90 -6.5t-99 -1.5z M762 1047q-69 0 -121.5 -31.5t-101.5 -102.5q-23 -33 -39.5 -64.5t-27 -65t-15 -70.5t-4.5 -80q0 -45 3.5 -82t12 -69t21.5 -61.5t32 -58.5q32 -49 88 -72.5t146 -23.5h10q90 0 145.5 23.5t87.5 72.5q18 28 32.5 56t24.5 59.5t15.5 69t5.5 84.5q0 48 -6.5 87.5t-17.5 73.5 t-27 63.5t-35 57.5q-47 71 -99 102.5t-124 31.5h-6zM1667 1047q-39 0 -69.5 -9t-56.5 -24.5t-48.5 -37t-46.5 -46.5q-34 -37 -57 -94t-29 -123l463 24q13 0 28 1.5t28.5 6t25 12t18.5 19.5q25 45 -14 131q-32 66 -95 103t-147 37z" />
<glyph unicode="&#x154;" horiz-adv-x="1952" d="M1374 0l-381 664q-6 11 -18.5 30t-33 37t-50 31.5t-70.5 13.5h-250l23 -776h-395l53 1913h813q124 0 232 -42.5t192 -123.5q80 -81 123 -184.5t43 -219.5q0 -92 -30 -178t-87 -161q-49 -65 -113.5 -113.5t-136.5 -77.5l467 -651v-162h-381zM1083 1104q48 0 92.5 22.5 t78.5 60.5t54.5 87.5t20.5 103.5q0 45 -15 90t-45 81t-76.5 58.5t-109.5 22.5h-534l14 -526h520zM1064 2500l190 -191l-393 -366l-164 166l367 391v0z" />
<glyph unicode="&#x155;" horiz-adv-x="1026" d="M479 0h-315v31q0 1 1.5 38.5t4 98t5.5 138t6.5 159.5t6.5 162t5.5 145.5t4 110t1.5 55.5q0 35 -11 75.5t-24 75.5t-24 58t-11 24l-20 43h266l51 -88q9 14 22.5 28.5t36.5 31.5q32 22 64.5 35.5t63.5 20.5t59.5 9t54.5 2q6 0 32 -1t60 -5.5t68.5 -13.5t58.5 -25l21 -12 l-93 -235l-30 28q-26 26 -58 40.5t-90 14.5q-63 0 -103.5 -32.5t-74.5 -87.5q-23 -39 -34.5 -76.5t-16 -75t-4 -75t1.5 -74.5v-37q0 -28 1 -80t2 -113.5t3 -125t3 -116t2 -86t1 -34.5zM602 1913l190 -191l-393 -366l-164 166l367 391v0z" />
<glyph unicode="&#x156;" horiz-adv-x="1952" d="M1374 0l-381 664q-6 11 -18.5 30t-33 37t-50 31.5t-70.5 13.5h-250l23 -776h-395l53 1913h813q124 0 232 -42.5t192 -123.5q80 -81 123 -184.5t43 -219.5q0 -92 -30 -178t-87 -161q-49 -65 -113.5 -113.5t-136.5 -77.5l467 -651v-162h-381zM1083 1104q48 0 92.5 22.5 t78.5 60.5t54.5 87.5t20.5 103.5q0 45 -15 90t-45 81t-76.5 58.5t-109.5 22.5h-534l14 -526h520zM923.197 -71.418q30.9033 0 58.127 -11.7734t47.0898 -32.0098q19.8662 -20.2354 31.6387 -47.4609q11.7725 -27.2266 11.7725 -58.1318q0 -89.7725 -3.67871 -149.743 q-3.67969 -59.9707 -11.7725 -100.074q-8.09375 -40.1035 -20.6025 -65.1221q-12.5078 -25.0186 -30.166 -45.6221q-19.1309 -22.0752 -43.0439 -36.792q-23.9121 -14.7168 -45.9854 -22.8115q-25.7529 -10.3008 -52.2402 -15.4521l-16.9238 96.3955 q27.96 8.09375 48.5615 21.707q20.6025 13.6133 38.9971 34.2168q8.8291 12.5088 15.083 25.7539t9.93262 29.8018q3.67969 16.5557 5.15039 37.1592q1.47168 20.6035 1.47168 48.5664q-8.09277 -4.41602 -21.3369 -5.88672q-13.2441 -1.47266 -22.0742 -1.47266 q-30.9023 0 -58.126 11.7734t-47.458 32.0098q-20.2334 20.2354 -32.0059 47.4609q-11.7725 27.2266 -11.7725 58.1318t11.7725 58.1318q11.7725 27.2256 32.0059 47.4609q20.2344 20.2363 47.458 32.0098t58.126 11.7734z" />
<glyph unicode="&#x157;" horiz-adv-x="1026" d="M479 0h-315v31q0 1 1.5 38.5t4 98t5.5 138t6.5 159.5t6.5 162t5.5 145.5t4 110t1.5 55.5q0 35 -11 75.5t-24 75.5t-24 58t-11 24l-20 43h266l51 -88q9 14 22.5 28.5t36.5 31.5q32 22 64.5 35.5t63.5 20.5t59.5 9t54.5 2q6 0 32 -1t60 -5.5t68.5 -13.5t58.5 -25l21 -12 l-93 -235l-30 28q-26 26 -58 40.5t-90 14.5q-63 0 -103.5 -32.5t-74.5 -87.5q-23 -39 -34.5 -76.5t-16 -75t-4 -75t1.5 -74.5v-37q0 -28 1 -80t2 -113.5t3 -125t3 -116t2 -86t1 -34.5zM533.197 -71.418q30.9033 0 58.127 -11.7734t47.0898 -32.0098 q19.8662 -20.2354 31.6387 -47.4609q11.7725 -27.2266 11.7725 -58.1318q0 -89.7725 -3.67871 -149.743q-3.67969 -59.9707 -11.7725 -100.074q-8.09375 -40.1035 -20.6025 -65.1221q-12.5078 -25.0186 -30.166 -45.6221q-19.1309 -22.0752 -43.0439 -36.792 q-23.9121 -14.7168 -45.9854 -22.8115q-25.7529 -10.3008 -52.2402 -15.4521l-16.9238 96.3955q27.96 8.09375 48.5615 21.707q20.6025 13.6133 38.9971 34.2168q8.8291 12.5088 15.083 25.7539t9.93262 29.8018q3.67969 16.5557 5.15039 37.1592 q1.47168 20.6035 1.47168 48.5664q-8.09277 -4.41602 -21.3369 -5.88672q-13.2441 -1.47266 -22.0742 -1.47266q-30.9023 0 -58.126 11.7734t-47.458 32.0098q-20.2334 20.2354 -32.0059 47.4609q-11.7725 27.2266 -11.7725 58.1318t11.7725 58.1318 q11.7725 27.2256 32.0059 47.4609q20.2344 20.2363 47.458 32.0098t58.126 11.7734z" />
<glyph unicode="&#x158;" horiz-adv-x="1952" d="M1374 0l-381 664q-6 11 -18.5 30t-33 37t-50 31.5t-70.5 13.5h-250l23 -776h-395l53 1913h813q124 0 232 -42.5t192 -123.5q80 -81 123 -184.5t43 -219.5q0 -92 -30 -178t-87 -161q-49 -65 -113.5 -113.5t-136.5 -77.5l467 -651v-162h-381zM1083 1104q48 0 92.5 22.5 t78.5 60.5t54.5 87.5t20.5 103.5q0 45 -15 90t-45 81t-76.5 58.5t-109.5 22.5h-534l14 -526h520zM548 2292l133 133l193 -199l197 199l133 -133l-329 -350l-327 350v0z" />
<glyph unicode="&#x159;" horiz-adv-x="1026" d="M479 0h-315v31q0 1 1.5 38.5t4 98t5.5 138t6.5 159.5t6.5 162t5.5 145.5t4 110t1.5 55.5q0 35 -11 75.5t-24 75.5t-24 58t-11 24l-20 43h266l51 -88q9 14 22.5 28.5t36.5 31.5q32 22 64.5 35.5t63.5 20.5t59.5 9t54.5 2q6 0 32 -1t60 -5.5t68.5 -13.5t58.5 -25l21 -12 l-93 -235l-30 28q-26 26 -58 40.5t-90 14.5q-63 0 -103.5 -32.5t-74.5 -87.5q-23 -39 -34.5 -76.5t-16 -75t-4 -75t1.5 -74.5v-37q0 -28 1 -80t2 -113.5t3 -125t3 -116t2 -86t1 -34.5zM185 1780l133 133l193 -199l197 199l133 -133l-329 -350l-327 350v0z" />
<glyph unicode="&#x15a;" horiz-adv-x="1886" d="M920 -25q-184 0 -336 58q-66 25 -121 60t-98 83q-37 39 -65.5 75.5t-48.5 76t-33 84.5t-19 102l-2 33h393l6 -21q5 -17 11 -26t14 -19q2 -2 2 -3t2 -3q18 -24 42.5 -44.5t60.5 -35t86.5 -22.5t121.5 -8q80 0 151.5 20t137.5 64q40 25 57.5 64.5t17.5 107.5q2 32 -4 52 t-18 40q-25 40 -78 63q-22 11 -68.5 26t-105.5 34q-56 17 -117.5 36.5t-120.5 40.5q-57 21 -101 38t-82 33.5t-74.5 35.5t-79.5 45q-91 53 -134 135q-45 82 -45 197q0 65 10 120.5t31 103.5t53 89.5t76 79.5q45 38 94 65t106.5 44t125 24.5t150.5 7.5q99 0 176.5 -10 t140.5 -33h2q28 -9 54.5 -19t52.5 -24.5t52.5 -35t53.5 -50.5q56 -63 87.5 -143.5t31.5 -159.5v-29h-318v29q0 9 -2 23.5t-8.5 32t-18.5 36t-32 35.5q-14 12 -35 24t-55 21.5t-84 16t-121 6.5q-48 0 -86 -7.5t-67 -19.5t-51 -27t-40 -30q-31 -25 -43 -54t-12 -77 q0 -29 5 -42t17 -28q14 -15 32 -27.5t52 -27.5q9 -4 35 -12.5t61 -19.5t76 -24t81 -25.5t75.5 -23.5t59.5 -18q57 -16 115 -34t112.5 -37.5t102.5 -41t83 -43.5q44 -26 79.5 -68.5t59.5 -99.5q23 -54 35.5 -115t12.5 -126v-39q-7 -125 -52 -224.5t-133 -183.5 q-46 -43 -107.5 -79t-135.5 -62q-85 -29 -171 -44.5t-171 -15.5zM1141 2499l190 -191l-393 -366l-164 166l367 391v0z" />
<glyph unicode="&#x15b;" horiz-adv-x="1290" d="M627 -43q-131 0 -228 34t-157 103q-26 31 -44 57.5t-30 55t-19.5 63t-13.5 80.5h305q0 -26 4.5 -37.5t14.5 -19.5q6 -4 16.5 -8.5t30 -8t50 -6t75.5 -2.5q36 0 61 1.5t44 6t34.5 12t32.5 19.5q15 11 25.5 20t16.5 19t8.5 22.5t2.5 30.5q-2 32 -27.5 57.5t-80.5 45.5 q-10 3 -29 9t-42 13t-47.5 14t-45 13t-34.5 10t-15 4q-60 17 -119.5 41.5t-98.5 48.5q-68 43 -99.5 98t-35.5 138q-2 43 3 78.5t18.5 67t36.5 59.5t57 57q31 27 66 46t75 31t86 17.5t101 5.5q135 0 224 -26t148 -86q44 -44 67 -97.5t23 -109.5v-29h-258v29q-2 15 -7.5 29 t-20.5 32q-7 8 -18 17t-30 17t-49 13t-75 5q-57 0 -90 -9t-58 -26q-24 -17 -36.5 -35.5t-12.5 -56.5q0 -26 12 -43t48 -41q23 -17 48.5 -27.5t67.5 -20.5l123 -30q61 -15 108.5 -28.5t85 -27t66 -28t49.5 -29.5q121 -87 115 -280q-5 -83 -34.5 -146t-92.5 -123 q-32 -31 -75.5 -56.5t-94.5 -43.5q-54 -19 -112.5 -29t-118.5 -10zM734 1913l190 -191l-393 -366l-164 166l367 391v0z" />
<glyph unicode="&#x15e;" horiz-adv-x="1886" d="M920 -25q-184 0 -336 58q-66 25 -121 60t-98 83q-37 39 -65.5 75.5t-48.5 76t-33 84.5t-19 102l-2 33h393l6 -21q5 -17 11 -26t14 -19q2 -2 2 -3t2 -3q18 -24 42.5 -44.5t60.5 -35t86.5 -22.5t121.5 -8q80 0 151.5 20t137.5 64q40 25 57.5 64.5t17.5 107.5q2 32 -4 52 t-18 40q-25 40 -78 63q-22 11 -68.5 26t-105.5 34q-56 17 -117.5 36.5t-120.5 40.5q-57 21 -101 38t-82 33.5t-74.5 35.5t-79.5 45q-91 53 -134 135q-45 82 -45 197q0 65 10 120.5t31 103.5t53 89.5t76 79.5q45 38 94 65t106.5 44t125 24.5t150.5 7.5q99 0 176.5 -10 t140.5 -33h2q28 -9 54.5 -19t52.5 -24.5t52.5 -35t53.5 -50.5q56 -63 87.5 -143.5t31.5 -159.5v-29h-318v29q0 9 -2 23.5t-8.5 32t-18.5 36t-32 35.5q-14 12 -35 24t-55 21.5t-84 16t-121 6.5q-48 0 -86 -7.5t-67 -19.5t-51 -27t-40 -30q-31 -25 -43 -54t-12 -77 q0 -29 5 -42t17 -28q14 -15 32 -27.5t52 -27.5q9 -4 35 -12.5t61 -19.5t76 -24t81 -25.5t75.5 -23.5t59.5 -18q57 -16 115 -34t112.5 -37.5t102.5 -41t83 -43.5q44 -26 79.5 -68.5t59.5 -99.5q23 -54 35.5 -115t12.5 -126v-39q-7 -125 -52 -224.5t-133 -183.5 q-46 -43 -107.5 -79t-135.5 -62q-85 -29 -171 -44.5t-171 -15.5zM999 -12q32 -12 59.5 -32.5t47.5 -48t31 -60.5t11 -70q0 -46 -17.5 -86.5t-48 -71t-71.5 -48t-88 -17.5h-153v149h153q31 0 52.5 21.5t21.5 52.5t-21.5 52.5t-52.5 21.5h-115v137h191z" />
<glyph unicode="&#x15f;" horiz-adv-x="1290" d="M627 -43q-131 0 -228 34t-157 103q-26 31 -44 57.5t-30 55t-19.5 63t-13.5 80.5h305q0 -26 4.5 -37.5t14.5 -19.5q6 -4 16.5 -8.5t30 -8t50 -6t75.5 -2.5q36 0 61 1.5t44 6t34.5 12t32.5 19.5q15 11 25.5 20t16.5 19t8.5 22.5t2.5 30.5q-2 32 -27.5 57.5t-80.5 45.5 q-10 3 -29 9t-42 13t-47.5 14t-45 13t-34.5 10t-15 4q-60 17 -119.5 41.5t-98.5 48.5q-68 43 -99.5 98t-35.5 138q-2 43 3 78.5t18.5 67t36.5 59.5t57 57q31 27 66 46t75 31t86 17.5t101 5.5q135 0 224 -26t148 -86q44 -44 67 -97.5t23 -109.5v-29h-258v29q-2 15 -7.5 29 t-20.5 32q-7 8 -18 17t-30 17t-49 13t-75 5q-57 0 -90 -9t-58 -26q-24 -17 -36.5 -35.5t-12.5 -56.5q0 -26 12 -43t48 -41q23 -17 48.5 -27.5t67.5 -20.5l123 -30q61 -15 108.5 -28.5t85 -27t66 -28t49.5 -29.5q121 -87 115 -280q-5 -83 -34.5 -146t-92.5 -123 q-32 -31 -75.5 -56.5t-94.5 -43.5q-54 -19 -112.5 -29t-118.5 -10zM716 -29q32 -12 59.5 -32.5t47.5 -48t31 -60.5t11 -70q0 -46 -17.5 -86.5t-48 -71t-71.5 -48t-88 -17.5h-153v149h153q31 0 52.5 21.5t21.5 52.5t-21.5 52.5t-52.5 21.5h-115v137h191z" />
<glyph unicode="&#x160;" horiz-adv-x="1886" d="M920 -25q-184 0 -336 58q-66 25 -121 60t-98 83q-37 39 -65.5 75.5t-48.5 76t-33 84.5t-19 102l-2 33h393l6 -21q5 -17 11 -26t14 -19q2 -2 2 -3t2 -3q18 -24 42.5 -44.5t60.5 -35t86.5 -22.5t121.5 -8q80 0 151.5 20t137.5 64q40 25 57.5 64.5t17.5 107.5q2 32 -4 52 t-18 40q-25 40 -78 63q-22 11 -68.5 26t-105.5 34q-56 17 -117.5 36.5t-120.5 40.5q-57 21 -101 38t-82 33.5t-74.5 35.5t-79.5 45q-91 53 -134 135q-45 82 -45 197q0 65 10 120.5t31 103.5t53 89.5t76 79.5q45 38 94 65t106.5 44t125 24.5t150.5 7.5q99 0 176.5 -10 t140.5 -33h2q28 -9 54.5 -19t52.5 -24.5t52.5 -35t53.5 -50.5q56 -63 87.5 -143.5t31.5 -159.5v-29h-318v29q0 9 -2 23.5t-8.5 32t-18.5 36t-32 35.5q-14 12 -35 24t-55 21.5t-84 16t-121 6.5q-48 0 -86 -7.5t-67 -19.5t-51 -27t-40 -30q-31 -25 -43 -54t-12 -77 q0 -29 5 -42t17 -28q14 -15 32 -27.5t52 -27.5q9 -4 35 -12.5t61 -19.5t76 -24t81 -25.5t75.5 -23.5t59.5 -18q57 -16 115 -34t112.5 -37.5t102.5 -41t83 -43.5q44 -26 79.5 -68.5t59.5 -99.5q23 -54 35.5 -115t12.5 -126v-39q-7 -125 -52 -224.5t-133 -183.5 q-46 -43 -107.5 -79t-135.5 -62q-85 -29 -171 -44.5t-171 -15.5zM615 2281l133 133l193 -199l197 199l133 -133l-329 -350l-327 350v0z" />
<glyph unicode="&#x161;" horiz-adv-x="1290" d="M627 -43q-131 0 -228 34t-157 103q-26 31 -44 57.5t-30 55t-19.5 63t-13.5 80.5h305q0 -26 4.5 -37.5t14.5 -19.5q6 -4 16.5 -8.5t30 -8t50 -6t75.5 -2.5q36 0 61 1.5t44 6t34.5 12t32.5 19.5q15 11 25.5 20t16.5 19t8.5 22.5t2.5 30.5q-2 32 -27.5 57.5t-80.5 45.5 q-10 3 -29 9t-42 13t-47.5 14t-45 13t-34.5 10t-15 4q-60 17 -119.5 41.5t-98.5 48.5q-68 43 -99.5 98t-35.5 138q-2 43 3 78.5t18.5 67t36.5 59.5t57 57q31 27 66 46t75 31t86 17.5t101 5.5q135 0 224 -26t148 -86q44 -44 67 -97.5t23 -109.5v-29h-258v29q-2 15 -7.5 29 t-20.5 32q-7 8 -18 17t-30 17t-49 13t-75 5q-57 0 -90 -9t-58 -26q-24 -17 -36.5 -35.5t-12.5 -56.5q0 -26 12 -43t48 -41q23 -17 48.5 -27.5t67.5 -20.5l123 -30q61 -15 108.5 -28.5t85 -27t66 -28t49.5 -29.5q121 -87 115 -280q-5 -83 -34.5 -146t-92.5 -123 q-32 -31 -75.5 -56.5t-94.5 -43.5q-54 -19 -112.5 -29t-118.5 -10zM317 1780l133 133l193 -199l197 199l133 -133l-329 -350l-327 350v0z" />
<glyph unicode="&#x162;" horiz-adv-x="1661" d="M823 -71q-31 0 -58.5 -12t-47.5 -32t-32 -47.5t-12 -58.5t12 -58t32 -47.5t47.5 -32t58.5 -11.5q9 0 22.5 1t21.5 6q0 -28 -1.5 -48.5t-5.5 -37t-10 -30t-15 -25.5q-18 -21 -38.5 -34.5t-49.5 -21.5l17 -97q26 5 52 15q22 8 46.5 22.5t43.5 37.5q18 21 30.5 46t20.5 65 t11.5 100t3.5 150q0 31 -11.5 58.5t-32 47.5t-47.5 32t-58 12zM631 0l47 1632h-604v281h1511v-281h-604l45 -1632h-395z" />
<glyph unicode="&#x163;" horiz-adv-x="1223" d="M663 -71q-31 0 -58.5 -12t-47.5 -32t-32 -47.5t-12 -58.5t12 -58t32 -47.5t47.5 -32t58.5 -11.5q9 0 22.5 1t21.5 6q0 -28 -1.5 -48.5t-5.5 -37t-10 -30t-15 -25.5q-18 -21 -38.5 -34.5t-49.5 -21.5l17 -97q26 5 52 15q22 8 46.5 22.5t43.5 37.5q18 21 30.5 46t20.5 65 t11.5 100t3.5 150q0 31 -11.5 58.5t-32 47.5t-47.5 32t-58 12zM688 -43q-80 0 -147 24t-107 66q-32 35 -47.5 85.5t-13.5 119.5l22 727h-289v235h295l31 521h135l107 -140l-8 -381h282l94 -124v-111h-378l-2 -643q0 -70 22 -86q14 -9 35 -11.5t43 -2.5h4q29 0 67 6.5 t70 17.5q16 5 34 14t33 18q18 10 34 21l83 -268l-20 -12q-18 -12 -33.5 -19.5t-31.5 -12.5t-34.5 -9.5t-43.5 -9.5l-42.5 -8.5t-50.5 -8t-63 -6t-80 -2.5z" />
<glyph unicode="&#x164;" horiz-adv-x="1661" d="M631 0l47 1632h-604v281h1511v-281h-604l45 -1632h-395zM502 2293l133 133l193 -199l197 199l133 -133l-329 -350l-327 350v0z" />
<glyph unicode="&#x165;" horiz-adv-x="1750" d="M688 -43q-80 0 -147 24t-107 66q-32 35 -47.5 85.5t-13.5 119.5l22 727h-289v235h295l31 521h135l107 -140l-8 -381h282l94 -124v-111h-378l-2 -643q0 -70 22 -86q14 -9 35 -11.5t43 -2.5h4q29 0 67 6.5t70 17.5q16 5 34 14t33 18q18 10 34 21l83 -268l-20 -12 q-18 -12 -33.5 -19.5t-31.5 -12.5t-34.5 -9.5t-43.5 -9.5l-42.5 -8.5t-50.5 -8t-63 -6t-80 -2.5zM1269 2263q42 0 79.5 -16t65.5 -43.5t44 -64.5t16 -79q0 -122 -5.5 -203.5t-16.5 -136t-28 -88.5t-40 -62q-26 -30 -59.5 -49.5t-62.5 -31.5q-35 -14 -70 -21l-25 133 q40 9 68 27.5t51 46.5q12 17 20.5 35t13.5 40.5t7 50.5t2 66q-11 -6 -28.5 -8t-31.5 -2q-41 0 -78 16t-64.5 43.5t-43.5 64.5t-16 79t16 79t43.5 64.5t64.5 43.5t78 16z" />
<glyph unicode="&#x16a;" horiz-adv-x="2007" d="M1347 1942h-814v184h814v-184zM813 -43q-99 0 -184.5 16t-157.5 52q-71 35 -124 86t-87 114q-21 39 -33 83.5t-19 93t-9 99t-2 101.5q0 1 1 37t2.5 97.5t4 143t5 174t5 190t5 191t5 177.5t4 148.5t3 105.5t1.5 47h289l35 -1264v-8q0 -17 0.5 -42t4.5 -52t11.5 -52.5 t22.5 -43.5q34 -40 74 -62t78.5 -32t71.5 -11.5t54 -1.5q63 0 128.5 27.5t130.5 81.5q57 46 100.5 110t64.5 133q13 43 22.5 79t15.5 75t9 87t3 114l24 862h289q0 -8 2 -67.5t4.5 -152.5t5.5 -210.5t6.5 -241.5t7.5 -246t7.5 -223.5t6.5 -174t5 -97.5q3 -33 12 -80.5 t19.5 -100t23 -105.5t23 -97.5t18 -76t10.5 -40.5h-319l-94 129l-2 164q-34 -63 -78 -116t-98 -91q-48 -35 -95 -59.5t-96.5 -40t-102.5 -22.5t-114 -7z" />
<glyph unicode="&#x16b;" horiz-adv-x="1442" d="M1077 1402h-814v184h814v-184zM580 -43q-63 0 -119.5 13t-104.5 38q-48 23 -85 57.5t-66 77.5q-32 50 -48 123.5t-14 167.5l21 780h254l10 -778q3 -46 11 -77t16 -42q23 -32 63 -41.5t111 -9.5q43 0 75 13.5t57 36t45.5 53t39.5 65.5t28.5 90.5t12.5 153.5l6 536h256v-28 q0 -66 1.5 -150t3 -173t3.5 -177t4.5 -161.5t5.5 -126.5t7 -72q3 -18 10.5 -41.5t18.5 -50t24 -54t26 -53.5q31 -62 68 -127h-313l-66 170q-18 -29 -42 -60.5t-46 -50.5q-62 -52 -129 -77t-145 -25z" />
<glyph unicode="&#x16e;" horiz-adv-x="2007" d="M813 -43q-99 0 -184.5 16t-157.5 52q-71 35 -124 86t-87 114q-21 39 -33 83.5t-19 93t-9 99t-2 101.5q0 1 1 37t2.5 97.5t4 143t5 174t5 190t5 191t5 177.5t4 148.5t3 105.5t1.5 47h289l35 -1264v-8q0 -17 0.5 -42t4.5 -52t11.5 -52.5t22.5 -43.5q34 -40 74 -62t78.5 -32 t71.5 -11.5t54 -1.5q63 0 128.5 27.5t130.5 81.5q57 46 100.5 110t64.5 133q13 43 22.5 79t15.5 75t9 87t3 114l24 862h289q0 -8 2 -67.5t4.5 -152.5t5.5 -210.5t6.5 -241.5t7.5 -246t7.5 -223.5t6.5 -174t5 -97.5q3 -33 12 -80.5t19.5 -100t23 -105.5t23 -97.5t18 -76 t10.5 -40.5h-319l-94 129l-2 164q-34 -63 -78 -116t-98 -91q-48 -35 -95 -59.5t-96.5 -40t-102.5 -22.5t-114 -7zM953 1942q-53 0 -99 20t-80 54.5t-54 80.5t-20 99q0 52 20 98t54 80.5t80 54.5t99 20q52 0 98.5 -20t80.5 -54.5t54 -80.5t20 -98q0 -53 -20 -99t-54 -80.5 t-80.5 -54.5t-98.5 -20zM953 2313q-24 0 -45.5 -9.5t-37.5 -25t-25 -37t-9 -45.5t9 -45.5t25 -37.5t37.5 -25t45.5 -9t45.5 9t37.5 25t25 37.5t9 45.5t-9 45.5t-25 37t-37.5 25t-45.5 9.5z" />
<glyph unicode="&#x16f;" horiz-adv-x="1442" d="M580 -43q-63 0 -119.5 13t-104.5 38q-48 23 -85 57.5t-66 77.5q-32 50 -48 123.5t-14 167.5l21 780h254l10 -778q3 -46 11 -77t16 -42q23 -32 63 -41.5t111 -9.5q43 0 75 13.5t57 36t45.5 53t39.5 65.5t28.5 90.5t12.5 153.5l6 536h256v-28q0 -66 1.5 -150t3 -173 t3.5 -177t4.5 -161.5t5.5 -126.5t7 -72q3 -18 10.5 -41.5t18.5 -50t24 -54t26 -53.5q31 -62 68 -127h-313l-66 170q-18 -29 -42 -60.5t-46 -50.5q-62 -52 -129 -77t-145 -25zM651 1407q-53 0 -99 20t-80 54.5t-54 80.5t-20 99q0 52 20 98t54 80.5t80 54.5t99 20 q52 0 98.5 -20t80.5 -54.5t54 -80.5t20 -98q0 -53 -20 -99t-54 -80.5t-80.5 -54.5t-98.5 -20zM651 1778q-24 0 -45.5 -9.5t-37.5 -25t-25 -37t-9 -45.5t9 -45.5t25 -37.5t37.5 -25t45.5 -9t45.5 9t37.5 25t25 37.5t9 45.5t-9 45.5t-25 37t-37.5 25t-45.5 9.5z" />
<glyph unicode="&#x170;" horiz-adv-x="2007" d="M813 -43q-99 0 -184.5 16t-157.5 52q-71 35 -124 86t-87 114q-21 39 -33 83.5t-19 93t-9 99t-2 101.5q0 1 1 37t2.5 97.5t4 143t5 174t5 190t5 191t5 177.5t4 148.5t3 105.5t1.5 47h289l35 -1264v-8q0 -17 0.5 -42t4.5 -52t11.5 -52.5t22.5 -43.5q34 -40 74 -62t78.5 -32 t71.5 -11.5t54 -1.5q63 0 128.5 27.5t130.5 81.5q57 46 100.5 110t64.5 133q13 43 22.5 79t15.5 75t9 87t3 114l24 862h289q0 -8 2 -67.5t4.5 -152.5t5.5 -210.5t6.5 -241.5t7.5 -246t7.5 -223.5t6.5 -174t5 -97.5q3 -33 12 -80.5t19.5 -100t23 -105.5t23 -97.5t18 -76 t10.5 -40.5h-319l-94 129l-2 164q-34 -63 -78 -116t-98 -91q-48 -35 -95 -59.5t-96.5 -40t-102.5 -22.5t-114 -7zM822 2490l190 -191l-383 -358l-165 166zM1412 2490l190 -191l-383 -358l-166 166z" />
<glyph unicode="&#x171;" horiz-adv-x="1442" d="M580 -43q-63 0 -119.5 13t-104.5 38q-48 23 -85 57.5t-66 77.5q-32 50 -48 123.5t-14 167.5l21 780h254l10 -778q3 -46 11 -77t16 -42q23 -32 63 -41.5t111 -9.5q43 0 75 13.5t57 36t45.5 53t39.5 65.5t28.5 90.5t12.5 153.5l6 536h256v-28q0 -66 1.5 -150t3 -173 t3.5 -177t4.5 -161.5t5.5 -126.5t7 -72q3 -18 10.5 -41.5t18.5 -50t24 -54t26 -53.5q31 -62 68 -127h-313l-66 170q-18 -29 -42 -60.5t-46 -50.5q-62 -52 -129 -77t-145 -25zM560 1913l190 -191l-383 -358l-165 166zM1150 1913l190 -191l-383 -358l-166 166z" />
<glyph unicode="&#x172;" horiz-adv-x="2007" d="M813 -43q-99 0 -184.5 16t-157.5 52q-71 35 -124 86t-87 114q-21 39 -33 83.5t-19 93t-9 99t-2 101.5q0 1 1 37t2.5 97.5t4 143t5 174t5 190t5 191t5 177.5t4 148.5t3 105.5t1.5 47h289l35 -1264v-8q0 -17 0.5 -42t4.5 -52t11.5 -52.5t22.5 -43.5q34 -40 74 -62t78.5 -32 t71.5 -11.5t54 -1.5q63 0 128.5 27.5t130.5 81.5q57 46 100.5 110t64.5 133q13 43 22.5 79t15.5 75t9 87t3 114l24 862h289q0 -8 2 -67.5t4.5 -152.5t5.5 -210.5t6.5 -241.5t7.5 -246t7.5 -223.5t6.5 -174t5 -97.5q3 -33 12 -80.5t19.5 -100t23 -105.5t23 -97.5t18 -76 t10.5 -40.5h-319l-94 129l-2 164q-34 -63 -78 -116t-98 -91q-48 -35 -95 -59.5t-96.5 -40t-102.5 -22.5t-114 -7zM906 -32v-138h-116q-31 0 -52 -21.5t-21 -51.5q0 -31 21 -52.5t52 -21.5h155v-150h-155q-47 0 -87.5 17.5t-71 48t-48 71t-17.5 87.5q0 36 11 69.5t31 61 t47.5 48t60.5 32.5h190z" />
<glyph unicode="&#x173;" horiz-adv-x="1442" d="M580 -43q-63 0 -119.5 13t-104.5 38q-48 23 -85 57.5t-66 77.5q-32 50 -48 123.5t-14 167.5l21 780h254l10 -778q3 -46 11 -77t16 -42q23 -32 63 -41.5t111 -9.5q43 0 75 13.5t57 36t45.5 53t39.5 65.5t28.5 90.5t12.5 153.5l6 536h256v-28q0 -66 1.5 -150t3 -173 t3.5 -177t4.5 -161.5t5.5 -126.5t7 -72q3 -18 10.5 -41.5t18.5 -50t24 -54t26 -53.5q31 -62 68 -127h-313l-66 170q-18 -29 -42 -60.5t-46 -50.5q-62 -52 -129 -77t-145 -25zM1282 0v-138h-116q-31 0 -52 -21.5t-21 -51.5q0 -31 21 -52.5t52 -21.5h155v-150h-155 q-47 0 -87.5 17.5t-71 48t-48 71t-17.5 87.5q0 36 11 69.5t31 61t47.5 48t60.5 32.5h190z" />
<glyph unicode="&#x178;" horiz-adv-x="1837" d="M657 0l121 817l-637 1096h316l501 -854l406 854h332l-578 -1098q-5 -60 -10 -127.5t-10 -134.5t-10 -129t-9 -111.5t-6 -81.5t-2 -38q-6 -8 -27.5 -34t-48 -56.5t-51.5 -59.5t-37 -43h-250zM1381 2105q0 -36 -13.5 -67.5t-37.5 -55.5t-55.5 -37.5t-67.5 -13.5t-67.5 13.5 t-55.5 37.5t-37.5 55.5t-13.5 67.5t13.5 68t37.5 55.5t55.5 37t67.5 13.5t67.5 -13.5t55.5 -37t37.5 -55.5t13.5 -68zM877 2105q0 -36 -14 -67.5t-38 -55.5t-55.5 -37.5t-66.5 -13.5q-36 0 -68 13.5t-56 37.5t-38 55.5t-14 67.5t14 68t38 55.5t56 37t68 13.5 q35 0 66.5 -13.5t55.5 -37t38 -55.5t14 -68z" />
<glyph unicode="&#x179;" horiz-adv-x="2095" d="M195 0l8 358l1093 1276h-960v279h1384v-295l-985 -1256h1030l138 -362h-1708zM1136 2498l190 -191l-393 -366l-164 166l367 391v0z" />
<glyph unicode="&#x17a;" horiz-adv-x="1415" d="M1286 0h-1153v260l688 750h-639v204h955v-213l-592 -716h641l100 -285v0v0zM796 1913l190 -191l-393 -366l-164 166l367 391v0z" />
<glyph unicode="&#x17b;" horiz-adv-x="2095" d="M195 0l8 358l1093 1276h-960v279h1384v-295l-985 -1256h1030l138 -362h-1708zM1048 1943q-38 0 -71.5 14t-58.5 39t-39.5 58t-14.5 71q0 37 14.5 70.5t39.5 59t58.5 40t71.5 14.5t71 -14.5t58 -40t39 -59t14 -70.5q0 -38 -14 -71t-38.5 -58t-58 -39t-71.5 -14z" />
<glyph unicode="&#x17c;" horiz-adv-x="1415" d="M1286 0h-1153v260l688 750h-639v204h955v-213l-592 -716h641l100 -285v0v0zM708 1497q-38 0 -71.5 14t-58.5 39t-39.5 58t-14.5 71q0 37 14.5 70.5t39.5 59t58.5 40t71.5 14.5t71 -14.5t58 -40t39 -59t14 -70.5q0 -38 -14 -71t-38.5 -58t-58 -39t-71.5 -14z" />
<glyph unicode="&#x17d;" horiz-adv-x="2095" d="M195 0l8 358l1093 1276h-960v279h1384v-295l-985 -1256h1030l138 -362h-1708zM719 2281l133 133l193 -199l197 199l133 -133l-329 -350l-327 350v0z" />
<glyph unicode="&#x17e;" horiz-adv-x="1415" d="M1286 0h-1153v260l688 750h-639v204h955v-213l-592 -716h641l100 -285v0v0zM380 1780l133 133l193 -199l197 199l133 -133l-329 -350l-327 350v0z" />
<glyph unicode="&#x192;" horiz-adv-x="1331" d="M233 -218q-45 0 -82 10t-65.5 24t-48 30.5t-28.5 28.5l-9 12l66 234l33 -18q23 -12 53.5 -25t73.5 -13q10 0 20.5 1t21.5 3q14 2 29 10t28.5 21.5t24.5 31t17 39.5h1l128 801h-226l52 240h208l65 354q30 131 87 213q45 68 113 99q70 35 175 35q45 0 82 -10t65.5 -24 t48 -30.5t28.5 -28.5l11 -13l-72 -171l-28 16q-23 12 -54 25t-73 13q-11 0 -21.5 -1t-21.5 -3q-12 -2 -24.5 -7t-24.5 -15t-22.5 -25.5t-16.5 -38.5l-56 -388h239l-53 -240h-222q-3 -26 -8.5 -72.5t-12.5 -105.5t-15 -126.5t-16.5 -136t-17 -133.5t-16 -119.5t-13.5 -93.5 t-10 -56q-18 -75 -45.5 -128t-49.5 -85q-44 -65 -131 -100q-40 -17 -87.5 -25.5t-99.5 -8.5z" />
<glyph unicode="&#x2c6;" horiz-adv-x="1151" d="M897 1565l-133 -133l-195 198l-196 -198l-133 133l329 348l328 -348v0z" />
<glyph unicode="&#x2c7;" horiz-adv-x="1707" d="M467 1780l133 133l193 -199l197 199l133 -133l-329 -350l-327 350v0z" />
<glyph unicode="&#x2d8;" d="M984 1753q0 -66 -16.5 -127t-52 -107.5t-90 -74.5t-129.5 -28t-129.5 29.5t-90 77t-52.5 108t-17 122.5h88q0 -42 14.5 -79t41 -65t63.5 -44.5t82 -16.5t81 15t62 42.5t41 65t17 82.5h87z" />
<glyph unicode="&#x2d9;" horiz-adv-x="1366" d="M684 1497q-38 0 -71.5 14t-58.5 39t-39.5 58t-14.5 71q0 37 14.5 70.5t39.5 59t58.5 40t71.5 14.5t71 -14.5t58 -40t39 -59t14 -70.5q0 -38 -14 -71t-38.5 -58t-58 -39t-71.5 -14z" />
<glyph unicode="&#x2da;" horiz-adv-x="1706" d="M698 1407q-53 0 -99 20t-80 54.5t-54 80.5t-20 99q0 52 20 98t54 80.5t80 54.5t99 20q52 0 98.5 -20t80.5 -54.5t54 -80.5t20 -98q0 -53 -20 -99t-54 -80.5t-80.5 -54.5t-98.5 -20zM698 1778q-24 0 -45.5 -9.5t-37.5 -25t-25 -37t-9 -45.5t9 -45.5t25 -37.5t37.5 -25 t45.5 -9t45.5 9t37.5 25t25 37.5t9 45.5t-9 45.5t-25 37t-37.5 25t-45.5 9.5z" />
<glyph unicode="&#x2db;" horiz-adv-x="1706" d="M806 0v-138h-116q-31 0 -52 -21.5t-21 -51.5q0 -31 21 -52.5t52 -21.5h155v-150h-155q-47 0 -87.5 17.5t-71 48t-48 71t-17.5 87.5q0 36 11 69.5t31 61t47.5 48t60.5 32.5h190z" />
<glyph unicode="&#x2dc;" horiz-adv-x="1706" d="M1321 1776l-334 -396l-262 250l-184 -211l-146 146l330 348l262 -244l195 244l139 -137v0z" />
<glyph unicode="&#x2dd;" horiz-adv-x="1958" d="M768 1913l190 -191l-383 -358l-165 166zM1358 1913l190 -191l-383 -358l-166 166z" />
<glyph unicode="&#x3a9;" horiz-adv-x="1911" d="M1248 0l-118 267q-8 17 -5 42.5t35 54.5l4 4q8 8 16 17t14 20q19 28 32 57t21.5 61.5t12 69.5t3.5 82q0 85 -20 150t-66 130q-50 71 -101 102t-120 31q-68 0 -120 -31.5t-102 -101.5q-46 -65 -65.5 -130t-19.5 -150q0 -45 3.5 -82t12 -69.5t21.5 -61.5t32 -57 q14 -23 29 -37h1l4 -4q32 -29 34.5 -54.5t-5.5 -42.5l-118 -267h-463v308h242q0 6 -8 20l-1 1l-3 7q-30 67 -46 139.5t-16 150.5q0 145 50 274q43 117 124 212q74 85 169.5 131.5t214.5 52.5h60q119 -6 215 -52.5t168 -131.5q41 -48 72 -101t54 -111q48 -128 48 -274 q0 -155 -62 -290v-1l-3 -7q-9 -14 -9 -20h242v-308h-463z" />
<glyph unicode="&#x1e0c;" horiz-adv-x="1966" d="M254 1913h653q122 0 235.5 -34t212 -96.5t179.5 -149.5t139 -193t89.5 -228t31.5 -254q0 -198 -53.5 -370.5t-155.5 -302.5q-101 -136 -248 -207q-75 -38 -157.5 -57t-173.5 -21h-805zM586 348h325q118 0 218 46.5t173 129t113.5 196.5t40.5 249q0 90 -21 174t-59.5 158 t-92 134.5t-118.5 104.5t-139.5 68t-153.5 24h-321zM1092 -487q0 -41 -16 -78t-43 -65t-64 -44t-79 -16t-79 16t-64.5 44t-43.5 65t-16 78q0 42 16 79.5t43.5 65.5t64.5 44t79 16t79 -16t64 -44t43 -65.5t16 -79.5z" />
<glyph unicode="&#x1e0d;" horiz-adv-x="1477" d="M647 -43h-2q-65 0 -111.5 15.5t-80.5 39.5t-58.5 54t-46.5 59l-4 4q-24 34 -52.5 84.5t-55.5 111t-50.5 129t-38.5 140.5q-18 81 -22.5 147t4.5 123q5 32 14.5 59t23 52t32 49t41.5 51q77 87 183.5 132.5t233.5 45.5q69 0 126 -15.5t110 -47.5q19 -11 39 -25.5t43 -36.5 l53 785h266l-55 -973v-39t0.5 -84t1 -110.5t1.5 -119t2.5 -108.5t4.5 -80t10.5 -68t17 -77.5t20 -78t19 -68.5t14 -48.5t5.5 -19.5l13 -39h-351v117q-29 -35 -62.5 -62.5t-68.5 -46.5q-52 -26 -104.5 -38.5t-114.5 -12.5zM678 1047q-12 0 -24 -1.5t-23 -3.5 q-77 -12 -127 -43t-88 -86q-21 -30 -26 -77t-0.5 -98t15.5 -99.5t23 -79.5q16 -44 28 -72t23 -50t24 -41.5t32 -45.5q18 -26 32 -42.5t35 -25.5t55 -12.5t93 -3.5q55 0 99 19.5t75 54.5q38 47 51 103.5t16 136.5q1 54 -3.5 102t-13 87.5t-19.5 69.5t-23 48 q-45 75 -111 117.5t-143 42.5zM979 -487q0 -41 -16 -78t-43 -65t-64 -44t-79 -16t-79 16t-64.5 44t-43.5 65t-16 78q0 42 16 79.5t43.5 65.5t64.5 44t79 16t79 -16t64 -44t43 -65.5t16 -79.5z" />
<glyph unicode="&#x1e24;" horiz-adv-x="1964" d="M1372 0l23 848l-449 10l-377 -10l25 -848h-395l53 1913h289l20 -731l385 -8l459 8l20 731h289l53 -1913h-395zM1186 -487q0 -41 -16 -78t-43 -65t-64 -44t-79 -16t-79 16t-64.5 44t-43.5 65t-16 78q0 42 16 79.5t43.5 65.5t64.5 44t79 16t79 -16t64 -44t43 -65.5 t16 -79.5z" />
<glyph unicode="&#x1e25;" horiz-adv-x="1384" d="M1253 0h-321l18 735v39v56.5t-2 55t-6.5 48.5t-13.5 37q-22 38 -66.5 55.5t-107.5 17.5t-113 -16.5t-90 -58.5q-20 -23 -30.5 -58.5t-15.5 -80.5t-6 -97t-1 -106l-4 -627h-320l33 1010l39 903h266l-20 -731q12 8 26 15.5t33 16.5q43 19 104 29t140 10q69 0 128 -11.5 t105 -33.5q53 -23 91 -59.5t63 -85.5q15 -29 25 -69t16.5 -83t9.5 -85.5t4 -75.5q0 -19 1 -60t2.5 -95t2.5 -116.5t2.5 -125t3 -120.5t2.5 -102.5t1.5 -72.5t0.5 -29v-29zM929 -487q0 -41 -16 -78t-43 -65t-64 -44t-79 -16t-79 16t-64.5 44t-43.5 65t-16 78q0 42 16 79.5 t43.5 65.5t64.5 44t79 16t79 -16t64 -44t43 -65.5t16 -79.5z" />
<glyph unicode="&#x1e62;" horiz-adv-x="1886" d="M920 -25q-184 0 -336 58q-66 25 -121 60t-98 83q-37 39 -65.5 75.5t-48.5 76t-33 84.5t-19 102l-2 33h393l6 -21q5 -17 11 -26t14 -19q2 -2 2 -3t2 -3q18 -24 42.5 -44.5t60.5 -35t86.5 -22.5t121.5 -8q80 0 151.5 20t137.5 64q40 25 57.5 64.5t17.5 107.5q2 32 -4 52 t-18 40q-25 40 -78 63q-22 11 -68.5 26t-105.5 34q-56 17 -117.5 36.5t-120.5 40.5q-57 21 -101 38t-82 33.5t-74.5 35.5t-79.5 45q-91 53 -134 135q-45 82 -45 197q0 65 10 120.5t31 103.5t53 89.5t76 79.5q45 38 94 65t106.5 44t125 24.5t150.5 7.5q99 0 176.5 -10 t140.5 -33h2q28 -9 54.5 -19t52.5 -24.5t52.5 -35t53.5 -50.5q56 -63 87.5 -143.5t31.5 -159.5v-29h-318v29q0 9 -2 23.5t-8.5 32t-18.5 36t-32 35.5q-14 12 -35 24t-55 21.5t-84 16t-121 6.5q-48 0 -86 -7.5t-67 -19.5t-51 -27t-40 -30q-31 -25 -43 -54t-12 -77 q0 -29 5 -42t17 -28q14 -15 32 -27.5t52 -27.5q9 -4 35 -12.5t61 -19.5t76 -24t81 -25.5t75.5 -23.5t59.5 -18q57 -16 115 -34t112.5 -37.5t102.5 -41t83 -43.5q44 -26 79.5 -68.5t59.5 -99.5q23 -54 35.5 -115t12.5 -126v-39q-7 -125 -52 -224.5t-133 -183.5 q-46 -43 -107.5 -79t-135.5 -62q-85 -29 -171 -44.5t-171 -15.5zM1152 -487q0 -41 -16 -78t-43 -65t-64 -44t-79 -16t-79 16t-64.5 44t-43.5 65t-16 78q0 42 16 79.5t43.5 65.5t64.5 44t79 16t79 -16t64 -44t43 -65.5t16 -79.5z" />
<glyph unicode="&#x1e63;" horiz-adv-x="1290" d="M627 -43q-131 0 -228 34t-157 103q-26 31 -44 57.5t-30 55t-19.5 63t-13.5 80.5h305q0 -26 4.5 -37.5t14.5 -19.5q6 -4 16.5 -8.5t30 -8t50 -6t75.5 -2.5q36 0 61 1.5t44 6t34.5 12t32.5 19.5q15 11 25.5 20t16.5 19t8.5 22.5t2.5 30.5q-2 32 -27.5 57.5t-80.5 45.5 q-10 3 -29 9t-42 13t-47.5 14t-45 13t-34.5 10t-15 4q-60 17 -119.5 41.5t-98.5 48.5q-68 43 -99.5 98t-35.5 138q-2 43 3 78.5t18.5 67t36.5 59.5t57 57q31 27 66 46t75 31t86 17.5t101 5.5q135 0 224 -26t148 -86q44 -44 67 -97.5t23 -109.5v-29h-258v29q-2 15 -7.5 29 t-20.5 32q-7 8 -18 17t-30 17t-49 13t-75 5q-57 0 -90 -9t-58 -26q-24 -17 -36.5 -35.5t-12.5 -56.5q0 -26 12 -43t48 -41q23 -17 48.5 -27.5t67.5 -20.5l123 -30q61 -15 108.5 -28.5t85 -27t66 -28t49.5 -29.5q121 -87 115 -280q-5 -83 -34.5 -146t-92.5 -123 q-32 -31 -75.5 -56.5t-94.5 -43.5q-54 -19 -112.5 -29t-118.5 -10zM826 -487q0 -41 -16 -78t-43 -65t-64 -44t-79 -16t-79 16t-64.5 44t-43.5 65t-16 78q0 42 16 79.5t43.5 65.5t64.5 44t79 16t79 -16t64 -44t43 -65.5t16 -79.5z" />
<glyph unicode="&#x1e6c;" horiz-adv-x="1661" d="M631 0l47 1632h-604v281h1511v-281h-604l45 -1632h-395zM1030 -487q0 -41 -16 -78t-43 -65t-64 -44t-79 -16t-79 16t-64.5 44t-43.5 65t-16 78q0 42 16 79.5t43.5 65.5t64.5 44t79 16t79 -16t64 -44t43 -65.5t16 -79.5z" />
<glyph unicode="&#x1e6d;" horiz-adv-x="1223" d="M688 -43q-80 0 -147 24t-107 66q-32 35 -47.5 85.5t-13.5 119.5l22 727h-289v235h295l31 521h135l107 -140l-8 -381h282l94 -124v-111h-378l-2 -643q0 -70 22 -86q14 -9 35 -11.5t43 -2.5h4q29 0 67 6.5t70 17.5q16 5 34 14t33 18q18 10 34 21l83 -268l-20 -12 q-18 -12 -33.5 -19.5t-31.5 -12.5t-34.5 -9.5t-43.5 -9.5l-42.5 -8.5t-50.5 -8t-63 -6t-80 -2.5zM913 -487q0 -41 -16 -78t-43 -65t-64 -44t-79 -16t-79 16t-64.5 44t-43.5 65t-16 78q0 42 16 79.5t43.5 65.5t64.5 44t79 16t79 -16t64 -44t43 -65.5t16 -79.5z" />
<glyph unicode="&#x1e92;" horiz-adv-x="2095" d="M195 0l8 358l1093 1276h-960v279h1384v-295l-985 -1256h1030l138 -362h-1708zM1231 -486q0 -41 -16 -78t-43 -65t-64 -44t-79 -16t-79 16t-64.5 44t-43.5 65t-16 78q0 42 16 79.5t43.5 65.5t64.5 44t79 16t79 -16t64 -44t43 -65.5t16 -79.5z" />
<glyph unicode="&#x1e93;" horiz-adv-x="1415" d="M1286 0h-1153v260l688 750h-639v204h955v-213l-592 -716h641l100 -285v0v0zM889 -487q0 -41 -16 -78t-43 -65t-64 -44t-79 -16t-79 16t-64.5 44t-43.5 65t-16 78q0 42 16 79.5t43.5 65.5t64.5 44t79 16t79 -16t64 -44t43 -65.5t16 -79.5z" />
<glyph unicode="&#x2013;" horiz-adv-x="2382" d="M367 455v348h1701v-348h-1701z" />
<glyph unicode="&#x2014;" horiz-adv-x="2383" d="M367 455v348h1701v-348h-1701z" />
<glyph unicode="&#x2018;" horiz-adv-x="866" d="M356 807q-42 0 -79 16t-64 43.5t-43 64.5t-16 79q0 122 5.5 203t16.5 135.5t28 88.5t40 62q25 30 58 49.5t63 31.5q35 14 71 22l23 -134q-38 -9 -66 -27t-51 -46q-13 -17 -21.5 -35t-14 -40.5t-7.5 -51t-2 -66.5q12 6 29.5 8t29.5 2q42 0 79 -16t64.5 -43t43.5 -64 t16 -79t-16 -79t-43.5 -64.5t-64.5 -43.5t-79 -16z" />
<glyph unicode="&#x2019;" horiz-adv-x="868" d="M356 1563q42 0 79.5 -16t65.5 -43.5t44 -64.5t16 -79q0 -122 -5.5 -203.5t-16.5 -136t-28 -88.5t-40 -62q-26 -30 -59.5 -49.5t-62.5 -31.5q-35 -14 -70 -21l-25 133q40 9 68 27.5t51 46.5q12 17 20.5 35t13.5 40.5t7 50.5t2 66q-11 -6 -28.5 -8t-31.5 -2q-41 0 -78 16 t-64.5 43.5t-43.5 64.5t-16 79t16 79t43.5 64.5t64.5 43.5t78 16z" />
<glyph unicode="&#x201a;" horiz-adv-x="813" d="M408 365q42 0 79 -16t64 -43.5t43 -64.5t16 -79q0 -122 -5 -203.5t-16 -136t-28 -88.5t-41 -62q-26 -30 -58.5 -50t-62.5 -31q-35 -14 -71 -21l-23 131q38 11 66 29.5t53 46.5q12 17 20.5 35t13.5 40.5t7 50.5t2 66q-11 -6 -29 -8t-30 -2q-42 0 -79 16t-64.5 43.5 t-43.5 64.5t-16 79t16 79t43.5 64.5t64.5 43.5t79 16z" />
<glyph unicode="&#x201c;" horiz-adv-x="1522" d="M356 807q-42 0 -79 16t-64 43.5t-43 64.5t-16 79q0 122 5 203t15.5 135.5t27.5 88.5t40 62q25 30 58 49.5t63 31.5q35 14 71 22l25 -134q-38 -9 -66 -27t-53 -46q-12 -17 -20.5 -35t-13.5 -40.5t-7 -51t-2 -66.5q11 6 28 8t31 2q42 0 79 -16t64.5 -43t43.5 -64t16 -79 t-16 -79t-43.5 -64.5t-64.5 -43.5t-79 -16zM1012 807q-42 0 -79 16t-64.5 43.5t-43.5 64.5t-16 79q0 122 5.5 203t16.5 135.5t28 88.5t40 62q26 30 59 49.5t63 31.5q35 14 71 22l22 -134q-38 -9 -66 -27t-51 -46q-13 -17 -21.5 -35t-14 -40.5t-7.5 -51t-2 -66.5q13 6 30 8 t30 2q42 0 79 -16t64 -43t43 -64t16 -79t-16 -79t-43 -64.5t-64 -43.5t-79 -16z" />
<glyph unicode="&#x201d;" horiz-adv-x="1526" d="M1014 1563q41 0 78 -16t64.5 -43.5t44 -64.5t16.5 -79q0 -122 -5.5 -203.5t-17 -136t-28.5 -88.5t-40 -62q-26 -30 -58.5 -49.5t-62.5 -31.5q-35 -14 -71 -21l-23 131q39 11 66.5 29.5t50.5 46.5q13 17 21.5 35t14 40.5t7.5 50.5t2 66q-12 -6 -29.5 -8t-29.5 -2 q-42 0 -79.5 16t-65.5 43.5t-44 64.5t-16 79t16 79t44 64.5t65.5 43.5t79.5 16zM356 1563q42 0 79 -16t64.5 -43.5t43.5 -64.5t16 -79q0 -122 -5 -203.5t-16 -136t-27.5 -88.5t-39.5 -62q-26 -30 -59.5 -49.5t-62.5 -31.5q-35 -14 -70 -21l-25 131q38 11 66 29.5t53 46.5 q12 17 20.5 35t13.5 40.5t7 50.5t2 66q-11 -6 -28.5 -8t-31.5 -2q-42 0 -79 16t-64 43.5t-43 64.5t-16 79t16 79t43 64.5t64 43.5t79 16z" />
<glyph unicode="&#x201e;" horiz-adv-x="1468" d="M1065 365q42 0 78.5 -16t64.5 -43.5t44 -64.5t16 -79q0 -122 -5.5 -203.5t-16.5 -136t-28 -88.5t-40 -62q-26 -30 -59 -50t-63 -31q-35 -14 -71 -21l-22 131q38 11 65.5 29.5t50.5 46.5q13 17 21.5 35t14 40.5t7.5 50.5t2 66q-12 -6 -29.5 -8t-29.5 -2q-42 0 -79.5 16 t-65.5 43.5t-44 64.5t-16 79t16 79t44 64.5t65.5 43.5t79.5 16zM408 365q42 0 79 -16t64 -43.5t43 -64.5t16 -79q0 -122 -5 -203.5t-15.5 -136t-27.5 -88.5t-40 -62q-26 -30 -58.5 -50t-62.5 -31q-35 -14 -71 -21l-25 131q38 11 66 29.5t53 46.5q12 17 20.5 35t13.5 40.5 t7 50.5t2 66q-11 -6 -28 -8t-31 -2q-42 0 -79 16t-64.5 43.5t-43.5 64.5t-16 79t16 79t43.5 64.5t64.5 43.5t79 16z" />
<glyph unicode="&#x2020;" horiz-adv-x="1218" d="M567 -144l-10 12q-1 1 -13.5 19t-26.5 46t-25 62.5t-10 70.5l3 138l19 820h-64l-85 -3h-4q-25 0 -48.5 7.5t-42.5 17.5t-32 19t-16 11l-12 9v68l12 10q1 1 13.5 9.5t32 18.5t44.5 18t52 8q37 0 60.5 -1t32.5 -2h62l11 401l89 -73l90 73l10 -401h63q9 1 32.5 2t60.5 1 q27 0 52 -8t44.5 -18t32 -18.5t13.5 -9.5l11 -10v-68l-12 -9q-3 -2 -15.5 -11t-31.5 -19t-43 -17.5t-49 -7.5h-3l-85 3h-65l20 -820l3 -138q1 -36 -10 -70.5t-25 -62.5t-26.5 -46t-13.5 -19l-10 -12h-85z" />
<glyph unicode="&#x2021;" horiz-adv-x="1218" d="M652 1582l9 -12q1 -2 13.5 -19.5t26.5 -45.5t25.5 -62.5t10.5 -70.5l-4 -139l-1 -19h39q9 1 32.5 1.5t60.5 0.5q27 0 52 -8t44.5 -18t32 -18.5t13.5 -9.5l12 -10v-68l-12 -9q-3 -2 -16 -11t-32 -19t-42.5 -17.5t-48.5 -7.5h-4l-85 3h-50l-7 -303l7 -306h51l84 3h4 q25 0 48.5 -8t43 -17.5t32 -18.5t15.5 -11l12 -9v-68l-12 -10q-1 -1 -13.5 -9.5t-32 -18.5t-44.5 -18t-52 -8q-23 1 -42 1h-31.5t-19.5 1h-39l1 -20l4 -138q1 -36 -10.5 -70.5t-25.5 -62.5t-26.5 -46t-13.5 -19l-10 -12h-85l-9 12q-2 1 -14 19t-26.5 46t-25.5 62.5t-10 70.5 l4 138v20h-38q-5 -1 -19.5 -1h-31.5q-19 0 -42 -1q-27 0 -52.5 8t-45 18t-32 18.5t-13.5 9.5l-11 10v68l12 9q3 2 15.5 11t31.5 18.5t43 17.5t49 8h3l85 -3h51l6 303l-6 305h-51l-85 -2h-3q-25 0 -49 7.5t-43 17.5t-31.5 18.5t-15.5 10.5l-12 10v68l11 9q1 1 13.5 10t32 19 t45 18t52.5 8q37 0 60 -1t32 -1h39v19l-4 139q-1 36 10.5 70.5t25.5 62.5t26.5 45.5t13.5 19.5l9 12h86z" />
<glyph unicode="&#x2022;" horiz-adv-x="1436" d="M1030 631q0 -75 -28 -140.5t-77 -114.5t-114.5 -77.5t-140.5 -28.5t-140.5 28.5t-114.5 77.5t-77.5 114.5t-28.5 140.5q0 74 28.5 139.5t77.5 114.5t114.5 77.5t140.5 28.5t140.5 -28.5t114.5 -77.5t77 -114.5t28 -139.5z" />
<glyph unicode="&#x2026;" horiz-adv-x="2568" d="M610 178q0 -41 -16 -78t-43 -65t-64 -44t-79 -16t-79 16t-64.5 44t-43.5 65t-16 78q0 42 16 79.5t43.5 65.5t64.5 44t79 16t79 -16t64 -44t43 -65.5t16 -79.5zM1427 178q0 -41 -16 -78t-43 -65t-64 -44t-79 -16t-79 16t-64.5 44t-43.5 65t-16 78q0 42 16 79.5t43.5 65.5 t64.5 44t79 16t79 -16t64 -44t43 -65.5t16 -79.5zM2245 178q0 -41 -16 -78t-43.5 -65t-64.5 -44t-79 -16t-79 16t-64.5 44t-43.5 65t-16 78q0 42 16 79.5t43.5 65.5t64.5 44t79 16t79 -16t64.5 -44t43.5 -65.5t16 -79.5z" />
<glyph unicode="&#x2030;" horiz-adv-x="2755" d="M546 0l535 1777h293l-534 -1777h-294zM484 942q-69 0 -130 26.5t-106.5 72t-72 106.5t-26.5 130t26.5 130t72 106.5t106.5 72t130 26.5t130 -26.5t106.5 -72t72 -106.5t26.5 -130t-26.5 -130t-72 -106.5t-106.5 -72t-130 -26.5zM484 1394q-24 0 -45.5 -9t-37 -25 t-25 -37.5t-9.5 -45.5t9.5 -45.5t25 -37t37 -25t45.5 -9.5t45.5 9.5t37.5 25t25 37t9 45.5t-9 45.5t-25 37.5t-37.5 25t-45.5 9zM1464 254q-69 0 -130 26.5t-106.5 72t-72 106.5t-26.5 130t26.5 130t72 106.5t106.5 72t130 26.5t130 -26.5t106.5 -72t72 -106.5t26.5 -130 t-26.5 -130t-72 -106.5t-106.5 -72t-130 -26.5zM1464 706q-24 0 -45.5 -9t-37.5 -25t-25 -37.5t-9 -45.5t9 -45.5t25 -37t37.5 -25t45.5 -9.5t45.5 9.5t37 25t25 37t9.5 45.5t-9.5 45.5t-25 37.5t-37 25t-45.5 9zM2240 254q-69 0 -130.5 26.5t-107 72t-72 106.5t-26.5 130 t26.5 130t72 106.5t107 72t130.5 26.5t130 -26.5t106.5 -72t72 -106.5t26.5 -130t-26.5 -130t-72 -106.5t-106.5 -72t-130 -26.5zM2240 706q-24 0 -45.5 -9t-37.5 -25t-25 -37.5t-9 -45.5t9 -45.5t25 -37t37.5 -25t45.5 -9.5t45 9.5t37 25t25 37t9 45.5t-9 45.5t-25 37.5 t-37 25t-45 9z" />
<glyph unicode="&#x2039;" horiz-adv-x="1706" d="M883 0l-371 637l422 577h276l-407 -577l403 -637h-323z" />
<glyph unicode="&#x203a;" horiz-adv-x="1706" d="M494 0l405 637l-407 577h276l422 -577l-371 -637h-325z" />
<glyph unicode="&#x2044;" horiz-adv-x="1208" d="M94 0l647 1999h289l-565 -1999h-371z" />
<glyph unicode="&#x20ac;" horiz-adv-x="2404" d="M1368 -43q-93 0 -176.5 17t-159.5 49q-77 34 -143 83.5t-119 114.5q-78 96 -130.5 213t-78.5 250h-336v268h318q0 34 1.5 67.5t6.5 65.5h-326v238h373q29 93 73.5 171.5t104.5 147.5q59 69 130.5 119.5t156.5 85.5q80 34 167 50t181 16q313 0 508 -150q68 -54 118 -132 t81 -183l10 -39h-373l-4 27q-6 35 -24.5 63t-32.5 43q-47 49 -113.5 70.5t-169.5 21.5q-67 0 -131 -21t-120.5 -59t-102 -92.5t-74.5 -120.5q-2 -5 -3.5 -9t-4.5 -9h612v-238h-674q-2 -20 -3 -43t-1 -49v-21t2 -20h676v-268h-620q12 -34 22 -62.5t23 -50.5q3 -5 5 -10t5 -10 q13 -26 35.5 -61t64 -67t106 -54.5t161.5 -22.5h2q45 0 88 4t78.5 10.5t61.5 14.5t38 16q25 17 40.5 46.5t18.5 64.5l4 26h441v-28q0 -154 -80 -275q-29 -42 -67.5 -79.5t-86.5 -69.5q-52 -35 -115.5 -60t-142.5 -39q-78 -14 -157 -17t-144 -3z" />
<glyph unicode="&#x2122;" horiz-adv-x="1419" d="M305 1356l10 440h-161v117h446v-117h-162l15 -440h-148zM1112 1356l10 299l-80 -219h-141l-80 219l10 -299h-155l39 557h127l129 -303l131 303h127l37 -557h-154z" />
<glyph unicode="&#x2202;" horiz-adv-x="1711" d="M710 -43q-62 0 -122 17t-113.5 46.5t-99 69t-79.5 85.5q-33 45 -56 105.5t-34 130.5t-11 146t14 151q26 146 98 265q33 56 73.5 95.5t92.5 75.5q48 34 92 55t89 33t94.5 16.5t110.5 4.5h38q47 0 98 -9.5t96 -32.5q37 -19 73.5 -47t68.5 -62q28 44 45.5 87t27.5 85.5 t14 83.5t6 82q3 40 3 69t-4 52t-11.5 42.5t-20.5 41.5q-23 39 -73 50t-134 11h-1q-42 0 -86 -3t-79 -15q-22 -8 -38.5 -20t-25.5 -27q-11 -16 -5.5 -38t13.5 -46q5 -15 9.5 -30.5t6 -31.5t-2 -31t-14.5 -28q-28 -34 -97 -34q-32 0 -66.5 6t-66.5 13.5t-58 15.5t-40 12l22 44 t32.5 65.5t35 70t30.5 56.5q75 131 241 191q15 6 41 12.5t59 12t71 9.5t79 4q183 0 280 -83q31 -27 55.5 -55t41.5 -63t26.5 -79.5t11.5 -105.5q2 -51 1 -97.5t-7.5 -106t-19.5 -140.5t-35 -202q-6 -32 -17 -86.5t-26 -124t-34 -149.5t-42 -162q-38 -134 -101 -231 q-57 -88 -147 -160q-43 -36 -89 -58t-97.5 -34t-110 -16t-126.5 -4zM761 266q44 0 74 5t52.5 14.5t42 23.5t42.5 32q71 55 132 262q17 59 23 104t3.5 80t-11 63.5t-21.5 55.5q-16 34 -36 62.5t-46.5 49.5t-59.5 32.5t-75 11.5h-9q-51 1 -89 -3.5t-68.5 -14.5t-56 -26 t-51.5 -40q-61 -56 -92.5 -122t-46.5 -152q-8 -43 -8.5 -80t5 -71t16 -66t24.5 -66q14 -33 37.5 -61.5t55.5 -49.5t71.5 -32.5t85.5 -11.5h6z" />
<glyph unicode="&#x2206;" horiz-adv-x="1707" d="M852 1254l589 -1254h-1178zM852 905l-218 -638h436z" />
<glyph unicode="&#x2211;" horiz-adv-x="1674" d="M200 0l633 1018l-582 896h1223v-379l-234 118h-462l443 -633l-373 -673h345l281 142v-489h-1274z" />
<glyph unicode="&#x2212;" d="M101 383v348h1178v-348h-1178z" />
<glyph unicode="&#x221a;" horiz-adv-x="2171" d="M777 -2l-308 943h-213l-106 271h574l254 -645l531 1347h513l-93 -238h-249l-547 -1678l-171 -515z" />
<glyph unicode="&#x221e;" horiz-adv-x="2028" d="M1337 150q-71 0 -131 24.5t-110 64.5q-60 49 -100 125q-37 -58 -90 -94q-45 -31 -101 -42.5t-131 -11.5q-86 0 -156.5 30.5t-122.5 95.5q-46 57 -70.5 131.5t-24.5 159.5q0 82 21 151t63 120q23 30 53.5 53t65.5 39q38 17 81 23t92 6q63 0 111.5 -10.5t86.5 -35.5 q44 -29 77 -80q12 18 26.5 37.5t30.5 38t34 34.5t37 28q57 34 121.5 48t136.5 14q98 0 172 -35.5t124 -93.5q95 -110 95 -317q0 -107 -25.5 -196t-73.5 -155q-54 -71 -127.5 -111.5t-164.5 -40.5zM1076 569q14 -49 32.5 -88.5t48.5 -67t73.5 -42.5t106.5 -15q45 0 83.5 24 t67 64.5t45 94.5t16.5 114q0 65 -14 116t-42 86q-26 35 -65.5 62t-88.5 27h-1q-40 0 -69 -4t-51 -12.5t-37.5 -21t-27.5 -29.5q-14 -20 -23.5 -49t-16.5 -64.5t-13.5 -76t-15.5 -82.5q-2 -11 -5 -24t-3 -12zM674 876q-101 0 -158.5 -63t-57.5 -183q0 -42 14.5 -82.5 t42.5 -72t68 -51t91 -19.5t81 4t46 20q19 20 29 60t17 86q3 18 6 33t5 26q5 21 7.5 35.5t3.5 24.5q-24 111 -75 153q-21 17 -49.5 23t-70.5 6z" />
<glyph unicode="&#x2260;" d="M328 0l83 277h-302v300h392l71 234h-463v299h554l83 277h291l-84 -277h302v-299h-392l-71 -234h463v-300h-553l-83 -277h-291z" />
<glyph unicode="&#x2264;" horiz-adv-x="1578" d="M887 436l-517 544l569 460h276l-554 -460l550 -544h-324zM200 0v240h1178v-240h-1178z" />
<glyph unicode="&#x2265;" horiz-adv-x="1578" d="M367 436l550 544l-554 460h276l569 -460l-517 -544h-324zM200 0v240h1178v-240h-1178z" />
<glyph unicode="&#x25ca;" horiz-adv-x="1706" d="M582 0l-371 637l422 577h438l422 -577l-371 -637h-540v0zM852 84l352 553l-352 496l-352 -496z" />
<glyph unicode="&#x25fc;" horiz-adv-x="1215" d="M0 1215h1215v-1215h-1215v1215z" />
<glyph unicode="&#xf8ff;" horiz-adv-x="3805" d="M942 1218h71q-2 -8 -3.5 -11.5t-3.5 -7.5q-1 -5 -3 -10.5t-4 -13.5q-3 -8 -5.5 -16t-6.5 -18q-3 -10 -6.5 -20.5t-6.5 -21.5q-5 -11 -8.5 -22.5t-7.5 -23.5q-5 -12 -8.5 -24t-7.5 -24q-4 -11 -7.5 -22t-7.5 -22t-7 -20.5t-6 -18.5q-3 -8 -5.5 -15.5t-4.5 -14.5 l-3.5 -10.5t-2.5 -6.5q-2 -7 -4 -13.5t-4 -11.5q-2 -6 -3.5 -11.5t-3.5 -10.5l-10 -30q-3 -13 -8 -23q-2 -5 -3.5 -9.5t-3.5 -7.5q-2 -4 -4.5 -7t-4.5 -6q-3 -5 -6.5 -8t-6.5 -6q-8 -5 -16 -8q-4 -2 -9 -2.5t-10 -1.5q-5 0 -11 -0.5t-14 -0.5q-14 0 -31 5q-8 4 -14 7.5 t-12 8.5l-3 3l11 67l10 -10q1 0 2 -1t3 -1q1 -1 2.5 -1.5t3.5 -1.5h11q5 -1 19 -1q7 0 10 1q4 0 7 3q2 2 2.5 3t2.5 3q0 4 3 9q1 3 2 7t3 10t5 13t5 15t5 16t6 17t5.5 17t6.5 16q2 8 4 15t4 13q4 12 7 18l-129 249h72l87 -163zM1862 701q3 -3 4 -5l1 -2l-8 -31h-10l-2 4 q0 2 -1 2.5t-1 1.5q-1 1 -3 1q-1 1 -2 1t-2 1h-1h-2h-5h-7q-3 0 -4 -1q-4 -2 -5 -3q-1 -2 -1.5 -2.5t-1.5 -2.5q0 -1 -0.5 -2t-0.5 -2v-17v-50h48v-39h-47l2 -118l-15 -44h-37l4 162h-40v39h41l1 59q1 8 1 13.5t1 10.5q2 11 4 14q2 4 3 5q1 2 5 6q4 2 6 4q2 1 5 1.5t5 1.5 q1 0 2.5 0.5t3.5 0.5h7h7h7h2h14q5 0 15 -5q2 -1 3.5 -2t3.5 -2zM1719 887q-30 0 -57 11q-24 9 -45 31q-44 45 -44 119q0 37 12 70q3 8 6 15.5t7 14.5q10 17 19 27q11 12 22.5 21.5t25.5 17.5q8 3 15 6t15 5q15 3 32 3q12 0 22.5 -1t18.5 -4q8 -2 14.5 -5t11.5 -5 q13 -8 27 -18q6 -6 11.5 -13t10.5 -15q3 -5 6.5 -11.5t6.5 -13.5q2 -8 4.5 -15.5t4.5 -15.5q3 -30 -15 -49q-9 -12 -30 -20q-17 -7 -45 -7l-125 -8q1 -5 1.5 -9.5t2.5 -9.5q2 -9 10 -18l4 -4l4 -4q4 -4 10 -7q7 -4 15 -5q4 -1 9 -1h11h2h18h17q4 1 7 1t7 1q6 0 9 2q2 0 3 1 t3 2q1 1 3 8l1 6h80v-7q0 -6 -1 -12.5t-3 -11.5q-3 -13 -11 -22q-3 -5 -6.5 -8.5l-6.5 -6.5q-4 -3 -7 -5.5t-6 -5.5q-4 -2 -8 -4.5t-8 -4.5t-7.5 -3.5t-7.5 -3.5t-7.5 -2.5t-6.5 -1.5q-5 0 -13 -2q-5 -1 -10.5 -1.5t-12.5 -0.5h-26zM1656 1119q-3 -8 -5 -15.5t-3 -16.5 l122 6h7q2 1 4 1.5t4 1.5q2 0 3 1t3 2q3 2 5 5q6 12 -4 34q-4 9 -12 17q-9 7 -17 12q-9 4 -17 5q-5 1 -9 1.5t-8 0.5q-11 0 -18 -3q-8 -1 -16 -6q-4 -2 -7 -4.5t-6 -4.5q-3 -4 -6 -6.5t-5 -6.5q-11 -9 -15 -24zM1517 968l28 -70h-104q-5 0 -9 1t-8 3q-9 4 -15 11q-3 4 -7 12 q-3 6 -3 16v21v2q0 1 0.5 3t0.5 4v21q0 30 1.5 64.5t1.5 90.5q2 23 2.5 47t0.5 56q0 17 0.5 34.5t0.5 43.5q0 10 0.5 18t0.5 15v24v9v7h70v-7v-9v-23v-34q0 -41 -1.5 -83t-1.5 -95v-39v-39v-93v-6q0 -1 0.5 -1.5t0.5 -1.5q2 -2 8 -2h33zM664 914l2 -6l3 -10h-92v31 q-8 -10 -16 -16q-5 -4 -9.5 -7t-9.5 -6q-14 -6 -27 -9q-12 -4 -30 -4h-1q-8 0 -15.5 1t-13.5 3q-10 4 -21 11q-8 5 -15 14q-7 7 -13 16h-1q-3 5 -6.5 10.5t-7.5 12.5q-3 7 -7 14t-7 15q-8 16 -14 34q-3 9 -5.5 18t-4.5 19q-5 23 -5 38q-2 9 -1.5 17t1.5 16q2 4 2 7.5t2 7.5 q4 10 7 14q2 3 3.5 6.5t4.5 6.5q2 3 5 6.5t6 7.5q19 22 48 34q28 12 62 12q8 0 16.5 -1t15.5 -3q8 -2 15 -5t15 -7q2 -2 5 -3.5t5 -3.5t5 -4.5t6 -5.5l14 206h70l-15 -255v-11v-22v-13.5t1 -14.5v-32q0 -8 0.5 -15t0.5 -13q0 -7 0.5 -12t0.5 -10q1 -4 1.5 -8t1.5 -9t2 -10.5 t2 -10.5q2 -5 3 -10t3 -10t2.5 -9.5t1.5 -8.5q2 -5 2.5 -8t1.5 -5zM575 1051q1 8 0.5 14.5t-1.5 12.5q0 6 -1 12t-2 11q-2 5 -3 9.5t-2 8.5q-2 5 -6 13q-12 19 -29 30q-18 12 -38 12q-4 0 -6 -1h-6q-20 -3 -34 -12q-7 -4 -12.5 -9.5t-10.5 -12.5q-6 -8 -7 -21v-25 q1 -7 1.5 -13.5t2.5 -13.5q4 -14 7 -20q3 -13 6 -19q4 -10 6 -13t3.5 -6t3.5 -5l4 -6t4 -7q6 -8 9 -11q2 -2 4 -3.5t5 -2.5q5 -3 15 -4h24q15 0 26 4q10 5 20 15q10 14 13 27q4 13 4 36zM2002 827q-35 0 -60 25t-25 61v275q0 36 25 61t60 25h277q35 0 60 -25t25 -61v-275 q0 -36 -25 -61t-60 -25h-277zM1962 913q0 -17 12 -29t28 -12h277q17 0 28.5 12t11.5 29v275q0 17 -11.5 29t-28.5 12h-277q-16 0 -28 -12t-12 -29v-275zM2456 1296q-8 2 -15.5 9.5t-10.5 15.5q-2 5 -3 10t-1 10t1 9t3 9q6 16 26 26q8 4 19 4t18 -4q9 -5 15 -11t11 -15 q2 -5 3 -9t1 -9t-1 -10t-3 -10q-5 -8 -10.5 -14.5t-14.5 -10.5q-8 -4 -19 -4t-19 4zM2671 898q-23 9 -44 31q-44 45 -44 119q0 35 11 70q3 8 6.5 15.5t7.5 14.5q4 8 9 14.5t10 12.5q21 24 48 39q14 6 30 11q15 3 32 3q26 0 40 -5q8 -2 15 -5t12 -5q3 -2 6 -3.5t7 -4.5 q7 -5 13 -10q4 -3 7 -6.5t6 -6.5q2 -4 4.5 -7.5t4.5 -7.5q3 -5 6.5 -11.5t6.5 -13.5q6 -15 9 -31q3 -29 -14 -49q-11 -13 -30 -20q-17 -7 -45 -7l-125 -8q1 -5 1.5 -9.5t2.5 -9.5q3 -11 9 -18q2 -2 4.5 -4t4.5 -4q2 -3 10 -7q7 -4 14 -5q5 -1 10 -1h11h2h18h17q3 1 6.5 1 t6.5 1q7 0 10 2q2 0 5 3q2 1 4 8v6h81v-7q0 -6 -1 -12.5t-3 -11.5q-3 -10 -11 -22q-5 -8 -14 -15q-4 -3 -7 -5.5t-6 -5.5q-4 -2 -7.5 -4.5t-7.5 -4.5t-8 -3.5t-7 -3.5q-5 -2 -15 -4q-4 0 -12 -2q-5 -1 -10.5 -1.5t-12.5 -0.5h-26q-31 0 -58 11zM2665 1119q-3 -8 -5 -15.5 t-2 -16.5l121 6h8q3 1 7 3q2 0 3 1t3 2q4 1 6 5q6 12 -4 34q-3 5 -6 9l-6 8q-5 4 -8.5 6.5t-8.5 5.5q-9 4 -18 5q-5 1 -8.5 1.5t-8.5 0.5q-10 0 -17 -3q-8 -1 -16 -6q-4 -2 -7 -4.5t-6 -4.5q-3 -4 -6 -6.5t-6 -6.5q-9 -9 -15 -24zM2509 1218l7 -320h-82l7 320h68zM2095 1005 h-106v91h106v107h90v-107h108v-91h-108v-107h-90v107zM1299 1068q31 -22 30 -74q-2 -22 -9 -38q-8 -17 -25 -33q-9 -9 -20 -14q-12 -8 -24 -11q-8 -3 -15 -5t-15 -3q-15 -3 -31 -3q-35 0 -60 9q-26 9 -41 27q-9 10 -12 16q-5 7 -8 14q-2 4 -2.5 7.5t-2.5 8.5q-1 5 -1.5 10 t-2.5 11h81q0 -7 1 -9q2 -4 4 -6l4 -2q2 0 8 -2q6 0 13.5 -1t19.5 -1h16q3 1 6 1t6 1l9 3q2 1 8 5q2 2 3.5 3t3.5 2q2 2 4 6q2 2 2 5q1 3 1 8q0 8 -7 15q-5 7 -21 13q-2 0 -8 2q-3 1 -11 3l-6 2l-6 2q-8 2 -12 4q-5 0 -9 2q-1 0 -1.5 0.5t-1.5 0.5h-1q-8 2 -16 5l-16 6 t-14 6.5t-11 6.5q-17 10 -27 25q-8 15 -9 37v11t1 10t2 9t3 8q3 8 9 16q6 7 15 15q5 4 8.5 6.5t8.5 5.5l10 4l10 4q13 4 23 5q6 0 12.5 0.5t13.5 0.5q38 0 59 -7q24 -8 40 -22q11 -13 17 -26q6 -14 6 -29v-8h-68v8q0 3 -2 7q-2 6 -5 9t-5 4q-2 3 -8 5q-2 2 -5.5 2.5 t-6.5 1.5q-5 0 -10 0.5t-10 0.5q-15 0 -24 -3q-10 -2 -15 -7q-3 -2 -5.5 -4t-4.5 -4q-3 -6 -3 -15q0 -8 3 -12q2 -3 13 -11q5 -4 13 -7q3 -2 7.5 -2.5t9.5 -2.5l32 -8q15 -3 29 -8q6 -2 12 -3.5t11 -3.5t9 -3.5t8 -3.5q7 -4 13 -8zM2618 447q6 -6 7 -11q3 -6 3 -13t-3 -13 q-1 -5 -7 -11q-3 -3 -11 -7q-6 -3 -13 -3t-13 3q-5 2 -11 7q-2 2 -3.5 5t-2.5 6q-3 6 -3 13t3 13q1 3 2.5 6t3.5 5q6 4 11 7q6 3 13 3t13 -3q8 -4 11 -7zM3080 535q2 -5 3 -10.5t3 -11.5q1 -5 1.5 -11t0.5 -12q0 -21 -8 -42q-3 -9 -8.5 -17t-11.5 -16q-26 -29 -66 -29h-9 q-23 0 -38 7q-16 7 -28 22q-8 8 -12 16q-2 4 -4.5 8t-4.5 9q-7 18 -7 42v12t2 11q1 11 6 22q3 10 9 19q2 5 5 8.5t7 8.5q27 30 68 30h2q25 0 38 -8q18 -7 31 -22q3 -5 6 -8.5t6 -8.5q2 -5 4.5 -9.5t4.5 -9.5zM3040 484q1 4 1 14q0 6 -0.5 13.5t-3.5 13.5q0 10 -8.5 21 t-17.5 16q-8 4 -21 4h-1q-14 0 -21 -4q-7 -5 -13 -11t-11 -17q-2 -4 -4 -10t-2 -12q0 -4 -0.5 -7t-0.5 -7t0.5 -7t0.5 -6q0 -6 2 -12q0 -2 1 -5t2 -5q1 -3 2.5 -5t3.5 -5q4 -8 15 -12q8 -4 24 -4h2q15 0 23 4t15 12q5 8 7.5 15t4.5 16zM2803 451h50v-5q0 -5 -2 -13 q-1 -3 -3 -6.5t-4 -7.5q-2 -2 -4 -5t-4 -5q-6 -6 -9 -8q-7 -7 -14 -8q-4 -2 -7.5 -2.5t-7.5 -2.5q-5 0 -8.5 -0.5t-7.5 -1.5h-16q-21 0 -39 8q-8 4 -15.5 8.5t-13.5 12.5q-11 15 -17 33q-6 19 -6 42q0 7 0.5 13t0.5 12q2 5 2.5 10.5t2.5 10.5q4 10 8.5 18.5t11.5 16.5 q3 4 6.5 7t7.5 6t8 5.5t9 4.5t9.5 3t9.5 2q5 2 9.5 2h9.5q19 0 32 -4q14 -5 24 -13q16 -10 22 -35l2 -6h-45v3q-2 2 -2 3.5t-1 2.5q-2 4 -3 5q-2 1 -2.5 2t-2.5 2q-4 2 -7 3q-4 2 -7 2q-2 0 -4 0.5t-6 0.5q-7 0 -13 -3q-5 -1 -13 -6q-5 -3 -9 -9q-6 -8 -8 -13 q-1 -2 -1.5 -3.5t-1.5 -3.5q-1 -3 -1 -8q-1 -2 -1 -4t-1 -4v-12q0 -7 0.5 -13t1.5 -11q2 -5 3.5 -10.5t4.5 -10.5v-1q1 -2 2 -3.5t2 -3.5q2 -3 5 -5q4 -4 11 -4q8 -2 17 -2h3q13 0 17 1q3 1 4.5 1t3.5 1l4 2q2 4 2 5zM3532 393q0 -26 -9.5 -48.5t-26.5 -39t-39.5 -26.5 t-47.5 -10h-53q-17 0 -30 4q-7 -2 -14.5 -3t-15.5 -1h-52q-17 0 -30 4q-7 -2 -14.5 -3t-15.5 -1h-52q-26 0 -50 11q-42 -18 -88 -18h-9q-49 0 -86 17q-5 2 -9.5 4.5t-8.5 4.5q-6 -3 -11.5 -6t-11.5 -5q-9 -4 -18.5 -6.5t-18.5 -4.5q-18 -3 -34 -3q-5 -1 -10.5 -1h-10.5 q-45 0 -87 17q-5 2 -10 5q-8 -4 -13 -6q-27 -13 -62 -13q-29 0 -59 11q-3 0 -5 -1q-3 -1 -6.5 -2t-6.5 -1q-6 -3 -12 -3l-7 -2q-5 -1 -9 -1.5t-9 -0.5q-10 -2 -17 -2q-5 -1 -10.5 -1h-11.5q-35 0 -66 12q-8 1 -15 6q-25 -11 -49 -11h-53q-19 0 -37 6q-18 -6 -38 -6h-52 q-26 0 -50 11q-41 -18 -88 -18h-8q-49 0 -86 17q-8 3 -14.5 6.5t-13.5 7.5q-32 -24 -73 -24h-37q-25 0 -48.5 10t-40.5 27q-17 18 -26.5 41.5t-8.5 48.5l2 69q-18 17 -28.5 40.5t-10.5 49.5v39q0 29 12 54t33 43q0 2 1 4q2 15 6 28.5t11 26.5q1 1 1.5 2.5t2.5 3.5t3 5t3 5 q-14 3 -29 7t-29 9q-3 2 -6.5 3t-6.5 3q-13 -7 -26.5 -9.5t-30.5 -3.5h-104q-18 0 -35.5 3t-33.5 11t-28 16l-6 -3q-11 -7 -22.5 -12t-23.5 -10q-12 -4 -24.5 -7t-25.5 -6q-23 -4 -52 -4q-28 0 -53 4t-48 12q-43 15 -77 46q-1 -4 -2 -7l-2 -6q-2 -6 -3.5 -11.5t-3.5 -10.5 q-2 -8 -5 -15.5t-5 -14.5q-4 -16 -11 -31q-3 -8 -6 -14.5t-6 -13.5q-9 -18 -22 -34l-1 -1q0 -1 -1 -1q-8 -10 -16.5 -17.5t-17.5 -15.5q-22 -16 -50 -27q-11 -3 -22.5 -5.5t-24.5 -3.5q-8 -2 -17 -2h-20q-20 0 -38.5 3.5t-36.5 9.5q-35 13 -68 43q-23 21 -34 50t-6 60l2 15 h-18h-14q-11 -4 -19 -5q-27 -7 -59 -7h-1q-18 0 -35.5 2.5t-32.5 7.5q-30 10 -54 27q-11 8 -21.5 17t-18.5 20q-3 4 -6 7.5t-5 7.5q-5 5 -7 9q-9 12 -21 32q-5 10 -10 19.5t-10 20.5t-9 22l-8 22q-5 13 -8 26l-6 26q-4 14 -5.5 28.5t-3.5 27.5q-2 31 3 60q3 21 9 37 q5 15 14 32q5 8 9.5 15t9.5 15q7 7 15 18q1 0 1 0.5t1 0.5q39 45 92 67q37 16 80 21l4 59q2 24 12.5 45.5t27 37t38.5 24.5t46 9h70q26 0 49.5 -10.5t40.5 -28.5q37 -39 34 -92l-3 -53h23q40 0 72 -23q31 23 71 23h71q32 0 58 -14q8 4 16.5 7t17.5 6q19 6 43 9q10 2 20 2h21 q28 0 51 -3t43 -8h1v21v24v16q0 25 10 48t26.5 39.5t39 26.5t48.5 10h70q25 0 48 -10t39.5 -27t26.5 -39.5t10 -48.5v-14v-25v-33v-8q2 0 3.5 1t3.5 2q26 15 58 21q28 7 60 7q44 0 77 -10q11 -4 21.5 -7.5t19.5 -8.5q29 34 70.5 53.5t86.5 19.5h277q8 0 16.5 -1t16.5 -2 q2 8 4 12q14 31 36 53q25 25 55 38q33 14 68 14q36 0 68 -15q31 -14 55 -37q22 -22 35 -54q14 -33 14 -66v-4q15 5 30 8q28 7 60 7q43 0 76 -10q27 -8 45 -18q8 -3 15 -7t15 -9q7 -5 13.5 -10.5t12.5 -11.5q7 -6 12.5 -12t11.5 -13q15 -18 24 -34q5 -8 8.5 -17t8.5 -18 q13 -30 17 -60q2 -8 2 -13q3 -38 -8 -76q11 -25 11 -53v-7v-5q-1 -28 -9 -55q-5 -15 -12 -29.5t-17 -28.5l-1 -2q-14 -21 -32 -34q-10 -10 -20 -17q-8 -6 -17 -11.5t-17 -10.5q-8 -3 -15.5 -6.5t-15.5 -6.5q-8 -2 -15.5 -4t-15.5 -3q-5 -1 -9 -2t-9 -2q-9 -2 -18.5 -2 t-20.5 -1h-28q-59 0 -104 19q-9 4 -17.5 8t-16.5 9q-16 -11 -35 -17.5t-40 -6.5h-13q5 -5 9 -9.5t8 -9.5l18 -23q13 -15 19 -38q17 -12 26 -25l16 -21q1 -1 1 -1.5t1 -1.5l6 6q8 10 16.5 17.5t18.5 15.5q20 14 43 23q10 5 20 8t21 5q23 5 44 5q18 0 34.5 -2.5t32.5 -7.5 q25 -8 43 -18q50 27 107 28h3h2q48 -2 87 -19q1 -1 2 -1q12 7 26.5 10t28.5 3h33q6 2 12 2.5t12 1.5q13 3 29 3q14 0 26.5 -2t25.5 -5q6 2 12 2.5t11 1.5q6 1 11 1.5t10 0.5q4 0 7 0.5t7 0.5q44 0 86 -20q43 -19 69 -54l2 -2q23 -29 32 -63q9 -29 9 -62l2 -125v-7zM1638 838 q18 -7 38.5 -11t42.5 -4h12.5t14.5 1q9 0 16.5 0.5t15.5 1.5q4 1 7 1.5t8 1.5q12 2 22 6q6 2 12 4.5t12 4.5q6 3 12 7t11 8q17 -42 54.5 -69t85.5 -27h277q42 0 76 21t54 56q10 -5 25 -5h82q23 0 40.5 14.5t22.5 36.5l1 -1q31 -33 68 -47q18 -7 38 -11t43 -4h13t13 1 q10 0 17.5 0.5t14.5 1.5q4 1 7.5 1.5t8.5 1.5q12 2 22 6q6 2 12 4.5t11 4.5q14 8 25 16q5 3 9 6.5t9 7.5q5 5 12.5 13.5t10.5 12.5q12 18 20 41q5 16 7 40v2v7q0 27 -20 47q20 34 17 78q0 4 -1 6q-4 25 -14 46q-6 15 -15 31q-3 7 -7 13t-9 11t-9.5 10t-9.5 10q-9 9 -20 16 t-21 12q-17 9 -36 14q-27 8 -59 8q-12 0 -23.5 -1.5t-22.5 -3.5q-12 -3 -23.5 -7t-22.5 -10q-18 -10 -35 -23t-31 -30l-1 -1q-1 -2 -5 -6v9q-2 27 -18 43q8 8 13 16.5t10 18.5q4 11 6.5 21.5t2.5 22.5q0 11 -2.5 21.5t-6.5 21.5q-9 20 -24 35q-16 16 -35 25q-20 9 -44 9 q-23 0 -45 -9q-19 -9 -35 -25t-23 -35q-10 -22 -10 -43q0 -15 5 -32q-38 29 -88 29h-277q-48 0 -85 -27t-54 -69q-5 5 -10 8.5t-10 7.5t-10.5 7t-10.5 5q-14 8 -36 14q-27 8 -59 8q-21 0 -46 -5q-12 -3 -23 -7t-22 -10q-38 -20 -67 -53l-1 -1q-15 -18 -25 -37q-1 -2 -2 -3 t-1 -3v11q0 29 1 61t1 84v33v24v9v6q0 27 -19 46t-45 19h-70q-26 0 -45 -19t-19 -46v-15v-24v-33q-1 -9 -1 -18.5v-19.5t-0.5 -20t-0.5 -19v-19q-2 3 -4.5 5.5t-4.5 5.5q-26 26 -66 39q-33 9 -78 9q-9 0 -17.5 -0.5t-16.5 -1.5q-18 -2 -33 -7q-8 -2 -16 -5.5t-16 -7.5 q-7 -3 -13 -7t-11 -9v1q-19 27 -53 27h-71q-20 0 -36.5 -12t-23.5 -31l-9 -25l-17 34q-8 16 -23.5 25t-33.5 9h-72q-5 0 -15 -2l7 118q2 28 -18 48t-46 20h-70q-26 0 -44 -17t-20 -43l-7 -116q-7 1 -13.5 1.5t-12.5 0.5q-45 0 -87 -17q-41 -18 -71 -51q0 -1 -0.5 -1t-0.5 -1 q-4 -4 -7 -7.5t-6 -7.5q-7 -10 -14 -22q-3 -5 -5.5 -11t-4.5 -12q-4 -12 -6 -26q-2 -11 -2.5 -23t-0.5 -24q2 -11 3.5 -22.5t4.5 -24.5q4 -23 12 -45q3 -10 7 -20t8 -19q5 -10 9 -18.5t8 -16.5q5 -8 9.5 -15t8.5 -13q1 -2 4 -5q3 -4 6 -7.5t6 -6.5q6 -8 13 -14.5t15 -11.5 q18 -13 38 -19q22 -8 49 -8h1q24 0 45 6q7 2 13.5 3.5t14.5 4.5q5 -2 9.5 -2h9.5h91q-2 -4 -3 -7.5t-1 -8.5l-11 -68q-2 -17 4.5 -32t19.5 -28q10 -8 21 -15t24 -12t26.5 -7t27.5 -2h16.5t15.5 1q18 2 33 7q17 6 33 17q6 5 12 11l13 13v1q8 10 15 23q3 5 5.5 11t4.5 12 q3 6 5.5 13t4.5 14t4.5 14.5t5.5 15.5q2 6 3.5 11t3.5 12q2 5 4 11t4 13v1q1 2 2.5 6t3.5 10l4.5 13.5t4.5 16.5q3 8 6.5 18t7.5 21q2 8 5 16l6 16q1 -5 1 -9t2 -8q3 -17 9 -28q2 -7 5.5 -13t7.5 -13q4 -5 7.5 -10t8.5 -10l1 -1q25 -30 68 -45q35 -13 81 -13q11 0 21 1t21 3 t20.5 4.5t19.5 5.5q10 4 19 8t17 9q19 11 32 24l9 9q2 -3 4.5 -6.5t5.5 -6.5q0 -1 1 -2q16 -19 37 -28q11 -5 22 -7t22 -2h104q16 0 29.5 7t22.5 19q21 -14 41 -23zM3408 330q27 0 45.5 18.5t18.5 44.5v5l-2 127q0 12 -2 23t-5 22q-3 12 -8.5 22.5t-13.5 21.5h-1 q-18 24 -48 38q-26 13 -60 13h-11q-5 0 -15 -2q-5 0 -9.5 -1t-9.5 -2q-7 -1 -14 -5q-4 2 -7 3l-6 2q-20 5 -38 5h-10.5t-10.5 -1t-11 -2.5t-12 -2.5h-42q-16 0 -29 -7.5t-22 -18.5q-7 6 -15 10.5t-16 8.5q-29 12 -66 13q-65 0 -108 -43q-5 6 -15 13q-21 16 -45 23 q-21 7 -50 7q-16 0 -32 -3q-14 -3 -30 -9l-16 -8t-14 -9q-15 -10 -26 -23q-22 -27 -32 -57q-2 -8 -3.5 -16.5t-3.5 -16.5v-4q-5 1 -9.5 1.5t-9.5 0.5q-19 0 -38 -8q-16 -7 -25 -16l-2 2q16 8 25.5 23t9.5 34v18q0 21 -13 39l-15 20q-14 17 -33 23v1q0 23 -13 40l-18 23 q-19 25 -51 25h-22q-26 0 -44 -17t-20 -43l-1 -28q-8 -1 -14 -3.5t-12 -6.5q-1 1 -1.5 1t-1.5 1q-29 16 -68 16q-19 0 -32 -4q-4 0 -7.5 -1t-8.5 -3q-8 2 -12 2h-44q-14 0 -26 -6t-21 -16q-2 -2 -2 -3q-7 6 -14.5 10t-15.5 8q-31 13 -63 13h-1h-2h-1q-34 0 -65 -14l7 25 q8 26 -7 52l-2 2q0 1 -2 3q-7 11 -15 16q-10 8 -20 14q-20 10 -37 10q-5 1 -10 1.5t-10 0.5h-9q-6 0 -10 -1q-7 0 -11 -1q-5 0 -15 -2q-11 -3 -22 -9q-5 -2 -9.5 -5t-9.5 -6q-10 -8 -15 -17q-2 -2 -3.5 -4.5t-3.5 -5.5q0 1 -2 -3q-4 -8 -6.5 -16t-4.5 -19q-1 -6 -1.5 -14 t-0.5 -17q-19 -7 -31 -23.5t-12 -37.5v-39q0 -20 11 -35.5t28 -23.5l-2 -101q0 -28 18 -46q18 -19 46 -19h37q21 0 37.5 11.5t23.5 31.5l3 10q3 -4 7 -10q22 -25 53 -39q28 -12 63 -12h8q51 0 91 28v-1q19 -19 47 -19h52q21 0 38 12q16 -12 37 -12h53q29 0 48 21 q8 -6 17 -11.5t20 -9.5q21 -8 45 -8q5 0 9.5 0.5t8.5 0.5q10 0 14 1t7 1t6 1l7 2q4 0 10 2t9 2l15 6q2 2 5 3t5 3q5 -3 9.5 -6t9.5 -5q19 -8 38 -8q20 0 39 8q9 4 16.5 9.5t14.5 12.5l2 2q8 -7 16.5 -12.5t19.5 -10.5q14 -5 30.5 -8.5t33.5 -3.5q5 0 9.5 0.5t9.5 0.5 q6 0 12 0.5t12 1.5q8 2 14.5 4t12.5 4q8 3 15 7t14 9q1 0 1 0.5t1 0.5q3 2 6.5 5.5l6.5 6.5q10 -8 20.5 -15.5t22.5 -12.5q28 -12 62 -12h9q52 0 90 29l2 -2q19 -19 46 -19h52q17 0 30 7q13 -7 30 -7h52q17 0 30 7q13 -7 30 -7h52zM3403 551q3 -12 3 -27l2 -131h-52l3 139 q-1 3 -1 6.5t-1 6.5q-4 8 -7 11q-1 2 -5 4q-1 2 -2 2t-3 2q-1 0 -2.5 1t-3.5 1t-3.5 0.5t-3.5 0.5q-6 0 -10 -2q-4 -1 -8 -3q-2 -2 -3 -2.5t-2 -2.5q-2 -1 -2 -1.5t-1 -1.5q-5 -7 -6 -11q-2 -6 -2 -11l3 -139h-52l3 139q0 11 -6 20q-1 1 -1.5 2.5t-2.5 2.5q-1 2 -2 2.5 t-3 2.5t-4 2t-4 2q-2 0 -4.5 0.5t-5.5 0.5q-2 0 -4.5 -0.5t-4.5 -0.5q-2 -1 -3.5 -1.5t-3.5 -1.5q-3 -2 -5 -5q-2 -2 -2.5 -3t-2.5 -3q-4 -4 -5 -9q-2 -6 -2 -11v-7q0 -4 1 -7v-18v-8v-13v-7.5t1 -8.5v-18v-17q0 -5 0.5 -8t0.5 -7v-10v-4v-6h-52l4 201h43v-7q2 1 2.5 2 t1.5 1q2 2 3 2t3 2q2 0 4 2q4 2 7 3q3 0 9 2h13h10.5t9.5 -2q8 -3 17 -8q4 -4 6 -5q2 -2 3 -3.5t3 -3.5q6 6 9 8q2 2 5 3.5t6 3.5q6 2 11 4q3 1 6 1t5 1q4 1 11 1h8q19 0 33 -7q13 -5 26 -20q8 -11 12 -23zM2310 416q0 -10 1 -13v-4v-6h-53l1 6q0 11 0.5 21.5t0.5 18.5 q0 9 0.5 16.5t0.5 13.5q0 7 0.5 12t0.5 9v14v9v4v2q0 13 -1 17q0 7 -2 11t-3 7q-2 2 -2.5 3t-2.5 3q-4 3 -8 5q-6 2 -12 2q-1 0 -2 -0.5t-3 -0.5q-1 0 -5 -2q-1 0 -2.5 -1t-2.5 -1q-1 -2 -2 -2t-1 -1l-6 -3q-1 -2 -2 -2.5t-3 -2.5l-5 -5q-1 -2 -2 -3.5t-3 -3.5q-5 -5 -6 -8 q-2 -6 -3 -10q-2 -2 -2 -5v-6v-6v-8v-8v-12v-16v-8.5t1 -8.5v-16q0 -5 0.5 -8.5t0.5 -6.5v-9v-4v-6h-52v6v6q0 2 0.5 6t0.5 9t0.5 10t0.5 11t0.5 12t0.5 12q1 7 1.5 13.5t0.5 13.5v12t1 12v10t1 10v12q0 2 -0.5 5.5t-0.5 6.5q-1 4 -1 7.5v6.5q0 4 -0.5 6.5t-0.5 4.5 q-1 1 -1 4v1l-1 4h44l2 -21q2 2 2.5 3t2.5 3q1 2 5 6q2 1 6 5l6 3q9 5 17 6q5 2 9.5 2h9.5q24 0 37 -8q15 -7 23 -24q5 -9 6 -20q3 -11 3 -28v-11q0 -4 0.5 -8t0.5 -9t0.5 -9.5t0.5 -9.5v-22q1 -5 1 -9.5t1 -9.5v-17zM2079 535q5 -11 6 -22q1 -5 1.5 -11t0.5 -12 q0 -11 -2 -21.5t-5 -20.5q-2 -5 -4.5 -9t-4.5 -8q-2 -5 -5 -8.5t-6 -7.5q-26 -29 -67 -29h-8q-23 0 -38 7q-18 8 -29 22q-3 4 -6 7.5t-5 8.5q-3 4 -5 8t-4 9q-8 21 -8 42q0 12 3 23q1 11 6 22q3 10 9 19q2 5 5 8.5t6 8.5q27 30 69 30h2q23 0 38 -8q19 -8 30 -22 q3 -5 6.5 -8.5t5.5 -8.5t4.5 -9.5t4.5 -9.5zM2040 484q1 4 1 14t-1 15q-1 3 -1 6t-2 6q-2 6 -4 11t-5 10q-6 9 -17 16q-8 4 -22 4h-1q-13 0 -21 -4q-5 -3 -9 -7t-7 -10q-3 -3 -7 -11q-3 -4 -4 -11q-1 -3 -1.5 -5.5t-0.5 -5.5q-1 -5 -1 -14t1 -13q0 -9 2 -12q0 -2 1 -5t2 -5 q1 -3 2 -5t3 -5q6 -8 15 -12t24 -4h2q16 0 24 4q9 4 15 12q4 6 5 10q2 2 2.5 4.5t1.5 4.5q2 3 2 6t1 6zM2494 445l14 -44l-4 -2q-2 -1 -3 -2t-2 -1q-4 -2 -6 -2q-2 -2 -5 -2q-2 0 -8 -2q-4 0 -7 -1q-2 -1 -8 -1q-2 0 -5 -0.5t-6 -0.5q-3 -1 -13 -1q-7 0 -13 1t-11 3 q-11 4 -18 11q-2 3 -4 6.5t-3 8.5q-2 4 -2.5 9t-0.5 10l4 121h-49v38h50l5 87h22l18 -23l-2 -64h47l16 -20v-18h-63v-107q0 -11 4 -14q2 -2 5 -2h8h11q8 2 12 4q1 0 5 2q2 0 3 1t3 2z" />
<glyph horiz-adv-x="1024" />
</font>
</defs>
</svg>
